%TF.GenerationSoftware,KiCad,Pcbnew,(6.0.8)*%
%TF.CreationDate,2022-11-15T21:12:59+04:00*%
%TF.ProjectId,Dryer2,44727965-7232-42e6-9b69-6361645f7063,rev?*%
%TF.SameCoordinates,Original*%
%TF.FileFunction,Profile,NP*%
%FSLAX46Y46*%
G04 Gerber Fmt 4.6, Leading zero omitted, Abs format (unit mm)*
G04 Created by KiCad (PCBNEW (6.0.8)) date 2022-11-15 21:12:59*
%MOMM*%
%LPD*%
G01*
G04 APERTURE LIST*
%TA.AperFunction,Profile*%
%ADD10C,0.100000*%
%TD*%
%TA.AperFunction,Profile*%
%ADD11C,0.200000*%
%TD*%
G04 APERTURE END LIST*
D10*
X247300000Y-126500000D02*
X254200000Y-126500000D01*
X247300000Y-123500000D02*
G75*
G03*
X247300000Y-126500000I0J-1500000D01*
G01*
X247300000Y-123500000D02*
X254200000Y-123500000D01*
X254200000Y-126500000D02*
G75*
G03*
X254200000Y-123500000I0J1500000D01*
G01*
X252100000Y-62700000D02*
G75*
G03*
X249100000Y-62700000I-1500000J0D01*
G01*
X249100000Y-87100000D02*
G75*
G03*
X252100000Y-87100000I1500000J0D01*
G01*
X249100000Y-87100000D02*
X249100000Y-62700000D01*
X252100000Y-87100000D02*
X252100000Y-62700000D01*
X256200000Y-144700000D02*
G75*
G03*
X256200000Y-141700000I0J1500000D01*
G01*
X247900000Y-141700000D02*
G75*
G03*
X247900000Y-144700000I0J-1500000D01*
G01*
X247900000Y-141700000D02*
X256200000Y-141700000D01*
X247900000Y-144700000D02*
X256200000Y-144700000D01*
X256100000Y-107500000D02*
G75*
G03*
X256100000Y-104500000I0J1500000D01*
G01*
X247100000Y-104500000D02*
G75*
G03*
X247100000Y-107500000I0J-1500000D01*
G01*
X247100000Y-104500000D02*
X256100000Y-104500000D01*
X247100000Y-107500000D02*
X256100000Y-107500000D01*
X248500000Y-101500000D02*
G75*
G03*
X251500000Y-101500000I1500000J0D01*
G01*
X251500000Y-91500000D02*
G75*
G03*
X248500000Y-91500000I-1500000J0D01*
G01*
X251500000Y-91500000D02*
X251500000Y-101500000D01*
X248500000Y-91500000D02*
X248500000Y-101500000D01*
X248900000Y-120700000D02*
G75*
G03*
X251900000Y-120700000I1500000J0D01*
G01*
X251900000Y-110700000D02*
G75*
G03*
X248900000Y-110700000I-1500000J0D01*
G01*
X251900000Y-110700000D02*
X251900000Y-120700000D01*
X248900000Y-110700000D02*
X248900000Y-120700000D01*
X248900000Y-139300000D02*
G75*
G03*
X251900000Y-139300000I1500000J0D01*
G01*
X251900000Y-129300000D02*
G75*
G03*
X248900000Y-129300000I-1500000J0D01*
G01*
X251900000Y-129300000D02*
X251900000Y-139300000D01*
X248900000Y-129300000D02*
X248900000Y-139300000D01*
X254000000Y-147000000D02*
X254000000Y-157000000D01*
X251000000Y-147000000D02*
X251000000Y-157000000D01*
X251000000Y-157000000D02*
G75*
G03*
X254000000Y-157000000I1500000J0D01*
G01*
X254000000Y-147000000D02*
G75*
G03*
X251000000Y-147000000I-1500000J0D01*
G01*
D11*
X175844000Y-59385000D02*
X275844000Y-59385000D01*
X275844000Y-59385000D02*
X275844000Y-159385000D01*
X275844000Y-159385000D02*
X175844000Y-159385000D01*
X175844000Y-159385000D02*
X175844000Y-59385000D01*
M02*
