%TF.GenerationSoftware,KiCad,Pcbnew,(6.0.8)*%
%TF.CreationDate,2022-11-15T21:15:28+04:00*%
%TF.ProjectId,Dryer2,44727965-7232-42e6-9b69-6361645f7063,rev?*%
%TF.SameCoordinates,Original*%
%TF.FileFunction,Drillmap*%
%TF.FilePolarity,Positive*%
%FSLAX45Y45*%
G04 Gerber Fmt 4.5, Leading zero omitted, Abs format (unit mm)*
G04 Created by KiCad (PCBNEW (6.0.8)) date 2022-11-15 21:15:28*
%MOMM*%
%LPD*%
G01*
G04 APERTURE LIST*
%ADD10C,0.100000*%
%ADD11C,0.200000*%
%ADD12C,0.035000*%
%ADD13C,0.070000*%
%ADD14C,0.080000*%
%ADD15C,0.090000*%
%ADD16C,0.110000*%
%ADD17C,0.120000*%
%ADD18C,0.130000*%
%ADD19C,0.140000*%
%ADD20C,0.180000*%
G04 APERTURE END LIST*
D10*
X24730000Y-12650000D02*
X25420000Y-12650000D01*
X24730000Y-12350000D02*
G75*
G03*
X24730000Y-12650000I0J-150000D01*
G01*
X24730000Y-12350000D02*
X25420000Y-12350000D01*
X25420000Y-12650000D02*
G75*
G03*
X25420000Y-12350000I0J150000D01*
G01*
X25210000Y-6270000D02*
G75*
G03*
X24910000Y-6270000I-150000J0D01*
G01*
X24910000Y-8710000D02*
G75*
G03*
X25210000Y-8710000I150000J0D01*
G01*
X24910000Y-8710000D02*
X24910000Y-6270000D01*
X25210000Y-8710000D02*
X25210000Y-6270000D01*
X25620000Y-14470000D02*
G75*
G03*
X25620000Y-14170000I0J150000D01*
G01*
X24790000Y-14170000D02*
G75*
G03*
X24790000Y-14470000I0J-150000D01*
G01*
X24790000Y-14170000D02*
X25620000Y-14170000D01*
X24790000Y-14470000D02*
X25620000Y-14470000D01*
X25610000Y-10750000D02*
G75*
G03*
X25610000Y-10450000I0J150000D01*
G01*
X24710000Y-10450000D02*
G75*
G03*
X24710000Y-10750000I0J-150000D01*
G01*
X24710000Y-10450000D02*
X25610000Y-10450000D01*
X24710000Y-10750000D02*
X25610000Y-10750000D01*
X24850000Y-10150000D02*
G75*
G03*
X25150000Y-10150000I150000J0D01*
G01*
X25150000Y-9150000D02*
G75*
G03*
X24850000Y-9150000I-150000J0D01*
G01*
X25150000Y-9150000D02*
X25150000Y-10150000D01*
X24850000Y-9150000D02*
X24850000Y-10150000D01*
X24890000Y-12070000D02*
G75*
G03*
X25190000Y-12070000I150000J0D01*
G01*
X25190000Y-11070000D02*
G75*
G03*
X24890000Y-11070000I-150000J0D01*
G01*
X25190000Y-11070000D02*
X25190000Y-12070000D01*
X24890000Y-11070000D02*
X24890000Y-12070000D01*
X24890000Y-13930000D02*
G75*
G03*
X25190000Y-13930000I150000J0D01*
G01*
X25190000Y-12930000D02*
G75*
G03*
X24890000Y-12930000I-150000J0D01*
G01*
X25190000Y-12930000D02*
X25190000Y-13930000D01*
X24890000Y-12930000D02*
X24890000Y-13930000D01*
X25400000Y-14700000D02*
X25400000Y-15700000D01*
X25100000Y-14700000D02*
X25100000Y-15700000D01*
X25100000Y-15700000D02*
G75*
G03*
X25400000Y-15700000I150000J0D01*
G01*
X25400000Y-14700000D02*
G75*
G03*
X25100000Y-14700000I-150000J0D01*
G01*
D11*
X17584400Y-5938500D02*
X27584400Y-5938500D01*
X27584400Y-5938500D02*
X27584400Y-15938500D01*
X27584400Y-15938500D02*
X17584400Y-15938500D01*
X17584400Y-15938500D02*
X17584400Y-5938500D01*
D12*
X22692500Y-13892500D02*
X22727500Y-13927500D01*
X22727500Y-13892500D02*
X22692500Y-13927500D01*
D13*
X20245000Y-8800000D02*
G75*
G03*
X20245000Y-8800000I-35000J0D01*
G01*
D14*
X18382000Y-8230000D02*
X18382000Y-8310000D01*
X18342000Y-8270000D02*
X18422000Y-8270000D01*
X18856000Y-12928500D02*
X18856000Y-13008500D01*
X18816000Y-12968500D02*
X18896000Y-12968500D01*
X18856000Y-13690500D02*
X18856000Y-13770500D01*
X18816000Y-13730500D02*
X18896000Y-13730500D01*
X18886000Y-14689000D02*
X18886000Y-14769000D01*
X18846000Y-14729000D02*
X18926000Y-14729000D01*
X18886000Y-15451000D02*
X18886000Y-15531000D01*
X18846000Y-15491000D02*
X18926000Y-15491000D01*
X18922000Y-8760000D02*
X18922000Y-8840000D01*
X18882000Y-8800000D02*
X18962000Y-8800000D01*
X19110000Y-12928500D02*
X19110000Y-13008500D01*
X19070000Y-12968500D02*
X19150000Y-12968500D01*
X19110000Y-13690500D02*
X19110000Y-13770500D01*
X19070000Y-13730500D02*
X19150000Y-13730500D01*
X19140000Y-14689000D02*
X19140000Y-14769000D01*
X19100000Y-14729000D02*
X19180000Y-14729000D01*
X19140000Y-15451000D02*
X19140000Y-15531000D01*
X19100000Y-15491000D02*
X19180000Y-15491000D01*
X19398000Y-8230000D02*
X19398000Y-8310000D01*
X19358000Y-8270000D02*
X19438000Y-8270000D01*
X19490500Y-12673500D02*
X19490500Y-12753500D01*
X19450500Y-12713500D02*
X19530500Y-12713500D01*
X19490500Y-13689500D02*
X19490500Y-13769500D01*
X19450500Y-13729500D02*
X19530500Y-13729500D01*
X19520500Y-14434000D02*
X19520500Y-14514000D01*
X19480500Y-14474000D02*
X19560500Y-14474000D01*
X19520500Y-15450000D02*
X19520500Y-15530000D01*
X19480500Y-15490000D02*
X19560500Y-15490000D01*
X19659600Y-10675000D02*
X19659600Y-10755000D01*
X19619600Y-10715000D02*
X19699600Y-10715000D01*
X19659600Y-11165000D02*
X19659600Y-11245000D01*
X19619600Y-11205000D02*
X19699600Y-11205000D01*
X19812000Y-7880000D02*
X19812000Y-7960000D01*
X19772000Y-7920000D02*
X19852000Y-7920000D01*
X19935500Y-12928500D02*
X19935500Y-13008500D01*
X19895500Y-12968500D02*
X19975500Y-12968500D01*
X19935500Y-13690500D02*
X19935500Y-13770500D01*
X19895500Y-13730500D02*
X19975500Y-13730500D01*
X19938000Y-8760000D02*
X19938000Y-8840000D01*
X19898000Y-8800000D02*
X19978000Y-8800000D01*
X19965500Y-14689000D02*
X19965500Y-14769000D01*
X19925500Y-14729000D02*
X20005500Y-14729000D01*
X19965500Y-15451000D02*
X19965500Y-15531000D01*
X19925500Y-15491000D02*
X20005500Y-15491000D01*
X20090000Y-9510000D02*
X20090000Y-9590000D01*
X20050000Y-9550000D02*
X20130000Y-9550000D01*
X20090000Y-10010000D02*
X20090000Y-10090000D01*
X20050000Y-10050000D02*
X20130000Y-10050000D01*
X20100000Y-10535000D02*
X20100000Y-10615000D01*
X20060000Y-10575000D02*
X20140000Y-10575000D01*
X20100000Y-10785000D02*
X20100000Y-10865000D01*
X20060000Y-10825000D02*
X20140000Y-10825000D01*
X20100000Y-11045000D02*
X20100000Y-11125000D01*
X20060000Y-11085000D02*
X20140000Y-11085000D01*
X20100000Y-11295000D02*
X20100000Y-11375000D01*
X20060000Y-11335000D02*
X20140000Y-11335000D01*
X20189500Y-12928500D02*
X20189500Y-13008500D01*
X20149500Y-12968500D02*
X20229500Y-12968500D01*
X20189500Y-13690500D02*
X20189500Y-13770500D01*
X20149500Y-13730500D02*
X20229500Y-13730500D01*
X20193000Y-6875765D02*
X20193000Y-6955765D01*
X20153000Y-6915765D02*
X20233000Y-6915765D01*
X20193000Y-7375765D02*
X20193000Y-7455765D01*
X20153000Y-7415765D02*
X20233000Y-7415765D01*
X20219500Y-14689000D02*
X20219500Y-14769000D01*
X20179500Y-14729000D02*
X20259500Y-14729000D01*
X20219500Y-15451000D02*
X20219500Y-15531000D01*
X20179500Y-15491000D02*
X20259500Y-15491000D01*
X20560000Y-8757500D02*
X20560000Y-8837500D01*
X20520000Y-8797500D02*
X20600000Y-8797500D01*
X20560000Y-9011500D02*
X20560000Y-9091500D01*
X20520000Y-9051500D02*
X20600000Y-9051500D01*
X20560000Y-9265500D02*
X20560000Y-9345500D01*
X20520000Y-9305500D02*
X20600000Y-9305500D01*
X20560000Y-9519500D02*
X20560000Y-9599500D01*
X20520000Y-9559500D02*
X20600000Y-9559500D01*
X20560000Y-9773500D02*
X20560000Y-9853500D01*
X20520000Y-9813500D02*
X20600000Y-9813500D01*
X20560000Y-10027500D02*
X20560000Y-10107500D01*
X20520000Y-10067500D02*
X20600000Y-10067500D01*
X20560000Y-10281500D02*
X20560000Y-10361500D01*
X20520000Y-10321500D02*
X20600000Y-10321500D01*
X20560000Y-10535500D02*
X20560000Y-10615500D01*
X20520000Y-10575500D02*
X20600000Y-10575500D01*
X20560000Y-10789500D02*
X20560000Y-10869500D01*
X20520000Y-10829500D02*
X20600000Y-10829500D01*
X20560000Y-11043500D02*
X20560000Y-11123500D01*
X20520000Y-11083500D02*
X20600000Y-11083500D01*
X20560000Y-11297500D02*
X20560000Y-11377500D01*
X20520000Y-11337500D02*
X20600000Y-11337500D01*
X20560000Y-11551500D02*
X20560000Y-11631500D01*
X20520000Y-11591500D02*
X20600000Y-11591500D01*
X20560000Y-11805500D02*
X20560000Y-11885500D01*
X20520000Y-11845500D02*
X20600000Y-11845500D01*
X20560000Y-12059500D02*
X20560000Y-12139500D01*
X20520000Y-12099500D02*
X20600000Y-12099500D01*
X20570000Y-12692000D02*
X20570000Y-12772000D01*
X20530000Y-12732000D02*
X20610000Y-12732000D01*
X20570000Y-13708000D02*
X20570000Y-13788000D01*
X20530000Y-13748000D02*
X20610000Y-13748000D01*
X20600000Y-14434000D02*
X20600000Y-14514000D01*
X20560000Y-14474000D02*
X20640000Y-14474000D01*
X20600000Y-15450000D02*
X20600000Y-15530000D01*
X20560000Y-15490000D02*
X20640000Y-15490000D01*
X20828000Y-7880000D02*
X20828000Y-7960000D01*
X20788000Y-7920000D02*
X20868000Y-7920000D01*
X20893500Y-6780000D02*
X20893500Y-6860000D01*
X20853500Y-6820000D02*
X20933500Y-6820000D01*
X20893500Y-7542000D02*
X20893500Y-7622000D01*
X20853500Y-7582000D02*
X20933500Y-7582000D01*
X21010000Y-13650000D02*
X21010000Y-13730000D01*
X20970000Y-13690000D02*
X21050000Y-13690000D01*
X21010000Y-13904000D02*
X21010000Y-13984000D01*
X20970000Y-13944000D02*
X21050000Y-13944000D01*
X21010000Y-14158000D02*
X21010000Y-14238000D01*
X20970000Y-14198000D02*
X21050000Y-14198000D01*
X21010000Y-14412000D02*
X21010000Y-14492000D01*
X20970000Y-14452000D02*
X21050000Y-14452000D01*
X21010000Y-14666000D02*
X21010000Y-14746000D01*
X20970000Y-14706000D02*
X21050000Y-14706000D01*
X21147500Y-6780000D02*
X21147500Y-6860000D01*
X21107500Y-6820000D02*
X21187500Y-6820000D01*
X21147500Y-7542000D02*
X21147500Y-7622000D01*
X21107500Y-7582000D02*
X21187500Y-7582000D01*
X21260000Y-8030000D02*
X21260000Y-8110000D01*
X21220000Y-8070000D02*
X21300000Y-8070000D01*
X21322000Y-8757500D02*
X21322000Y-8837500D01*
X21282000Y-8797500D02*
X21362000Y-8797500D01*
X21322000Y-9011500D02*
X21322000Y-9091500D01*
X21282000Y-9051500D02*
X21362000Y-9051500D01*
X21322000Y-9265500D02*
X21322000Y-9345500D01*
X21282000Y-9305500D02*
X21362000Y-9305500D01*
X21322000Y-9519500D02*
X21322000Y-9599500D01*
X21282000Y-9559500D02*
X21362000Y-9559500D01*
X21322000Y-9773500D02*
X21322000Y-9853500D01*
X21282000Y-9813500D02*
X21362000Y-9813500D01*
X21322000Y-10027500D02*
X21322000Y-10107500D01*
X21282000Y-10067500D02*
X21362000Y-10067500D01*
X21322000Y-10281500D02*
X21322000Y-10361500D01*
X21282000Y-10321500D02*
X21362000Y-10321500D01*
X21322000Y-10535500D02*
X21322000Y-10615500D01*
X21282000Y-10575500D02*
X21362000Y-10575500D01*
X21322000Y-10789500D02*
X21322000Y-10869500D01*
X21282000Y-10829500D02*
X21362000Y-10829500D01*
X21322000Y-11043500D02*
X21322000Y-11123500D01*
X21282000Y-11083500D02*
X21362000Y-11083500D01*
X21322000Y-11297500D02*
X21322000Y-11377500D01*
X21282000Y-11337500D02*
X21362000Y-11337500D01*
X21322000Y-11551500D02*
X21322000Y-11631500D01*
X21282000Y-11591500D02*
X21362000Y-11591500D01*
X21322000Y-11805500D02*
X21322000Y-11885500D01*
X21282000Y-11845500D02*
X21362000Y-11845500D01*
X21322000Y-12059500D02*
X21322000Y-12139500D01*
X21282000Y-12099500D02*
X21362000Y-12099500D01*
X21510000Y-6544000D02*
X21510000Y-6624000D01*
X21470000Y-6584000D02*
X21550000Y-6584000D01*
X21510000Y-7560000D02*
X21510000Y-7640000D01*
X21470000Y-7600000D02*
X21550000Y-7600000D01*
X21514000Y-8030000D02*
X21514000Y-8110000D01*
X21474000Y-8070000D02*
X21554000Y-8070000D01*
X21722000Y-8720000D02*
X21722000Y-8800000D01*
X21682000Y-8760000D02*
X21762000Y-8760000D01*
X21722000Y-9050000D02*
X21722000Y-9130000D01*
X21682000Y-9090000D02*
X21762000Y-9090000D01*
X21768000Y-8030000D02*
X21768000Y-8110000D01*
X21728000Y-8070000D02*
X21808000Y-8070000D01*
X21793200Y-11089200D02*
X21793200Y-11169200D01*
X21753200Y-11129200D02*
X21833200Y-11129200D01*
X21793200Y-11589200D02*
X21793200Y-11669200D01*
X21753200Y-11629200D02*
X21833200Y-11629200D01*
X21840000Y-9594000D02*
X21840000Y-9674000D01*
X21800000Y-9634000D02*
X21880000Y-9634000D01*
X21840000Y-9848000D02*
X21840000Y-9928000D01*
X21800000Y-9888000D02*
X21880000Y-9888000D01*
X21840000Y-10102000D02*
X21840000Y-10182000D01*
X21800000Y-10142000D02*
X21880000Y-10142000D01*
X21840000Y-10356000D02*
X21840000Y-10436000D01*
X21800000Y-10396000D02*
X21880000Y-10396000D01*
X21840000Y-10610000D02*
X21840000Y-10690000D01*
X21800000Y-10650000D02*
X21880000Y-10650000D01*
X21913500Y-6770000D02*
X21913500Y-6850000D01*
X21873500Y-6810000D02*
X21953500Y-6810000D01*
X21913500Y-7532000D02*
X21913500Y-7612000D01*
X21873500Y-7572000D02*
X21953500Y-7572000D01*
X22022000Y-8030000D02*
X22022000Y-8110000D01*
X21982000Y-8070000D02*
X22062000Y-8070000D01*
X22070000Y-13500000D02*
X22070000Y-13580000D01*
X22030000Y-13540000D02*
X22110000Y-13540000D01*
X22070000Y-14000000D02*
X22070000Y-14080000D01*
X22030000Y-14040000D02*
X22110000Y-14040000D01*
X22150000Y-11810000D02*
X22150000Y-11890000D01*
X22110000Y-11850000D02*
X22190000Y-11850000D01*
X22150000Y-12127500D02*
X22150000Y-12207500D01*
X22110000Y-12167500D02*
X22190000Y-12167500D01*
X22150000Y-12445000D02*
X22150000Y-12525000D01*
X22110000Y-12485000D02*
X22190000Y-12485000D01*
X22150000Y-12762500D02*
X22150000Y-12842500D01*
X22110000Y-12802500D02*
X22190000Y-12802500D01*
X22167500Y-6770000D02*
X22167500Y-6850000D01*
X22127500Y-6810000D02*
X22207500Y-6810000D01*
X22167500Y-7532000D02*
X22167500Y-7612000D01*
X22127500Y-7572000D02*
X22207500Y-7572000D01*
X22276000Y-8030000D02*
X22276000Y-8110000D01*
X22236000Y-8070000D02*
X22316000Y-8070000D01*
X22340000Y-9630000D02*
X22340000Y-9710000D01*
X22300000Y-9670000D02*
X22380000Y-9670000D01*
X22340000Y-9884000D02*
X22340000Y-9964000D01*
X22300000Y-9924000D02*
X22380000Y-9924000D01*
X22340000Y-10138000D02*
X22340000Y-10218000D01*
X22300000Y-10178000D02*
X22380000Y-10178000D01*
X22340000Y-10392000D02*
X22340000Y-10472000D01*
X22300000Y-10432000D02*
X22380000Y-10432000D01*
X22340000Y-10646000D02*
X22340000Y-10726000D01*
X22300000Y-10686000D02*
X22380000Y-10686000D01*
X22340000Y-10900000D02*
X22340000Y-10980000D01*
X22300000Y-10940000D02*
X22380000Y-10940000D01*
X22340000Y-11154000D02*
X22340000Y-11234000D01*
X22300000Y-11194000D02*
X22380000Y-11194000D01*
X22340000Y-11408000D02*
X22340000Y-11488000D01*
X22300000Y-11448000D02*
X22380000Y-11448000D01*
X22570000Y-6524000D02*
X22570000Y-6604000D01*
X22530000Y-6564000D02*
X22610000Y-6564000D01*
X22570000Y-7540000D02*
X22570000Y-7620000D01*
X22530000Y-7580000D02*
X22610000Y-7580000D01*
X22738000Y-8720000D02*
X22738000Y-8800000D01*
X22698000Y-8760000D02*
X22778000Y-8760000D01*
X22738000Y-9050000D02*
X22738000Y-9130000D01*
X22698000Y-9090000D02*
X22778000Y-9090000D01*
X22943500Y-6780000D02*
X22943500Y-6860000D01*
X22903500Y-6820000D02*
X22983500Y-6820000D01*
X22943500Y-7542000D02*
X22943500Y-7622000D01*
X22903500Y-7582000D02*
X22983500Y-7582000D01*
X23070000Y-8042000D02*
X23070000Y-8122000D01*
X23030000Y-8082000D02*
X23110000Y-8082000D01*
X23070000Y-9058000D02*
X23070000Y-9138000D01*
X23030000Y-9098000D02*
X23110000Y-9098000D01*
X23102000Y-9630000D02*
X23102000Y-9710000D01*
X23062000Y-9670000D02*
X23142000Y-9670000D01*
X23102000Y-9884000D02*
X23102000Y-9964000D01*
X23062000Y-9924000D02*
X23142000Y-9924000D01*
X23102000Y-10138000D02*
X23102000Y-10218000D01*
X23062000Y-10178000D02*
X23142000Y-10178000D01*
X23102000Y-10392000D02*
X23102000Y-10472000D01*
X23062000Y-10432000D02*
X23142000Y-10432000D01*
X23102000Y-10646000D02*
X23102000Y-10726000D01*
X23062000Y-10686000D02*
X23142000Y-10686000D01*
X23102000Y-10900000D02*
X23102000Y-10980000D01*
X23062000Y-10940000D02*
X23142000Y-10940000D01*
X23102000Y-11154000D02*
X23102000Y-11234000D01*
X23062000Y-11194000D02*
X23142000Y-11194000D01*
X23102000Y-11408000D02*
X23102000Y-11488000D01*
X23062000Y-11448000D02*
X23142000Y-11448000D01*
X23166000Y-11810000D02*
X23166000Y-11890000D01*
X23126000Y-11850000D02*
X23206000Y-11850000D01*
X23166000Y-12127500D02*
X23166000Y-12207500D01*
X23126000Y-12167500D02*
X23206000Y-12167500D01*
X23166000Y-12445000D02*
X23166000Y-12525000D01*
X23126000Y-12485000D02*
X23206000Y-12485000D01*
X23166000Y-12762500D02*
X23166000Y-12842500D01*
X23126000Y-12802500D02*
X23206000Y-12802500D01*
X23197500Y-6780000D02*
X23197500Y-6860000D01*
X23157500Y-6820000D02*
X23237500Y-6820000D01*
X23197500Y-7542000D02*
X23197500Y-7622000D01*
X23157500Y-7582000D02*
X23237500Y-7582000D01*
X23430000Y-7802000D02*
X23430000Y-7882000D01*
X23390000Y-7842000D02*
X23470000Y-7842000D01*
X23430000Y-8818000D02*
X23430000Y-8898000D01*
X23390000Y-8858000D02*
X23470000Y-8858000D01*
X23570000Y-6512000D02*
X23570000Y-6592000D01*
X23530000Y-6552000D02*
X23610000Y-6552000D01*
X23570000Y-7528000D02*
X23570000Y-7608000D01*
X23530000Y-7568000D02*
X23610000Y-7568000D01*
X23600000Y-9120000D02*
X23600000Y-9200000D01*
X23560000Y-9160000D02*
X23640000Y-9160000D01*
X23600000Y-10136000D02*
X23600000Y-10216000D01*
X23560000Y-10176000D02*
X23640000Y-10176000D01*
X23620000Y-11022000D02*
X23620000Y-11102000D01*
X23580000Y-11062000D02*
X23660000Y-11062000D01*
X23620000Y-12038000D02*
X23620000Y-12118000D01*
X23580000Y-12078000D02*
X23660000Y-12078000D01*
X23630000Y-12882000D02*
X23630000Y-12962000D01*
X23590000Y-12922000D02*
X23670000Y-12922000D01*
X23630000Y-13898000D02*
X23630000Y-13978000D01*
X23590000Y-13938000D02*
X23670000Y-13938000D01*
X23800000Y-14710000D02*
X23800000Y-14790000D01*
X23760000Y-14750000D02*
X23840000Y-14750000D01*
X23800000Y-15726000D02*
X23800000Y-15806000D01*
X23760000Y-15766000D02*
X23840000Y-15766000D01*
X23940000Y-9122000D02*
X23940000Y-9202000D01*
X23900000Y-9162000D02*
X23980000Y-9162000D01*
X23940000Y-10138000D02*
X23940000Y-10218000D01*
X23900000Y-10178000D02*
X23980000Y-10178000D01*
X23944400Y-11022000D02*
X23944400Y-11102000D01*
X23904400Y-11062000D02*
X23984400Y-11062000D01*
X23944400Y-12038000D02*
X23944400Y-12118000D01*
X23904400Y-12078000D02*
X23984400Y-12078000D01*
X23980000Y-12882000D02*
X23980000Y-12962000D01*
X23940000Y-12922000D02*
X24020000Y-12922000D01*
X23980000Y-13898000D02*
X23980000Y-13978000D01*
X23940000Y-13938000D02*
X24020000Y-13938000D01*
X24124400Y-14712000D02*
X24124400Y-14792000D01*
X24084400Y-14752000D02*
X24164400Y-14752000D01*
X24124400Y-15728000D02*
X24124400Y-15808000D01*
X24084400Y-15768000D02*
X24164400Y-15768000D01*
X24280000Y-9122000D02*
X24280000Y-9202000D01*
X24240000Y-9162000D02*
X24320000Y-9162000D01*
X24280000Y-10138000D02*
X24280000Y-10218000D01*
X24240000Y-10178000D02*
X24320000Y-10178000D01*
X24300000Y-11022000D02*
X24300000Y-11102000D01*
X24260000Y-11062000D02*
X24340000Y-11062000D01*
X24300000Y-12038000D02*
X24300000Y-12118000D01*
X24260000Y-12078000D02*
X24340000Y-12078000D01*
X24320000Y-12882000D02*
X24320000Y-12962000D01*
X24280000Y-12922000D02*
X24360000Y-12922000D01*
X24320000Y-13898000D02*
X24320000Y-13978000D01*
X24280000Y-13938000D02*
X24360000Y-13938000D01*
X24480000Y-14712000D02*
X24480000Y-14792000D01*
X24440000Y-14752000D02*
X24520000Y-14752000D01*
X24480000Y-15728000D02*
X24480000Y-15808000D01*
X24440000Y-15768000D02*
X24520000Y-15768000D01*
X24620000Y-9347500D02*
X24620000Y-9427500D01*
X24580000Y-9387500D02*
X24660000Y-9387500D01*
X24620000Y-9601500D02*
X24620000Y-9681500D01*
X24580000Y-9641500D02*
X24660000Y-9641500D01*
X24620000Y-9855500D02*
X24620000Y-9935500D01*
X24580000Y-9895500D02*
X24660000Y-9895500D01*
X24650000Y-11277500D02*
X24650000Y-11357500D01*
X24610000Y-11317500D02*
X24690000Y-11317500D01*
X24650000Y-11531500D02*
X24650000Y-11611500D01*
X24610000Y-11571500D02*
X24690000Y-11571500D01*
X24650000Y-11785500D02*
X24650000Y-11865500D01*
X24610000Y-11825500D02*
X24690000Y-11825500D01*
X24661200Y-13137500D02*
X24661200Y-13217500D01*
X24621200Y-13177500D02*
X24701200Y-13177500D01*
X24661200Y-13391500D02*
X24661200Y-13471500D01*
X24621200Y-13431500D02*
X24701200Y-13431500D01*
X24661200Y-13645500D02*
X24661200Y-13725500D01*
X24621200Y-13685500D02*
X24701200Y-13685500D01*
X24870000Y-14907500D02*
X24870000Y-14987500D01*
X24830000Y-14947500D02*
X24910000Y-14947500D01*
X24870000Y-15161500D02*
X24870000Y-15241500D01*
X24830000Y-15201500D02*
X24910000Y-15201500D01*
X24870000Y-15415500D02*
X24870000Y-15495500D01*
X24830000Y-15455500D02*
X24910000Y-15455500D01*
X25382000Y-9347500D02*
X25382000Y-9427500D01*
X25342000Y-9387500D02*
X25422000Y-9387500D01*
X25382000Y-9601500D02*
X25382000Y-9681500D01*
X25342000Y-9641500D02*
X25422000Y-9641500D01*
X25382000Y-9855500D02*
X25382000Y-9935500D01*
X25342000Y-9895500D02*
X25422000Y-9895500D01*
X25412000Y-11277500D02*
X25412000Y-11357500D01*
X25372000Y-11317500D02*
X25452000Y-11317500D01*
X25412000Y-11531500D02*
X25412000Y-11611500D01*
X25372000Y-11571500D02*
X25452000Y-11571500D01*
X25412000Y-11785500D02*
X25412000Y-11865500D01*
X25372000Y-11825500D02*
X25452000Y-11825500D01*
X25423200Y-13137500D02*
X25423200Y-13217500D01*
X25383200Y-13177500D02*
X25463200Y-13177500D01*
X25423200Y-13391500D02*
X25423200Y-13471500D01*
X25383200Y-13431500D02*
X25463200Y-13431500D01*
X25423200Y-13645500D02*
X25423200Y-13725500D01*
X25383200Y-13685500D02*
X25463200Y-13685500D01*
X25632000Y-14907500D02*
X25632000Y-14987500D01*
X25592000Y-14947500D02*
X25672000Y-14947500D01*
X25632000Y-15161500D02*
X25632000Y-15241500D01*
X25592000Y-15201500D02*
X25672000Y-15201500D01*
X25632000Y-15415500D02*
X25632000Y-15495500D01*
X25592000Y-15455500D02*
X25672000Y-15455500D01*
D15*
X17844320Y-8301820D02*
X17844320Y-8238180D01*
X17780680Y-8238180D01*
X17780680Y-8301820D01*
X17844320Y-8301820D01*
X18098320Y-8301820D02*
X18098320Y-8238180D01*
X18034680Y-8238180D01*
X18034680Y-8301820D01*
X18098320Y-8301820D01*
X18887320Y-12427320D02*
X18887320Y-12363680D01*
X18823680Y-12363680D01*
X18823680Y-12427320D01*
X18887320Y-12427320D01*
X18887320Y-12681320D02*
X18887320Y-12617680D01*
X18823680Y-12617680D01*
X18823680Y-12681320D01*
X18887320Y-12681320D01*
X18917320Y-14187820D02*
X18917320Y-14124180D01*
X18853680Y-14124180D01*
X18853680Y-14187820D01*
X18917320Y-14187820D01*
X18917320Y-14441820D02*
X18917320Y-14378180D01*
X18853680Y-14378180D01*
X18853680Y-14441820D01*
X18917320Y-14441820D01*
X19526320Y-6889820D02*
X19526320Y-6826180D01*
X19462680Y-6826180D01*
X19462680Y-6889820D01*
X19526320Y-6889820D01*
X19526320Y-7651820D02*
X19526320Y-7588180D01*
X19462680Y-7588180D01*
X19462680Y-7651820D01*
X19526320Y-7651820D01*
X19966820Y-12427320D02*
X19966820Y-12363680D01*
X19903180Y-12363680D01*
X19903180Y-12427320D01*
X19966820Y-12427320D01*
X19966820Y-12681320D02*
X19966820Y-12617680D01*
X19903180Y-12617680D01*
X19903180Y-12681320D01*
X19966820Y-12681320D01*
X19996820Y-14187820D02*
X19996820Y-14124180D01*
X19933180Y-14124180D01*
X19933180Y-14187820D01*
X19996820Y-14187820D01*
X19996820Y-14441820D02*
X19996820Y-14378180D01*
X19933180Y-14378180D01*
X19933180Y-14441820D01*
X19996820Y-14441820D01*
X20917820Y-6431820D02*
X20917820Y-6368180D01*
X20854180Y-6368180D01*
X20854180Y-6431820D01*
X20917820Y-6431820D01*
X21171820Y-6431820D02*
X21171820Y-6368180D01*
X21108180Y-6368180D01*
X21108180Y-6431820D01*
X21171820Y-6431820D01*
X21907820Y-6431820D02*
X21907820Y-6368180D01*
X21844180Y-6368180D01*
X21844180Y-6431820D01*
X21907820Y-6431820D01*
X22161820Y-6431820D02*
X22161820Y-6368180D01*
X22098180Y-6368180D01*
X22098180Y-6431820D01*
X22161820Y-6431820D01*
X22947820Y-6451820D02*
X22947820Y-6388180D01*
X22884180Y-6388180D01*
X22884180Y-6451820D01*
X22947820Y-6451820D01*
X23201820Y-6451820D02*
X23201820Y-6388180D01*
X23138180Y-6388180D01*
X23138180Y-6451820D01*
X23201820Y-6451820D01*
X23617820Y-10741820D02*
X23617820Y-10678180D01*
X23554180Y-10678180D01*
X23554180Y-10741820D01*
X23617820Y-10741820D01*
X23627820Y-12591820D02*
X23627820Y-12528180D01*
X23564180Y-12528180D01*
X23564180Y-12591820D01*
X23627820Y-12591820D01*
X23777820Y-14421820D02*
X23777820Y-14358180D01*
X23714180Y-14358180D01*
X23714180Y-14421820D01*
X23777820Y-14421820D01*
X23871820Y-10741820D02*
X23871820Y-10678180D01*
X23808180Y-10678180D01*
X23808180Y-10741820D01*
X23871820Y-10741820D01*
X23881820Y-12591820D02*
X23881820Y-12528180D01*
X23818180Y-12528180D01*
X23818180Y-12591820D01*
X23881820Y-12591820D01*
X23957820Y-8821820D02*
X23957820Y-8758180D01*
X23894180Y-8758180D01*
X23894180Y-8821820D01*
X23957820Y-8821820D01*
X24031820Y-14421820D02*
X24031820Y-14358180D01*
X23968180Y-14358180D01*
X23968180Y-14421820D01*
X24031820Y-14421820D01*
X24211820Y-8821820D02*
X24211820Y-8758180D01*
X24148180Y-8758180D01*
X24148180Y-8821820D01*
X24211820Y-8821820D01*
D10*
X18034000Y-9170000D02*
X18084000Y-9120000D01*
X18034000Y-9070000D01*
X17984000Y-9120000D01*
X18034000Y-9170000D01*
X18034000Y-9420000D02*
X18084000Y-9370000D01*
X18034000Y-9320000D01*
X17984000Y-9370000D01*
X18034000Y-9420000D01*
X18034000Y-9670000D02*
X18084000Y-9620000D01*
X18034000Y-9570000D01*
X17984000Y-9620000D01*
X18034000Y-9670000D01*
X18034000Y-9920000D02*
X18084000Y-9870000D01*
X18034000Y-9820000D01*
X17984000Y-9870000D01*
X18034000Y-9920000D01*
X18110000Y-12970000D02*
X18160000Y-12920000D01*
X18110000Y-12870000D01*
X18060000Y-12920000D01*
X18110000Y-12970000D01*
X18110000Y-13220000D02*
X18160000Y-13170000D01*
X18110000Y-13120000D01*
X18060000Y-13170000D01*
X18110000Y-13220000D01*
X18110000Y-13470000D02*
X18160000Y-13420000D01*
X18110000Y-13370000D01*
X18060000Y-13420000D01*
X18110000Y-13470000D01*
X18110000Y-13720000D02*
X18160000Y-13670000D01*
X18110000Y-13620000D01*
X18060000Y-13670000D01*
X18110000Y-13720000D01*
X18110000Y-13970000D02*
X18160000Y-13920000D01*
X18110000Y-13870000D01*
X18060000Y-13920000D01*
X18110000Y-13970000D01*
X18110000Y-14220000D02*
X18160000Y-14170000D01*
X18110000Y-14120000D01*
X18060000Y-14170000D01*
X18110000Y-14220000D01*
X18110000Y-14470000D02*
X18160000Y-14420000D01*
X18110000Y-14370000D01*
X18060000Y-14420000D01*
X18110000Y-14470000D01*
X18110000Y-14720000D02*
X18160000Y-14670000D01*
X18110000Y-14620000D01*
X18060000Y-14670000D01*
X18110000Y-14720000D01*
X18450000Y-7256750D02*
X18500000Y-7206750D01*
X18450000Y-7156750D01*
X18400000Y-7206750D01*
X18450000Y-7256750D01*
D11*
X18400000Y-7106750D02*
X18400000Y-7306750D01*
X18500000Y-7106750D02*
X18500000Y-7306750D01*
X18400000Y-7306750D02*
G75*
G03*
X18500000Y-7306750I50000J0D01*
G01*
X18500000Y-7106750D02*
G75*
G03*
X18400000Y-7106750I-50000J0D01*
G01*
D10*
X18750000Y-7726750D02*
X18800000Y-7676750D01*
X18750000Y-7626750D01*
X18700000Y-7676750D01*
X18750000Y-7726750D01*
D11*
X18650000Y-7726750D02*
X18850000Y-7726750D01*
X18650000Y-7626750D02*
X18850000Y-7626750D01*
X18850000Y-7726750D02*
G75*
G03*
X18850000Y-7626750I0J50000D01*
G01*
X18650000Y-7626750D02*
G75*
G03*
X18650000Y-7726750I0J-50000D01*
G01*
D10*
X19050000Y-7256750D02*
X19100000Y-7206750D01*
X19050000Y-7156750D01*
X19000000Y-7206750D01*
X19050000Y-7256750D01*
D11*
X19000000Y-7106750D02*
X19000000Y-7306750D01*
X19100000Y-7106750D02*
X19100000Y-7306750D01*
X19000000Y-7306750D02*
G75*
G03*
X19100000Y-7306750I50000J0D01*
G01*
X19100000Y-7106750D02*
G75*
G03*
X19000000Y-7106750I-50000J0D01*
G01*
D10*
X21337500Y-12963500D02*
X21387500Y-12913500D01*
X21337500Y-12863500D01*
X21287500Y-12913500D01*
X21337500Y-12963500D01*
X21337500Y-13217500D02*
X21387500Y-13167500D01*
X21337500Y-13117500D01*
X21287500Y-13167500D01*
X21337500Y-13217500D01*
X21355000Y-15460000D02*
X21405000Y-15410000D01*
X21355000Y-15360000D01*
X21305000Y-15410000D01*
X21355000Y-15460000D01*
X21591500Y-12963500D02*
X21641500Y-12913500D01*
X21591500Y-12863500D01*
X21541500Y-12913500D01*
X21591500Y-12963500D01*
X21591500Y-13217500D02*
X21641500Y-13167500D01*
X21591500Y-13117500D01*
X21541500Y-13167500D01*
X21591500Y-13217500D01*
X21605000Y-15460000D02*
X21655000Y-15410000D01*
X21605000Y-15360000D01*
X21555000Y-15410000D01*
X21605000Y-15460000D01*
X21845500Y-12963500D02*
X21895500Y-12913500D01*
X21845500Y-12863500D01*
X21795500Y-12913500D01*
X21845500Y-12963500D01*
X21845500Y-13217500D02*
X21895500Y-13167500D01*
X21845500Y-13117500D01*
X21795500Y-13167500D01*
X21845500Y-13217500D01*
X22710000Y-14350000D02*
X22760000Y-14300000D01*
X22710000Y-14250000D01*
X22660000Y-14300000D01*
X22710000Y-14350000D01*
X22710000Y-15350000D02*
X22760000Y-15300000D01*
X22710000Y-15250000D01*
X22660000Y-15300000D01*
X22710000Y-15350000D01*
X24194750Y-6742000D02*
X24244750Y-6692000D01*
X24194750Y-6642000D01*
X24144750Y-6692000D01*
X24194750Y-6742000D01*
X24194750Y-6996000D02*
X24244750Y-6946000D01*
X24194750Y-6896000D01*
X24144750Y-6946000D01*
X24194750Y-6996000D01*
X24194750Y-7250000D02*
X24244750Y-7200000D01*
X24194750Y-7150000D01*
X24144750Y-7200000D01*
X24194750Y-7250000D01*
X24194750Y-7504000D02*
X24244750Y-7454000D01*
X24194750Y-7404000D01*
X24144750Y-7454000D01*
X24194750Y-7504000D01*
X24194750Y-7758000D02*
X24244750Y-7708000D01*
X24194750Y-7658000D01*
X24144750Y-7708000D01*
X24194750Y-7758000D01*
X24448750Y-6742000D02*
X24498750Y-6692000D01*
X24448750Y-6642000D01*
X24398750Y-6692000D01*
X24448750Y-6742000D01*
X24448750Y-6996000D02*
X24498750Y-6946000D01*
X24448750Y-6896000D01*
X24398750Y-6946000D01*
X24448750Y-6996000D01*
X24448750Y-7250000D02*
X24498750Y-7200000D01*
X24448750Y-7150000D01*
X24398750Y-7200000D01*
X24448750Y-7250000D01*
X24448750Y-7504000D02*
X24498750Y-7454000D01*
X24448750Y-7404000D01*
X24398750Y-7454000D01*
X24448750Y-7504000D01*
X24448750Y-7758000D02*
X24498750Y-7708000D01*
X24448750Y-7658000D01*
X24398750Y-7708000D01*
X24448750Y-7758000D01*
D16*
X26430500Y-12671000D02*
X26540500Y-12781000D01*
X26540500Y-12671000D02*
X26430500Y-12781000D01*
X26540500Y-12726000D02*
G75*
G03*
X26540500Y-12726000I-55000J0D01*
G01*
X26430500Y-12925000D02*
X26540500Y-13035000D01*
X26540500Y-12925000D02*
X26430500Y-13035000D01*
X26540500Y-12980000D02*
G75*
G03*
X26540500Y-12980000I-55000J0D01*
G01*
X26430500Y-13179000D02*
X26540500Y-13289000D01*
X26540500Y-13179000D02*
X26430500Y-13289000D01*
X26540500Y-13234000D02*
G75*
G03*
X26540500Y-13234000I-55000J0D01*
G01*
X26520500Y-8651000D02*
X26630500Y-8761000D01*
X26630500Y-8651000D02*
X26520500Y-8761000D01*
X26630500Y-8706000D02*
G75*
G03*
X26630500Y-8706000I-55000J0D01*
G01*
X26520500Y-8905000D02*
X26630500Y-9015000D01*
X26630500Y-8905000D02*
X26520500Y-9015000D01*
X26630500Y-8960000D02*
G75*
G03*
X26630500Y-8960000I-55000J0D01*
G01*
X26520500Y-9159000D02*
X26630500Y-9269000D01*
X26630500Y-9159000D02*
X26520500Y-9269000D01*
X26630500Y-9214000D02*
G75*
G03*
X26630500Y-9214000I-55000J0D01*
G01*
X26550500Y-6851000D02*
X26660500Y-6961000D01*
X26660500Y-6851000D02*
X26550500Y-6961000D01*
X26660500Y-6906000D02*
G75*
G03*
X26660500Y-6906000I-55000J0D01*
G01*
X26550500Y-7105000D02*
X26660500Y-7215000D01*
X26660500Y-7105000D02*
X26550500Y-7215000D01*
X26660500Y-7160000D02*
G75*
G03*
X26660500Y-7160000I-55000J0D01*
G01*
X26550500Y-7359000D02*
X26660500Y-7469000D01*
X26660500Y-7359000D02*
X26550500Y-7469000D01*
X26660500Y-7414000D02*
G75*
G03*
X26660500Y-7414000I-55000J0D01*
G01*
X26630500Y-14581000D02*
X26740500Y-14691000D01*
X26740500Y-14581000D02*
X26630500Y-14691000D01*
X26740500Y-14636000D02*
G75*
G03*
X26740500Y-14636000I-55000J0D01*
G01*
X26630500Y-14835000D02*
X26740500Y-14945000D01*
X26740500Y-14835000D02*
X26630500Y-14945000D01*
X26740500Y-14890000D02*
G75*
G03*
X26740500Y-14890000I-55000J0D01*
G01*
X26630500Y-15089000D02*
X26740500Y-15199000D01*
X26740500Y-15089000D02*
X26630500Y-15199000D01*
X26740500Y-15144000D02*
G75*
G03*
X26740500Y-15144000I-55000J0D01*
G01*
D17*
X25860000Y-12136000D02*
X25980000Y-12256000D01*
X25980000Y-12136000D02*
X25860000Y-12256000D01*
X25920000Y-12136000D02*
X25920000Y-12256000D01*
X25860000Y-12196000D02*
X25980000Y-12196000D01*
X25860000Y-13660000D02*
X25980000Y-13780000D01*
X25980000Y-13660000D02*
X25860000Y-13780000D01*
X25920000Y-13660000D02*
X25920000Y-13780000D01*
X25860000Y-13720000D02*
X25980000Y-13720000D01*
X25890000Y-6338000D02*
X26010000Y-6458000D01*
X26010000Y-6338000D02*
X25890000Y-6458000D01*
X25950000Y-6338000D02*
X25950000Y-6458000D01*
X25890000Y-6398000D02*
X26010000Y-6398000D01*
X25890000Y-7862000D02*
X26010000Y-7982000D01*
X26010000Y-7862000D02*
X25890000Y-7982000D01*
X25950000Y-7862000D02*
X25950000Y-7982000D01*
X25890000Y-7922000D02*
X26010000Y-7922000D01*
X25900000Y-8408000D02*
X26020000Y-8528000D01*
X26020000Y-8408000D02*
X25900000Y-8528000D01*
X25960000Y-8408000D02*
X25960000Y-8528000D01*
X25900000Y-8468000D02*
X26020000Y-8468000D01*
X25900000Y-9932000D02*
X26020000Y-10052000D01*
X26020000Y-9932000D02*
X25900000Y-10052000D01*
X25960000Y-9932000D02*
X25960000Y-10052000D01*
X25900000Y-9992000D02*
X26020000Y-9992000D01*
X26090000Y-14098000D02*
X26210000Y-14218000D01*
X26210000Y-14098000D02*
X26090000Y-14218000D01*
X26150000Y-14098000D02*
X26150000Y-14218000D01*
X26090000Y-14158000D02*
X26210000Y-14158000D01*
X26090000Y-15622000D02*
X26210000Y-15742000D01*
X26210000Y-15622000D02*
X26090000Y-15742000D01*
X26150000Y-15622000D02*
X26150000Y-15742000D01*
X26090000Y-15682000D02*
X26210000Y-15682000D01*
D18*
X18341000Y-6285000D02*
X18471000Y-6415000D01*
X18471000Y-6285000D02*
X18341000Y-6415000D01*
X18451962Y-6395962D02*
X18451962Y-6304038D01*
X18360038Y-6304038D01*
X18360038Y-6395962D01*
X18451962Y-6395962D01*
X18801000Y-6285000D02*
X18931000Y-6415000D01*
X18931000Y-6285000D02*
X18801000Y-6415000D01*
X18911962Y-6395962D02*
X18911962Y-6304038D01*
X18820038Y-6304038D01*
X18820038Y-6395962D01*
X18911962Y-6395962D01*
X19931000Y-6285000D02*
X20061000Y-6415000D01*
X20061000Y-6285000D02*
X19931000Y-6415000D01*
X20041962Y-6395962D02*
X20041962Y-6304038D01*
X19950038Y-6304038D01*
X19950038Y-6395962D01*
X20041962Y-6395962D01*
X20391000Y-6285000D02*
X20521000Y-6415000D01*
X20521000Y-6285000D02*
X20391000Y-6415000D01*
X20501962Y-6395962D02*
X20501962Y-6304038D01*
X20410038Y-6304038D01*
X20410038Y-6395962D01*
X20501962Y-6395962D01*
D19*
X19722000Y-8270000D02*
X19862000Y-8410000D01*
X19862000Y-8270000D02*
X19722000Y-8410000D01*
X19792000Y-8410000D02*
X19862000Y-8340000D01*
X19792000Y-8270000D01*
X19722000Y-8340000D01*
X19792000Y-8410000D01*
X20738000Y-8270000D02*
X20878000Y-8410000D01*
X20878000Y-8270000D02*
X20738000Y-8410000D01*
X20808000Y-8410000D02*
X20878000Y-8340000D01*
X20808000Y-8270000D01*
X20738000Y-8340000D01*
X20808000Y-8410000D01*
D20*
X26955000Y-9900000D02*
X26955000Y-10080000D01*
X26865000Y-9990000D02*
X27045000Y-9990000D01*
X27045000Y-9990000D02*
G75*
G03*
X27045000Y-9990000I-90000J0D01*
G01*
X26955000Y-10296000D02*
X26955000Y-10476000D01*
X26865000Y-10386000D02*
X27045000Y-10386000D01*
X27045000Y-10386000D02*
G75*
G03*
X27045000Y-10386000I-90000J0D01*
G01*
X26955000Y-10692000D02*
X26955000Y-10872000D01*
X26865000Y-10782000D02*
X27045000Y-10782000D01*
X27045000Y-10782000D02*
G75*
G03*
X27045000Y-10782000I-90000J0D01*
G01*
X26955000Y-11088000D02*
X26955000Y-11268000D01*
X26865000Y-11178000D02*
X27045000Y-11178000D01*
X27045000Y-11178000D02*
G75*
G03*
X27045000Y-11178000I-90000J0D01*
G01*
X26955000Y-11484000D02*
X26955000Y-11664000D01*
X26865000Y-11574000D02*
X27045000Y-11574000D01*
X27045000Y-11574000D02*
G75*
G03*
X27045000Y-11574000I-90000J0D01*
G01*
X26955000Y-11880000D02*
X26955000Y-12060000D01*
X26865000Y-11970000D02*
X27045000Y-11970000D01*
X27045000Y-11970000D02*
G75*
G03*
X27045000Y-11970000I-90000J0D01*
G01*
D11*
X17832019Y-16258976D02*
X17832019Y-16058976D01*
X17879638Y-16058976D01*
X17908210Y-16068500D01*
X17927257Y-16087548D01*
X17936781Y-16106595D01*
X17946305Y-16144690D01*
X17946305Y-16173262D01*
X17936781Y-16211357D01*
X17927257Y-16230405D01*
X17908210Y-16249452D01*
X17879638Y-16258976D01*
X17832019Y-16258976D01*
X18032019Y-16258976D02*
X18032019Y-16125643D01*
X18032019Y-16163738D02*
X18041543Y-16144690D01*
X18051067Y-16135167D01*
X18070114Y-16125643D01*
X18089162Y-16125643D01*
X18155829Y-16258976D02*
X18155829Y-16125643D01*
X18155829Y-16058976D02*
X18146305Y-16068500D01*
X18155829Y-16078024D01*
X18165352Y-16068500D01*
X18155829Y-16058976D01*
X18155829Y-16078024D01*
X18279638Y-16258976D02*
X18260590Y-16249452D01*
X18251067Y-16230405D01*
X18251067Y-16058976D01*
X18384400Y-16258976D02*
X18365352Y-16249452D01*
X18355829Y-16230405D01*
X18355829Y-16058976D01*
X18612971Y-16258976D02*
X18612971Y-16058976D01*
X18679638Y-16201833D01*
X18746305Y-16058976D01*
X18746305Y-16258976D01*
X18927257Y-16258976D02*
X18927257Y-16154214D01*
X18917733Y-16135167D01*
X18898686Y-16125643D01*
X18860590Y-16125643D01*
X18841543Y-16135167D01*
X18927257Y-16249452D02*
X18908210Y-16258976D01*
X18860590Y-16258976D01*
X18841543Y-16249452D01*
X18832019Y-16230405D01*
X18832019Y-16211357D01*
X18841543Y-16192309D01*
X18860590Y-16182786D01*
X18908210Y-16182786D01*
X18927257Y-16173262D01*
X19022495Y-16125643D02*
X19022495Y-16325643D01*
X19022495Y-16135167D02*
X19041543Y-16125643D01*
X19079638Y-16125643D01*
X19098686Y-16135167D01*
X19108210Y-16144690D01*
X19117733Y-16163738D01*
X19117733Y-16220881D01*
X19108210Y-16239928D01*
X19098686Y-16249452D01*
X19079638Y-16258976D01*
X19041543Y-16258976D01*
X19022495Y-16249452D01*
X19203448Y-16239928D02*
X19212971Y-16249452D01*
X19203448Y-16258976D01*
X19193924Y-16249452D01*
X19203448Y-16239928D01*
X19203448Y-16258976D01*
X19203448Y-16135167D02*
X19212971Y-16144690D01*
X19203448Y-16154214D01*
X19193924Y-16144690D01*
X19203448Y-16135167D01*
X19203448Y-16154214D01*
D12*
X17539400Y-16571000D02*
X17574400Y-16606000D01*
X17574400Y-16571000D02*
X17539400Y-16606000D01*
D11*
X17870114Y-16478976D02*
X17889162Y-16478976D01*
X17908210Y-16488500D01*
X17917733Y-16498024D01*
X17927257Y-16517071D01*
X17936781Y-16555167D01*
X17936781Y-16602786D01*
X17927257Y-16640881D01*
X17917733Y-16659928D01*
X17908210Y-16669452D01*
X17889162Y-16678976D01*
X17870114Y-16678976D01*
X17851067Y-16669452D01*
X17841543Y-16659928D01*
X17832019Y-16640881D01*
X17822495Y-16602786D01*
X17822495Y-16555167D01*
X17832019Y-16517071D01*
X17841543Y-16498024D01*
X17851067Y-16488500D01*
X17870114Y-16478976D01*
X18022495Y-16659928D02*
X18032019Y-16669452D01*
X18022495Y-16678976D01*
X18012971Y-16669452D01*
X18022495Y-16659928D01*
X18022495Y-16678976D01*
X18098686Y-16478976D02*
X18222495Y-16478976D01*
X18155829Y-16555167D01*
X18184400Y-16555167D01*
X18203448Y-16564690D01*
X18212971Y-16574214D01*
X18222495Y-16593262D01*
X18222495Y-16640881D01*
X18212971Y-16659928D01*
X18203448Y-16669452D01*
X18184400Y-16678976D01*
X18127257Y-16678976D01*
X18108210Y-16669452D01*
X18098686Y-16659928D01*
X18403448Y-16478976D02*
X18308210Y-16478976D01*
X18298686Y-16574214D01*
X18308210Y-16564690D01*
X18327257Y-16555167D01*
X18374876Y-16555167D01*
X18393924Y-16564690D01*
X18403448Y-16574214D01*
X18412971Y-16593262D01*
X18412971Y-16640881D01*
X18403448Y-16659928D01*
X18393924Y-16669452D01*
X18374876Y-16678976D01*
X18327257Y-16678976D01*
X18308210Y-16669452D01*
X18298686Y-16659928D01*
X18536781Y-16478976D02*
X18555829Y-16478976D01*
X18574876Y-16488500D01*
X18584400Y-16498024D01*
X18593924Y-16517071D01*
X18603448Y-16555167D01*
X18603448Y-16602786D01*
X18593924Y-16640881D01*
X18584400Y-16659928D01*
X18574876Y-16669452D01*
X18555829Y-16678976D01*
X18536781Y-16678976D01*
X18517733Y-16669452D01*
X18508210Y-16659928D01*
X18498686Y-16640881D01*
X18489162Y-16602786D01*
X18489162Y-16555167D01*
X18498686Y-16517071D01*
X18508210Y-16498024D01*
X18517733Y-16488500D01*
X18536781Y-16478976D01*
X18689162Y-16678976D02*
X18689162Y-16545643D01*
X18689162Y-16564690D02*
X18698686Y-16555167D01*
X18717733Y-16545643D01*
X18746305Y-16545643D01*
X18765352Y-16555167D01*
X18774876Y-16574214D01*
X18774876Y-16678976D01*
X18774876Y-16574214D02*
X18784400Y-16555167D01*
X18803448Y-16545643D01*
X18832019Y-16545643D01*
X18851067Y-16555167D01*
X18860590Y-16574214D01*
X18860590Y-16678976D01*
X18955829Y-16678976D02*
X18955829Y-16545643D01*
X18955829Y-16564690D02*
X18965352Y-16555167D01*
X18984400Y-16545643D01*
X19012971Y-16545643D01*
X19032019Y-16555167D01*
X19041543Y-16574214D01*
X19041543Y-16678976D01*
X19041543Y-16574214D02*
X19051067Y-16555167D01*
X19070114Y-16545643D01*
X19098686Y-16545643D01*
X19117733Y-16555167D01*
X19127257Y-16574214D01*
X19127257Y-16678976D01*
X19517733Y-16469452D02*
X19346305Y-16726595D01*
X19774876Y-16478976D02*
X19793924Y-16478976D01*
X19812971Y-16488500D01*
X19822495Y-16498024D01*
X19832019Y-16517071D01*
X19841543Y-16555167D01*
X19841543Y-16602786D01*
X19832019Y-16640881D01*
X19822495Y-16659928D01*
X19812971Y-16669452D01*
X19793924Y-16678976D01*
X19774876Y-16678976D01*
X19755829Y-16669452D01*
X19746305Y-16659928D01*
X19736781Y-16640881D01*
X19727257Y-16602786D01*
X19727257Y-16555167D01*
X19736781Y-16517071D01*
X19746305Y-16498024D01*
X19755829Y-16488500D01*
X19774876Y-16478976D01*
X19927257Y-16659928D02*
X19936781Y-16669452D01*
X19927257Y-16678976D01*
X19917733Y-16669452D01*
X19927257Y-16659928D01*
X19927257Y-16678976D01*
X20060590Y-16478976D02*
X20079638Y-16478976D01*
X20098686Y-16488500D01*
X20108210Y-16498024D01*
X20117733Y-16517071D01*
X20127257Y-16555167D01*
X20127257Y-16602786D01*
X20117733Y-16640881D01*
X20108210Y-16659928D01*
X20098686Y-16669452D01*
X20079638Y-16678976D01*
X20060590Y-16678976D01*
X20041543Y-16669452D01*
X20032019Y-16659928D01*
X20022495Y-16640881D01*
X20012971Y-16602786D01*
X20012971Y-16555167D01*
X20022495Y-16517071D01*
X20032019Y-16498024D01*
X20041543Y-16488500D01*
X20060590Y-16478976D01*
X20317733Y-16678976D02*
X20203448Y-16678976D01*
X20260590Y-16678976D02*
X20260590Y-16478976D01*
X20241543Y-16507548D01*
X20222495Y-16526595D01*
X20203448Y-16536119D01*
X20384400Y-16478976D02*
X20508210Y-16478976D01*
X20441543Y-16555167D01*
X20470114Y-16555167D01*
X20489162Y-16564690D01*
X20498686Y-16574214D01*
X20508210Y-16593262D01*
X20508210Y-16640881D01*
X20498686Y-16659928D01*
X20489162Y-16669452D01*
X20470114Y-16678976D01*
X20412971Y-16678976D01*
X20393924Y-16669452D01*
X20384400Y-16659928D01*
X20622495Y-16564690D02*
X20603448Y-16555167D01*
X20593924Y-16545643D01*
X20584400Y-16526595D01*
X20584400Y-16517071D01*
X20593924Y-16498024D01*
X20603448Y-16488500D01*
X20622495Y-16478976D01*
X20660590Y-16478976D01*
X20679638Y-16488500D01*
X20689162Y-16498024D01*
X20698686Y-16517071D01*
X20698686Y-16526595D01*
X20689162Y-16545643D01*
X20679638Y-16555167D01*
X20660590Y-16564690D01*
X20622495Y-16564690D01*
X20603448Y-16574214D01*
X20593924Y-16583738D01*
X20584400Y-16602786D01*
X20584400Y-16640881D01*
X20593924Y-16659928D01*
X20603448Y-16669452D01*
X20622495Y-16678976D01*
X20660590Y-16678976D01*
X20679638Y-16669452D01*
X20689162Y-16659928D01*
X20698686Y-16640881D01*
X20698686Y-16602786D01*
X20689162Y-16583738D01*
X20679638Y-16574214D01*
X20660590Y-16564690D01*
X20774876Y-16478976D02*
X20774876Y-16517071D01*
X20851067Y-16478976D02*
X20851067Y-16517071D01*
X21146305Y-16755167D02*
X21136781Y-16745643D01*
X21117733Y-16717071D01*
X21108210Y-16698024D01*
X21098686Y-16669452D01*
X21089162Y-16621833D01*
X21089162Y-16583738D01*
X21098686Y-16536119D01*
X21108210Y-16507548D01*
X21117733Y-16488500D01*
X21136781Y-16459928D01*
X21146305Y-16450405D01*
X21327257Y-16678976D02*
X21212971Y-16678976D01*
X21270114Y-16678976D02*
X21270114Y-16478976D01*
X21251067Y-16507548D01*
X21232019Y-16526595D01*
X21212971Y-16536119D01*
X21565352Y-16678976D02*
X21565352Y-16478976D01*
X21651067Y-16678976D02*
X21651067Y-16574214D01*
X21641543Y-16555167D01*
X21622495Y-16545643D01*
X21593924Y-16545643D01*
X21574876Y-16555167D01*
X21565352Y-16564690D01*
X21774876Y-16678976D02*
X21755829Y-16669452D01*
X21746305Y-16659928D01*
X21736781Y-16640881D01*
X21736781Y-16583738D01*
X21746305Y-16564690D01*
X21755829Y-16555167D01*
X21774876Y-16545643D01*
X21803448Y-16545643D01*
X21822495Y-16555167D01*
X21832019Y-16564690D01*
X21841543Y-16583738D01*
X21841543Y-16640881D01*
X21832019Y-16659928D01*
X21822495Y-16669452D01*
X21803448Y-16678976D01*
X21774876Y-16678976D01*
X21955829Y-16678976D02*
X21936781Y-16669452D01*
X21927257Y-16650405D01*
X21927257Y-16478976D01*
X22108210Y-16669452D02*
X22089162Y-16678976D01*
X22051067Y-16678976D01*
X22032019Y-16669452D01*
X22022495Y-16650405D01*
X22022495Y-16574214D01*
X22032019Y-16555167D01*
X22051067Y-16545643D01*
X22089162Y-16545643D01*
X22108210Y-16555167D01*
X22117733Y-16574214D01*
X22117733Y-16593262D01*
X22022495Y-16612309D01*
X22184400Y-16755167D02*
X22193924Y-16745643D01*
X22212971Y-16717071D01*
X22222495Y-16698024D01*
X22232019Y-16669452D01*
X22241543Y-16621833D01*
X22241543Y-16583738D01*
X22232019Y-16536119D01*
X22222495Y-16507548D01*
X22212971Y-16488500D01*
X22193924Y-16459928D01*
X22184400Y-16450405D01*
D13*
X17574400Y-16852500D02*
G75*
G03*
X17574400Y-16852500I-35000J0D01*
G01*
D11*
X17870114Y-16742976D02*
X17889162Y-16742976D01*
X17908210Y-16752500D01*
X17917733Y-16762024D01*
X17927257Y-16781071D01*
X17936781Y-16819167D01*
X17936781Y-16866786D01*
X17927257Y-16904881D01*
X17917733Y-16923929D01*
X17908210Y-16933452D01*
X17889162Y-16942976D01*
X17870114Y-16942976D01*
X17851067Y-16933452D01*
X17841543Y-16923929D01*
X17832019Y-16904881D01*
X17822495Y-16866786D01*
X17822495Y-16819167D01*
X17832019Y-16781071D01*
X17841543Y-16762024D01*
X17851067Y-16752500D01*
X17870114Y-16742976D01*
X18022495Y-16923929D02*
X18032019Y-16933452D01*
X18022495Y-16942976D01*
X18012971Y-16933452D01*
X18022495Y-16923929D01*
X18022495Y-16942976D01*
X18098686Y-16742976D02*
X18232019Y-16742976D01*
X18146305Y-16942976D01*
X18346305Y-16742976D02*
X18365352Y-16742976D01*
X18384400Y-16752500D01*
X18393924Y-16762024D01*
X18403448Y-16781071D01*
X18412971Y-16819167D01*
X18412971Y-16866786D01*
X18403448Y-16904881D01*
X18393924Y-16923929D01*
X18384400Y-16933452D01*
X18365352Y-16942976D01*
X18346305Y-16942976D01*
X18327257Y-16933452D01*
X18317733Y-16923929D01*
X18308210Y-16904881D01*
X18298686Y-16866786D01*
X18298686Y-16819167D01*
X18308210Y-16781071D01*
X18317733Y-16762024D01*
X18327257Y-16752500D01*
X18346305Y-16742976D01*
X18536781Y-16742976D02*
X18555829Y-16742976D01*
X18574876Y-16752500D01*
X18584400Y-16762024D01*
X18593924Y-16781071D01*
X18603448Y-16819167D01*
X18603448Y-16866786D01*
X18593924Y-16904881D01*
X18584400Y-16923929D01*
X18574876Y-16933452D01*
X18555829Y-16942976D01*
X18536781Y-16942976D01*
X18517733Y-16933452D01*
X18508210Y-16923929D01*
X18498686Y-16904881D01*
X18489162Y-16866786D01*
X18489162Y-16819167D01*
X18498686Y-16781071D01*
X18508210Y-16762024D01*
X18517733Y-16752500D01*
X18536781Y-16742976D01*
X18689162Y-16942976D02*
X18689162Y-16809643D01*
X18689162Y-16828690D02*
X18698686Y-16819167D01*
X18717733Y-16809643D01*
X18746305Y-16809643D01*
X18765352Y-16819167D01*
X18774876Y-16838214D01*
X18774876Y-16942976D01*
X18774876Y-16838214D02*
X18784400Y-16819167D01*
X18803448Y-16809643D01*
X18832019Y-16809643D01*
X18851067Y-16819167D01*
X18860590Y-16838214D01*
X18860590Y-16942976D01*
X18955829Y-16942976D02*
X18955829Y-16809643D01*
X18955829Y-16828690D02*
X18965352Y-16819167D01*
X18984400Y-16809643D01*
X19012971Y-16809643D01*
X19032019Y-16819167D01*
X19041543Y-16838214D01*
X19041543Y-16942976D01*
X19041543Y-16838214D02*
X19051067Y-16819167D01*
X19070114Y-16809643D01*
X19098686Y-16809643D01*
X19117733Y-16819167D01*
X19127257Y-16838214D01*
X19127257Y-16942976D01*
X19517733Y-16733452D02*
X19346305Y-16990595D01*
X19774876Y-16742976D02*
X19793924Y-16742976D01*
X19812971Y-16752500D01*
X19822495Y-16762024D01*
X19832019Y-16781071D01*
X19841543Y-16819167D01*
X19841543Y-16866786D01*
X19832019Y-16904881D01*
X19822495Y-16923929D01*
X19812971Y-16933452D01*
X19793924Y-16942976D01*
X19774876Y-16942976D01*
X19755829Y-16933452D01*
X19746305Y-16923929D01*
X19736781Y-16904881D01*
X19727257Y-16866786D01*
X19727257Y-16819167D01*
X19736781Y-16781071D01*
X19746305Y-16762024D01*
X19755829Y-16752500D01*
X19774876Y-16742976D01*
X19927257Y-16923929D02*
X19936781Y-16933452D01*
X19927257Y-16942976D01*
X19917733Y-16933452D01*
X19927257Y-16923929D01*
X19927257Y-16942976D01*
X20060590Y-16742976D02*
X20079638Y-16742976D01*
X20098686Y-16752500D01*
X20108210Y-16762024D01*
X20117733Y-16781071D01*
X20127257Y-16819167D01*
X20127257Y-16866786D01*
X20117733Y-16904881D01*
X20108210Y-16923929D01*
X20098686Y-16933452D01*
X20079638Y-16942976D01*
X20060590Y-16942976D01*
X20041543Y-16933452D01*
X20032019Y-16923929D01*
X20022495Y-16904881D01*
X20012971Y-16866786D01*
X20012971Y-16819167D01*
X20022495Y-16781071D01*
X20032019Y-16762024D01*
X20041543Y-16752500D01*
X20060590Y-16742976D01*
X20203448Y-16762024D02*
X20212971Y-16752500D01*
X20232019Y-16742976D01*
X20279638Y-16742976D01*
X20298686Y-16752500D01*
X20308210Y-16762024D01*
X20317733Y-16781071D01*
X20317733Y-16800119D01*
X20308210Y-16828690D01*
X20193924Y-16942976D01*
X20317733Y-16942976D01*
X20384400Y-16742976D02*
X20517733Y-16742976D01*
X20432019Y-16942976D01*
X20679638Y-16742976D02*
X20641543Y-16742976D01*
X20622495Y-16752500D01*
X20612971Y-16762024D01*
X20593924Y-16790595D01*
X20584400Y-16828690D01*
X20584400Y-16904881D01*
X20593924Y-16923929D01*
X20603448Y-16933452D01*
X20622495Y-16942976D01*
X20660590Y-16942976D01*
X20679638Y-16933452D01*
X20689162Y-16923929D01*
X20698686Y-16904881D01*
X20698686Y-16857262D01*
X20689162Y-16838214D01*
X20679638Y-16828690D01*
X20660590Y-16819167D01*
X20622495Y-16819167D01*
X20603448Y-16828690D01*
X20593924Y-16838214D01*
X20584400Y-16857262D01*
X20774876Y-16742976D02*
X20774876Y-16781071D01*
X20851067Y-16742976D02*
X20851067Y-16781071D01*
X21146305Y-17019167D02*
X21136781Y-17009643D01*
X21117733Y-16981071D01*
X21108210Y-16962024D01*
X21098686Y-16933452D01*
X21089162Y-16885833D01*
X21089162Y-16847738D01*
X21098686Y-16800119D01*
X21108210Y-16771548D01*
X21117733Y-16752500D01*
X21136781Y-16723928D01*
X21146305Y-16714405D01*
X21327257Y-16942976D02*
X21212971Y-16942976D01*
X21270114Y-16942976D02*
X21270114Y-16742976D01*
X21251067Y-16771548D01*
X21232019Y-16790595D01*
X21212971Y-16800119D01*
X21565352Y-16942976D02*
X21565352Y-16742976D01*
X21651067Y-16942976D02*
X21651067Y-16838214D01*
X21641543Y-16819167D01*
X21622495Y-16809643D01*
X21593924Y-16809643D01*
X21574876Y-16819167D01*
X21565352Y-16828690D01*
X21774876Y-16942976D02*
X21755829Y-16933452D01*
X21746305Y-16923929D01*
X21736781Y-16904881D01*
X21736781Y-16847738D01*
X21746305Y-16828690D01*
X21755829Y-16819167D01*
X21774876Y-16809643D01*
X21803448Y-16809643D01*
X21822495Y-16819167D01*
X21832019Y-16828690D01*
X21841543Y-16847738D01*
X21841543Y-16904881D01*
X21832019Y-16923929D01*
X21822495Y-16933452D01*
X21803448Y-16942976D01*
X21774876Y-16942976D01*
X21955829Y-16942976D02*
X21936781Y-16933452D01*
X21927257Y-16914405D01*
X21927257Y-16742976D01*
X22108210Y-16933452D02*
X22089162Y-16942976D01*
X22051067Y-16942976D01*
X22032019Y-16933452D01*
X22022495Y-16914405D01*
X22022495Y-16838214D01*
X22032019Y-16819167D01*
X22051067Y-16809643D01*
X22089162Y-16809643D01*
X22108210Y-16819167D01*
X22117733Y-16838214D01*
X22117733Y-16857262D01*
X22022495Y-16876310D01*
X22184400Y-17019167D02*
X22193924Y-17009643D01*
X22212971Y-16981071D01*
X22222495Y-16962024D01*
X22232019Y-16933452D01*
X22241543Y-16885833D01*
X22241543Y-16847738D01*
X22232019Y-16800119D01*
X22222495Y-16771548D01*
X22212971Y-16752500D01*
X22193924Y-16723928D01*
X22184400Y-16714405D01*
D14*
X17534400Y-17076500D02*
X17534400Y-17156500D01*
X17494400Y-17116500D02*
X17574400Y-17116500D01*
D11*
X17870114Y-17006976D02*
X17889162Y-17006976D01*
X17908210Y-17016500D01*
X17917733Y-17026024D01*
X17927257Y-17045071D01*
X17936781Y-17083167D01*
X17936781Y-17130786D01*
X17927257Y-17168881D01*
X17917733Y-17187929D01*
X17908210Y-17197452D01*
X17889162Y-17206976D01*
X17870114Y-17206976D01*
X17851067Y-17197452D01*
X17841543Y-17187929D01*
X17832019Y-17168881D01*
X17822495Y-17130786D01*
X17822495Y-17083167D01*
X17832019Y-17045071D01*
X17841543Y-17026024D01*
X17851067Y-17016500D01*
X17870114Y-17006976D01*
X18022495Y-17187929D02*
X18032019Y-17197452D01*
X18022495Y-17206976D01*
X18012971Y-17197452D01*
X18022495Y-17187929D01*
X18022495Y-17206976D01*
X18146305Y-17092690D02*
X18127257Y-17083167D01*
X18117733Y-17073643D01*
X18108210Y-17054595D01*
X18108210Y-17045071D01*
X18117733Y-17026024D01*
X18127257Y-17016500D01*
X18146305Y-17006976D01*
X18184400Y-17006976D01*
X18203448Y-17016500D01*
X18212971Y-17026024D01*
X18222495Y-17045071D01*
X18222495Y-17054595D01*
X18212971Y-17073643D01*
X18203448Y-17083167D01*
X18184400Y-17092690D01*
X18146305Y-17092690D01*
X18127257Y-17102214D01*
X18117733Y-17111738D01*
X18108210Y-17130786D01*
X18108210Y-17168881D01*
X18117733Y-17187929D01*
X18127257Y-17197452D01*
X18146305Y-17206976D01*
X18184400Y-17206976D01*
X18203448Y-17197452D01*
X18212971Y-17187929D01*
X18222495Y-17168881D01*
X18222495Y-17130786D01*
X18212971Y-17111738D01*
X18203448Y-17102214D01*
X18184400Y-17092690D01*
X18346305Y-17006976D02*
X18365352Y-17006976D01*
X18384400Y-17016500D01*
X18393924Y-17026024D01*
X18403448Y-17045071D01*
X18412971Y-17083167D01*
X18412971Y-17130786D01*
X18403448Y-17168881D01*
X18393924Y-17187929D01*
X18384400Y-17197452D01*
X18365352Y-17206976D01*
X18346305Y-17206976D01*
X18327257Y-17197452D01*
X18317733Y-17187929D01*
X18308210Y-17168881D01*
X18298686Y-17130786D01*
X18298686Y-17083167D01*
X18308210Y-17045071D01*
X18317733Y-17026024D01*
X18327257Y-17016500D01*
X18346305Y-17006976D01*
X18536781Y-17006976D02*
X18555829Y-17006976D01*
X18574876Y-17016500D01*
X18584400Y-17026024D01*
X18593924Y-17045071D01*
X18603448Y-17083167D01*
X18603448Y-17130786D01*
X18593924Y-17168881D01*
X18584400Y-17187929D01*
X18574876Y-17197452D01*
X18555829Y-17206976D01*
X18536781Y-17206976D01*
X18517733Y-17197452D01*
X18508210Y-17187929D01*
X18498686Y-17168881D01*
X18489162Y-17130786D01*
X18489162Y-17083167D01*
X18498686Y-17045071D01*
X18508210Y-17026024D01*
X18517733Y-17016500D01*
X18536781Y-17006976D01*
X18689162Y-17206976D02*
X18689162Y-17073643D01*
X18689162Y-17092690D02*
X18698686Y-17083167D01*
X18717733Y-17073643D01*
X18746305Y-17073643D01*
X18765352Y-17083167D01*
X18774876Y-17102214D01*
X18774876Y-17206976D01*
X18774876Y-17102214D02*
X18784400Y-17083167D01*
X18803448Y-17073643D01*
X18832019Y-17073643D01*
X18851067Y-17083167D01*
X18860590Y-17102214D01*
X18860590Y-17206976D01*
X18955829Y-17206976D02*
X18955829Y-17073643D01*
X18955829Y-17092690D02*
X18965352Y-17083167D01*
X18984400Y-17073643D01*
X19012971Y-17073643D01*
X19032019Y-17083167D01*
X19041543Y-17102214D01*
X19041543Y-17206976D01*
X19041543Y-17102214D02*
X19051067Y-17083167D01*
X19070114Y-17073643D01*
X19098686Y-17073643D01*
X19117733Y-17083167D01*
X19127257Y-17102214D01*
X19127257Y-17206976D01*
X19517733Y-16997452D02*
X19346305Y-17254595D01*
X19774876Y-17006976D02*
X19793924Y-17006976D01*
X19812971Y-17016500D01*
X19822495Y-17026024D01*
X19832019Y-17045071D01*
X19841543Y-17083167D01*
X19841543Y-17130786D01*
X19832019Y-17168881D01*
X19822495Y-17187929D01*
X19812971Y-17197452D01*
X19793924Y-17206976D01*
X19774876Y-17206976D01*
X19755829Y-17197452D01*
X19746305Y-17187929D01*
X19736781Y-17168881D01*
X19727257Y-17130786D01*
X19727257Y-17083167D01*
X19736781Y-17045071D01*
X19746305Y-17026024D01*
X19755829Y-17016500D01*
X19774876Y-17006976D01*
X19927257Y-17187929D02*
X19936781Y-17197452D01*
X19927257Y-17206976D01*
X19917733Y-17197452D01*
X19927257Y-17187929D01*
X19927257Y-17206976D01*
X20060590Y-17006976D02*
X20079638Y-17006976D01*
X20098686Y-17016500D01*
X20108210Y-17026024D01*
X20117733Y-17045071D01*
X20127257Y-17083167D01*
X20127257Y-17130786D01*
X20117733Y-17168881D01*
X20108210Y-17187929D01*
X20098686Y-17197452D01*
X20079638Y-17206976D01*
X20060590Y-17206976D01*
X20041543Y-17197452D01*
X20032019Y-17187929D01*
X20022495Y-17168881D01*
X20012971Y-17130786D01*
X20012971Y-17083167D01*
X20022495Y-17045071D01*
X20032019Y-17026024D01*
X20041543Y-17016500D01*
X20060590Y-17006976D01*
X20193924Y-17006976D02*
X20317733Y-17006976D01*
X20251067Y-17083167D01*
X20279638Y-17083167D01*
X20298686Y-17092690D01*
X20308210Y-17102214D01*
X20317733Y-17121262D01*
X20317733Y-17168881D01*
X20308210Y-17187929D01*
X20298686Y-17197452D01*
X20279638Y-17206976D01*
X20222495Y-17206976D01*
X20203448Y-17197452D01*
X20193924Y-17187929D01*
X20508210Y-17206976D02*
X20393924Y-17206976D01*
X20451067Y-17206976D02*
X20451067Y-17006976D01*
X20432019Y-17035548D01*
X20412971Y-17054595D01*
X20393924Y-17064119D01*
X20689162Y-17006976D02*
X20593924Y-17006976D01*
X20584400Y-17102214D01*
X20593924Y-17092690D01*
X20612971Y-17083167D01*
X20660590Y-17083167D01*
X20679638Y-17092690D01*
X20689162Y-17102214D01*
X20698686Y-17121262D01*
X20698686Y-17168881D01*
X20689162Y-17187929D01*
X20679638Y-17197452D01*
X20660590Y-17206976D01*
X20612971Y-17206976D01*
X20593924Y-17197452D01*
X20584400Y-17187929D01*
X20774876Y-17006976D02*
X20774876Y-17045071D01*
X20851067Y-17006976D02*
X20851067Y-17045071D01*
X21146305Y-17283167D02*
X21136781Y-17273643D01*
X21117733Y-17245071D01*
X21108210Y-17226024D01*
X21098686Y-17197452D01*
X21089162Y-17149833D01*
X21089162Y-17111738D01*
X21098686Y-17064119D01*
X21108210Y-17035548D01*
X21117733Y-17016500D01*
X21136781Y-16987929D01*
X21146305Y-16978405D01*
X21327257Y-17206976D02*
X21212971Y-17206976D01*
X21270114Y-17206976D02*
X21270114Y-17006976D01*
X21251067Y-17035548D01*
X21232019Y-17054595D01*
X21212971Y-17064119D01*
X21441543Y-17092690D02*
X21422495Y-17083167D01*
X21412971Y-17073643D01*
X21403448Y-17054595D01*
X21403448Y-17045071D01*
X21412971Y-17026024D01*
X21422495Y-17016500D01*
X21441543Y-17006976D01*
X21479638Y-17006976D01*
X21498686Y-17016500D01*
X21508210Y-17026024D01*
X21517733Y-17045071D01*
X21517733Y-17054595D01*
X21508210Y-17073643D01*
X21498686Y-17083167D01*
X21479638Y-17092690D01*
X21441543Y-17092690D01*
X21422495Y-17102214D01*
X21412971Y-17111738D01*
X21403448Y-17130786D01*
X21403448Y-17168881D01*
X21412971Y-17187929D01*
X21422495Y-17197452D01*
X21441543Y-17206976D01*
X21479638Y-17206976D01*
X21498686Y-17197452D01*
X21508210Y-17187929D01*
X21517733Y-17168881D01*
X21517733Y-17130786D01*
X21508210Y-17111738D01*
X21498686Y-17102214D01*
X21479638Y-17092690D01*
X21698686Y-17006976D02*
X21603448Y-17006976D01*
X21593924Y-17102214D01*
X21603448Y-17092690D01*
X21622495Y-17083167D01*
X21670114Y-17083167D01*
X21689162Y-17092690D01*
X21698686Y-17102214D01*
X21708210Y-17121262D01*
X21708210Y-17168881D01*
X21698686Y-17187929D01*
X21689162Y-17197452D01*
X21670114Y-17206976D01*
X21622495Y-17206976D01*
X21603448Y-17197452D01*
X21593924Y-17187929D01*
X21946305Y-17206976D02*
X21946305Y-17006976D01*
X22032019Y-17206976D02*
X22032019Y-17102214D01*
X22022495Y-17083167D01*
X22003448Y-17073643D01*
X21974876Y-17073643D01*
X21955829Y-17083167D01*
X21946305Y-17092690D01*
X22155829Y-17206976D02*
X22136781Y-17197452D01*
X22127257Y-17187929D01*
X22117733Y-17168881D01*
X22117733Y-17111738D01*
X22127257Y-17092690D01*
X22136781Y-17083167D01*
X22155829Y-17073643D01*
X22184400Y-17073643D01*
X22203448Y-17083167D01*
X22212971Y-17092690D01*
X22222495Y-17111738D01*
X22222495Y-17168881D01*
X22212971Y-17187929D01*
X22203448Y-17197452D01*
X22184400Y-17206976D01*
X22155829Y-17206976D01*
X22336781Y-17206976D02*
X22317733Y-17197452D01*
X22308210Y-17178405D01*
X22308210Y-17006976D01*
X22489162Y-17197452D02*
X22470114Y-17206976D01*
X22432019Y-17206976D01*
X22412971Y-17197452D01*
X22403448Y-17178405D01*
X22403448Y-17102214D01*
X22412971Y-17083167D01*
X22432019Y-17073643D01*
X22470114Y-17073643D01*
X22489162Y-17083167D01*
X22498686Y-17102214D01*
X22498686Y-17121262D01*
X22403448Y-17140310D01*
X22574876Y-17197452D02*
X22593924Y-17206976D01*
X22632019Y-17206976D01*
X22651067Y-17197452D01*
X22660590Y-17178405D01*
X22660590Y-17168881D01*
X22651067Y-17149833D01*
X22632019Y-17140310D01*
X22603448Y-17140310D01*
X22584400Y-17130786D01*
X22574876Y-17111738D01*
X22574876Y-17102214D01*
X22584400Y-17083167D01*
X22603448Y-17073643D01*
X22632019Y-17073643D01*
X22651067Y-17083167D01*
X22727257Y-17283167D02*
X22736781Y-17273643D01*
X22755828Y-17245071D01*
X22765352Y-17226024D01*
X22774876Y-17197452D01*
X22784400Y-17149833D01*
X22784400Y-17111738D01*
X22774876Y-17064119D01*
X22765352Y-17035548D01*
X22755828Y-17016500D01*
X22736781Y-16987929D01*
X22727257Y-16978405D01*
D15*
X17561220Y-17412320D02*
X17561220Y-17348680D01*
X17497580Y-17348680D01*
X17497580Y-17412320D01*
X17561220Y-17412320D01*
D11*
X17870114Y-17270976D02*
X17889162Y-17270976D01*
X17908210Y-17280500D01*
X17917733Y-17290024D01*
X17927257Y-17309071D01*
X17936781Y-17347167D01*
X17936781Y-17394786D01*
X17927257Y-17432881D01*
X17917733Y-17451929D01*
X17908210Y-17461452D01*
X17889162Y-17470976D01*
X17870114Y-17470976D01*
X17851067Y-17461452D01*
X17841543Y-17451929D01*
X17832019Y-17432881D01*
X17822495Y-17394786D01*
X17822495Y-17347167D01*
X17832019Y-17309071D01*
X17841543Y-17290024D01*
X17851067Y-17280500D01*
X17870114Y-17270976D01*
X18022495Y-17451929D02*
X18032019Y-17461452D01*
X18022495Y-17470976D01*
X18012971Y-17461452D01*
X18022495Y-17451929D01*
X18022495Y-17470976D01*
X18127257Y-17470976D02*
X18165352Y-17470976D01*
X18184400Y-17461452D01*
X18193924Y-17451929D01*
X18212971Y-17423357D01*
X18222495Y-17385262D01*
X18222495Y-17309071D01*
X18212971Y-17290024D01*
X18203448Y-17280500D01*
X18184400Y-17270976D01*
X18146305Y-17270976D01*
X18127257Y-17280500D01*
X18117733Y-17290024D01*
X18108210Y-17309071D01*
X18108210Y-17356690D01*
X18117733Y-17375738D01*
X18127257Y-17385262D01*
X18146305Y-17394786D01*
X18184400Y-17394786D01*
X18203448Y-17385262D01*
X18212971Y-17375738D01*
X18222495Y-17356690D01*
X18346305Y-17270976D02*
X18365352Y-17270976D01*
X18384400Y-17280500D01*
X18393924Y-17290024D01*
X18403448Y-17309071D01*
X18412971Y-17347167D01*
X18412971Y-17394786D01*
X18403448Y-17432881D01*
X18393924Y-17451929D01*
X18384400Y-17461452D01*
X18365352Y-17470976D01*
X18346305Y-17470976D01*
X18327257Y-17461452D01*
X18317733Y-17451929D01*
X18308210Y-17432881D01*
X18298686Y-17394786D01*
X18298686Y-17347167D01*
X18308210Y-17309071D01*
X18317733Y-17290024D01*
X18327257Y-17280500D01*
X18346305Y-17270976D01*
X18536781Y-17270976D02*
X18555829Y-17270976D01*
X18574876Y-17280500D01*
X18584400Y-17290024D01*
X18593924Y-17309071D01*
X18603448Y-17347167D01*
X18603448Y-17394786D01*
X18593924Y-17432881D01*
X18584400Y-17451929D01*
X18574876Y-17461452D01*
X18555829Y-17470976D01*
X18536781Y-17470976D01*
X18517733Y-17461452D01*
X18508210Y-17451929D01*
X18498686Y-17432881D01*
X18489162Y-17394786D01*
X18489162Y-17347167D01*
X18498686Y-17309071D01*
X18508210Y-17290024D01*
X18517733Y-17280500D01*
X18536781Y-17270976D01*
X18689162Y-17470976D02*
X18689162Y-17337643D01*
X18689162Y-17356690D02*
X18698686Y-17347167D01*
X18717733Y-17337643D01*
X18746305Y-17337643D01*
X18765352Y-17347167D01*
X18774876Y-17366214D01*
X18774876Y-17470976D01*
X18774876Y-17366214D02*
X18784400Y-17347167D01*
X18803448Y-17337643D01*
X18832019Y-17337643D01*
X18851067Y-17347167D01*
X18860590Y-17366214D01*
X18860590Y-17470976D01*
X18955829Y-17470976D02*
X18955829Y-17337643D01*
X18955829Y-17356690D02*
X18965352Y-17347167D01*
X18984400Y-17337643D01*
X19012971Y-17337643D01*
X19032019Y-17347167D01*
X19041543Y-17366214D01*
X19041543Y-17470976D01*
X19041543Y-17366214D02*
X19051067Y-17347167D01*
X19070114Y-17337643D01*
X19098686Y-17337643D01*
X19117733Y-17347167D01*
X19127257Y-17366214D01*
X19127257Y-17470976D01*
X19517733Y-17261452D02*
X19346305Y-17518595D01*
X19774876Y-17270976D02*
X19793924Y-17270976D01*
X19812971Y-17280500D01*
X19822495Y-17290024D01*
X19832019Y-17309071D01*
X19841543Y-17347167D01*
X19841543Y-17394786D01*
X19832019Y-17432881D01*
X19822495Y-17451929D01*
X19812971Y-17461452D01*
X19793924Y-17470976D01*
X19774876Y-17470976D01*
X19755829Y-17461452D01*
X19746305Y-17451929D01*
X19736781Y-17432881D01*
X19727257Y-17394786D01*
X19727257Y-17347167D01*
X19736781Y-17309071D01*
X19746305Y-17290024D01*
X19755829Y-17280500D01*
X19774876Y-17270976D01*
X19927257Y-17451929D02*
X19936781Y-17461452D01*
X19927257Y-17470976D01*
X19917733Y-17461452D01*
X19927257Y-17451929D01*
X19927257Y-17470976D01*
X20060590Y-17270976D02*
X20079638Y-17270976D01*
X20098686Y-17280500D01*
X20108210Y-17290024D01*
X20117733Y-17309071D01*
X20127257Y-17347167D01*
X20127257Y-17394786D01*
X20117733Y-17432881D01*
X20108210Y-17451929D01*
X20098686Y-17461452D01*
X20079638Y-17470976D01*
X20060590Y-17470976D01*
X20041543Y-17461452D01*
X20032019Y-17451929D01*
X20022495Y-17432881D01*
X20012971Y-17394786D01*
X20012971Y-17347167D01*
X20022495Y-17309071D01*
X20032019Y-17290024D01*
X20041543Y-17280500D01*
X20060590Y-17270976D01*
X20193924Y-17270976D02*
X20317733Y-17270976D01*
X20251067Y-17347167D01*
X20279638Y-17347167D01*
X20298686Y-17356690D01*
X20308210Y-17366214D01*
X20317733Y-17385262D01*
X20317733Y-17432881D01*
X20308210Y-17451929D01*
X20298686Y-17461452D01*
X20279638Y-17470976D01*
X20222495Y-17470976D01*
X20203448Y-17461452D01*
X20193924Y-17451929D01*
X20498686Y-17270976D02*
X20403448Y-17270976D01*
X20393924Y-17366214D01*
X20403448Y-17356690D01*
X20422495Y-17347167D01*
X20470114Y-17347167D01*
X20489162Y-17356690D01*
X20498686Y-17366214D01*
X20508210Y-17385262D01*
X20508210Y-17432881D01*
X20498686Y-17451929D01*
X20489162Y-17461452D01*
X20470114Y-17470976D01*
X20422495Y-17470976D01*
X20403448Y-17461452D01*
X20393924Y-17451929D01*
X20679638Y-17337643D02*
X20679638Y-17470976D01*
X20632019Y-17261452D02*
X20584400Y-17404310D01*
X20708210Y-17404310D01*
X20774876Y-17270976D02*
X20774876Y-17309071D01*
X20851067Y-17270976D02*
X20851067Y-17309071D01*
X21146305Y-17547167D02*
X21136781Y-17537643D01*
X21117733Y-17509071D01*
X21108210Y-17490024D01*
X21098686Y-17461452D01*
X21089162Y-17413833D01*
X21089162Y-17375738D01*
X21098686Y-17328119D01*
X21108210Y-17299548D01*
X21117733Y-17280500D01*
X21136781Y-17251929D01*
X21146305Y-17242405D01*
X21212971Y-17290024D02*
X21222495Y-17280500D01*
X21241543Y-17270976D01*
X21289162Y-17270976D01*
X21308210Y-17280500D01*
X21317733Y-17290024D01*
X21327257Y-17309071D01*
X21327257Y-17328119D01*
X21317733Y-17356690D01*
X21203448Y-17470976D01*
X21327257Y-17470976D01*
X21498686Y-17270976D02*
X21460590Y-17270976D01*
X21441543Y-17280500D01*
X21432019Y-17290024D01*
X21412971Y-17318595D01*
X21403448Y-17356690D01*
X21403448Y-17432881D01*
X21412971Y-17451929D01*
X21422495Y-17461452D01*
X21441543Y-17470976D01*
X21479638Y-17470976D01*
X21498686Y-17461452D01*
X21508210Y-17451929D01*
X21517733Y-17432881D01*
X21517733Y-17385262D01*
X21508210Y-17366214D01*
X21498686Y-17356690D01*
X21479638Y-17347167D01*
X21441543Y-17347167D01*
X21422495Y-17356690D01*
X21412971Y-17366214D01*
X21403448Y-17385262D01*
X21755829Y-17470976D02*
X21755829Y-17270976D01*
X21841543Y-17470976D02*
X21841543Y-17366214D01*
X21832019Y-17347167D01*
X21812971Y-17337643D01*
X21784400Y-17337643D01*
X21765352Y-17347167D01*
X21755829Y-17356690D01*
X21965352Y-17470976D02*
X21946305Y-17461452D01*
X21936781Y-17451929D01*
X21927257Y-17432881D01*
X21927257Y-17375738D01*
X21936781Y-17356690D01*
X21946305Y-17347167D01*
X21965352Y-17337643D01*
X21993924Y-17337643D01*
X22012971Y-17347167D01*
X22022495Y-17356690D01*
X22032019Y-17375738D01*
X22032019Y-17432881D01*
X22022495Y-17451929D01*
X22012971Y-17461452D01*
X21993924Y-17470976D01*
X21965352Y-17470976D01*
X22146305Y-17470976D02*
X22127257Y-17461452D01*
X22117733Y-17442405D01*
X22117733Y-17270976D01*
X22298686Y-17461452D02*
X22279638Y-17470976D01*
X22241543Y-17470976D01*
X22222495Y-17461452D01*
X22212971Y-17442405D01*
X22212971Y-17366214D01*
X22222495Y-17347167D01*
X22241543Y-17337643D01*
X22279638Y-17337643D01*
X22298686Y-17347167D01*
X22308210Y-17366214D01*
X22308210Y-17385262D01*
X22212971Y-17404310D01*
X22384400Y-17461452D02*
X22403448Y-17470976D01*
X22441543Y-17470976D01*
X22460590Y-17461452D01*
X22470114Y-17442405D01*
X22470114Y-17432881D01*
X22460590Y-17413833D01*
X22441543Y-17404310D01*
X22412971Y-17404310D01*
X22393924Y-17394786D01*
X22384400Y-17375738D01*
X22384400Y-17366214D01*
X22393924Y-17347167D01*
X22412971Y-17337643D01*
X22441543Y-17337643D01*
X22460590Y-17347167D01*
X22536781Y-17547167D02*
X22546305Y-17537643D01*
X22565352Y-17509071D01*
X22574876Y-17490024D01*
X22584400Y-17461452D01*
X22593924Y-17413833D01*
X22593924Y-17375738D01*
X22584400Y-17328119D01*
X22574876Y-17299548D01*
X22565352Y-17280500D01*
X22546305Y-17251929D01*
X22536781Y-17242405D01*
D10*
X17524400Y-17694500D02*
X17574400Y-17644500D01*
X17524400Y-17594500D01*
X17474400Y-17644500D01*
X17524400Y-17694500D01*
D11*
X17936781Y-17734976D02*
X17822495Y-17734976D01*
X17879638Y-17734976D02*
X17879638Y-17534976D01*
X17860590Y-17563548D01*
X17841543Y-17582595D01*
X17822495Y-17592119D01*
X18022495Y-17715929D02*
X18032019Y-17725452D01*
X18022495Y-17734976D01*
X18012971Y-17725452D01*
X18022495Y-17715929D01*
X18022495Y-17734976D01*
X18155829Y-17534976D02*
X18174876Y-17534976D01*
X18193924Y-17544500D01*
X18203448Y-17554024D01*
X18212971Y-17573071D01*
X18222495Y-17611167D01*
X18222495Y-17658786D01*
X18212971Y-17696881D01*
X18203448Y-17715929D01*
X18193924Y-17725452D01*
X18174876Y-17734976D01*
X18155829Y-17734976D01*
X18136781Y-17725452D01*
X18127257Y-17715929D01*
X18117733Y-17696881D01*
X18108210Y-17658786D01*
X18108210Y-17611167D01*
X18117733Y-17573071D01*
X18127257Y-17554024D01*
X18136781Y-17544500D01*
X18155829Y-17534976D01*
X18346305Y-17534976D02*
X18365352Y-17534976D01*
X18384400Y-17544500D01*
X18393924Y-17554024D01*
X18403448Y-17573071D01*
X18412971Y-17611167D01*
X18412971Y-17658786D01*
X18403448Y-17696881D01*
X18393924Y-17715929D01*
X18384400Y-17725452D01*
X18365352Y-17734976D01*
X18346305Y-17734976D01*
X18327257Y-17725452D01*
X18317733Y-17715929D01*
X18308210Y-17696881D01*
X18298686Y-17658786D01*
X18298686Y-17611167D01*
X18308210Y-17573071D01*
X18317733Y-17554024D01*
X18327257Y-17544500D01*
X18346305Y-17534976D01*
X18536781Y-17534976D02*
X18555829Y-17534976D01*
X18574876Y-17544500D01*
X18584400Y-17554024D01*
X18593924Y-17573071D01*
X18603448Y-17611167D01*
X18603448Y-17658786D01*
X18593924Y-17696881D01*
X18584400Y-17715929D01*
X18574876Y-17725452D01*
X18555829Y-17734976D01*
X18536781Y-17734976D01*
X18517733Y-17725452D01*
X18508210Y-17715929D01*
X18498686Y-17696881D01*
X18489162Y-17658786D01*
X18489162Y-17611167D01*
X18498686Y-17573071D01*
X18508210Y-17554024D01*
X18517733Y-17544500D01*
X18536781Y-17534976D01*
X18689162Y-17734976D02*
X18689162Y-17601643D01*
X18689162Y-17620690D02*
X18698686Y-17611167D01*
X18717733Y-17601643D01*
X18746305Y-17601643D01*
X18765352Y-17611167D01*
X18774876Y-17630214D01*
X18774876Y-17734976D01*
X18774876Y-17630214D02*
X18784400Y-17611167D01*
X18803448Y-17601643D01*
X18832019Y-17601643D01*
X18851067Y-17611167D01*
X18860590Y-17630214D01*
X18860590Y-17734976D01*
X18955829Y-17734976D02*
X18955829Y-17601643D01*
X18955829Y-17620690D02*
X18965352Y-17611167D01*
X18984400Y-17601643D01*
X19012971Y-17601643D01*
X19032019Y-17611167D01*
X19041543Y-17630214D01*
X19041543Y-17734976D01*
X19041543Y-17630214D02*
X19051067Y-17611167D01*
X19070114Y-17601643D01*
X19098686Y-17601643D01*
X19117733Y-17611167D01*
X19127257Y-17630214D01*
X19127257Y-17734976D01*
X19517733Y-17525452D02*
X19346305Y-17782595D01*
X19774876Y-17534976D02*
X19793924Y-17534976D01*
X19812971Y-17544500D01*
X19822495Y-17554024D01*
X19832019Y-17573071D01*
X19841543Y-17611167D01*
X19841543Y-17658786D01*
X19832019Y-17696881D01*
X19822495Y-17715929D01*
X19812971Y-17725452D01*
X19793924Y-17734976D01*
X19774876Y-17734976D01*
X19755829Y-17725452D01*
X19746305Y-17715929D01*
X19736781Y-17696881D01*
X19727257Y-17658786D01*
X19727257Y-17611167D01*
X19736781Y-17573071D01*
X19746305Y-17554024D01*
X19755829Y-17544500D01*
X19774876Y-17534976D01*
X19927257Y-17715929D02*
X19936781Y-17725452D01*
X19927257Y-17734976D01*
X19917733Y-17725452D01*
X19927257Y-17715929D01*
X19927257Y-17734976D01*
X20060590Y-17534976D02*
X20079638Y-17534976D01*
X20098686Y-17544500D01*
X20108210Y-17554024D01*
X20117733Y-17573071D01*
X20127257Y-17611167D01*
X20127257Y-17658786D01*
X20117733Y-17696881D01*
X20108210Y-17715929D01*
X20098686Y-17725452D01*
X20079638Y-17734976D01*
X20060590Y-17734976D01*
X20041543Y-17725452D01*
X20032019Y-17715929D01*
X20022495Y-17696881D01*
X20012971Y-17658786D01*
X20012971Y-17611167D01*
X20022495Y-17573071D01*
X20032019Y-17554024D01*
X20041543Y-17544500D01*
X20060590Y-17534976D01*
X20193924Y-17534976D02*
X20317733Y-17534976D01*
X20251067Y-17611167D01*
X20279638Y-17611167D01*
X20298686Y-17620690D01*
X20308210Y-17630214D01*
X20317733Y-17649262D01*
X20317733Y-17696881D01*
X20308210Y-17715929D01*
X20298686Y-17725452D01*
X20279638Y-17734976D01*
X20222495Y-17734976D01*
X20203448Y-17725452D01*
X20193924Y-17715929D01*
X20412971Y-17734976D02*
X20451067Y-17734976D01*
X20470114Y-17725452D01*
X20479638Y-17715929D01*
X20498686Y-17687357D01*
X20508210Y-17649262D01*
X20508210Y-17573071D01*
X20498686Y-17554024D01*
X20489162Y-17544500D01*
X20470114Y-17534976D01*
X20432019Y-17534976D01*
X20412971Y-17544500D01*
X20403448Y-17554024D01*
X20393924Y-17573071D01*
X20393924Y-17620690D01*
X20403448Y-17639738D01*
X20412971Y-17649262D01*
X20432019Y-17658786D01*
X20470114Y-17658786D01*
X20489162Y-17649262D01*
X20498686Y-17639738D01*
X20508210Y-17620690D01*
X20679638Y-17601643D02*
X20679638Y-17734976D01*
X20632019Y-17525452D02*
X20584400Y-17668310D01*
X20708210Y-17668310D01*
X20774876Y-17534976D02*
X20774876Y-17573071D01*
X20851067Y-17534976D02*
X20851067Y-17573071D01*
X21146305Y-17811167D02*
X21136781Y-17801643D01*
X21117733Y-17773071D01*
X21108210Y-17754024D01*
X21098686Y-17725452D01*
X21089162Y-17677833D01*
X21089162Y-17639738D01*
X21098686Y-17592119D01*
X21108210Y-17563548D01*
X21117733Y-17544500D01*
X21136781Y-17515929D01*
X21146305Y-17506405D01*
X21203448Y-17534976D02*
X21327257Y-17534976D01*
X21260590Y-17611167D01*
X21289162Y-17611167D01*
X21308210Y-17620690D01*
X21317733Y-17630214D01*
X21327257Y-17649262D01*
X21327257Y-17696881D01*
X21317733Y-17715929D01*
X21308210Y-17725452D01*
X21289162Y-17734976D01*
X21232019Y-17734976D01*
X21212971Y-17725452D01*
X21203448Y-17715929D01*
X21403448Y-17554024D02*
X21412971Y-17544500D01*
X21432019Y-17534976D01*
X21479638Y-17534976D01*
X21498686Y-17544500D01*
X21508210Y-17554024D01*
X21517733Y-17573071D01*
X21517733Y-17592119D01*
X21508210Y-17620690D01*
X21393924Y-17734976D01*
X21517733Y-17734976D01*
X21755829Y-17734976D02*
X21755829Y-17534976D01*
X21841543Y-17734976D02*
X21841543Y-17630214D01*
X21832019Y-17611167D01*
X21812971Y-17601643D01*
X21784400Y-17601643D01*
X21765352Y-17611167D01*
X21755829Y-17620690D01*
X21965352Y-17734976D02*
X21946305Y-17725452D01*
X21936781Y-17715929D01*
X21927257Y-17696881D01*
X21927257Y-17639738D01*
X21936781Y-17620690D01*
X21946305Y-17611167D01*
X21965352Y-17601643D01*
X21993924Y-17601643D01*
X22012971Y-17611167D01*
X22022495Y-17620690D01*
X22032019Y-17639738D01*
X22032019Y-17696881D01*
X22022495Y-17715929D01*
X22012971Y-17725452D01*
X21993924Y-17734976D01*
X21965352Y-17734976D01*
X22146305Y-17734976D02*
X22127257Y-17725452D01*
X22117733Y-17706405D01*
X22117733Y-17534976D01*
X22298686Y-17725452D02*
X22279638Y-17734976D01*
X22241543Y-17734976D01*
X22222495Y-17725452D01*
X22212971Y-17706405D01*
X22212971Y-17630214D01*
X22222495Y-17611167D01*
X22241543Y-17601643D01*
X22279638Y-17601643D01*
X22298686Y-17611167D01*
X22308210Y-17630214D01*
X22308210Y-17649262D01*
X22212971Y-17668310D01*
X22384400Y-17725452D02*
X22403448Y-17734976D01*
X22441543Y-17734976D01*
X22460590Y-17725452D01*
X22470114Y-17706405D01*
X22470114Y-17696881D01*
X22460590Y-17677833D01*
X22441543Y-17668310D01*
X22412971Y-17668310D01*
X22393924Y-17658786D01*
X22384400Y-17639738D01*
X22384400Y-17630214D01*
X22393924Y-17611167D01*
X22412971Y-17601643D01*
X22441543Y-17601643D01*
X22460590Y-17611167D01*
X22708209Y-17658786D02*
X22860590Y-17658786D01*
X22784400Y-17734976D02*
X22784400Y-17582595D01*
X23089162Y-17534976D02*
X23212971Y-17534976D01*
X23146305Y-17611167D01*
X23174876Y-17611167D01*
X23193924Y-17620690D01*
X23203448Y-17630214D01*
X23212971Y-17649262D01*
X23212971Y-17696881D01*
X23203448Y-17715929D01*
X23193924Y-17725452D01*
X23174876Y-17734976D01*
X23117733Y-17734976D01*
X23098686Y-17725452D01*
X23089162Y-17715929D01*
X23441543Y-17725452D02*
X23460590Y-17734976D01*
X23498686Y-17734976D01*
X23517733Y-17725452D01*
X23527257Y-17706405D01*
X23527257Y-17696881D01*
X23517733Y-17677833D01*
X23498686Y-17668310D01*
X23470114Y-17668310D01*
X23451067Y-17658786D01*
X23441543Y-17639738D01*
X23441543Y-17630214D01*
X23451067Y-17611167D01*
X23470114Y-17601643D01*
X23498686Y-17601643D01*
X23517733Y-17611167D01*
X23641543Y-17734976D02*
X23622495Y-17725452D01*
X23612971Y-17706405D01*
X23612971Y-17534976D01*
X23746305Y-17734976D02*
X23727257Y-17725452D01*
X23717733Y-17715929D01*
X23708209Y-17696881D01*
X23708209Y-17639738D01*
X23717733Y-17620690D01*
X23727257Y-17611167D01*
X23746305Y-17601643D01*
X23774876Y-17601643D01*
X23793924Y-17611167D01*
X23803448Y-17620690D01*
X23812971Y-17639738D01*
X23812971Y-17696881D01*
X23803448Y-17715929D01*
X23793924Y-17725452D01*
X23774876Y-17734976D01*
X23746305Y-17734976D01*
X23870114Y-17601643D02*
X23946305Y-17601643D01*
X23898686Y-17534976D02*
X23898686Y-17706405D01*
X23908209Y-17725452D01*
X23927257Y-17734976D01*
X23946305Y-17734976D01*
X24003448Y-17725452D02*
X24022495Y-17734976D01*
X24060590Y-17734976D01*
X24079638Y-17725452D01*
X24089162Y-17706405D01*
X24089162Y-17696881D01*
X24079638Y-17677833D01*
X24060590Y-17668310D01*
X24032019Y-17668310D01*
X24012971Y-17658786D01*
X24003448Y-17639738D01*
X24003448Y-17630214D01*
X24012971Y-17611167D01*
X24032019Y-17601643D01*
X24060590Y-17601643D01*
X24079638Y-17611167D01*
X24155828Y-17811167D02*
X24165352Y-17801643D01*
X24184400Y-17773071D01*
X24193924Y-17754024D01*
X24203448Y-17725452D01*
X24212971Y-17677833D01*
X24212971Y-17639738D01*
X24203448Y-17592119D01*
X24193924Y-17563548D01*
X24184400Y-17544500D01*
X24165352Y-17515929D01*
X24155828Y-17506405D01*
D16*
X17464400Y-17853500D02*
X17574400Y-17963500D01*
X17574400Y-17853500D02*
X17464400Y-17963500D01*
X17574400Y-17908500D02*
G75*
G03*
X17574400Y-17908500I-55000J0D01*
G01*
D11*
X17936781Y-17998976D02*
X17822495Y-17998976D01*
X17879638Y-17998976D02*
X17879638Y-17798976D01*
X17860590Y-17827548D01*
X17841543Y-17846595D01*
X17822495Y-17856119D01*
X18022495Y-17979929D02*
X18032019Y-17989452D01*
X18022495Y-17998976D01*
X18012971Y-17989452D01*
X18022495Y-17979929D01*
X18022495Y-17998976D01*
X18222495Y-17998976D02*
X18108210Y-17998976D01*
X18165352Y-17998976D02*
X18165352Y-17798976D01*
X18146305Y-17827548D01*
X18127257Y-17846595D01*
X18108210Y-17856119D01*
X18346305Y-17798976D02*
X18365352Y-17798976D01*
X18384400Y-17808500D01*
X18393924Y-17818024D01*
X18403448Y-17837071D01*
X18412971Y-17875167D01*
X18412971Y-17922786D01*
X18403448Y-17960881D01*
X18393924Y-17979929D01*
X18384400Y-17989452D01*
X18365352Y-17998976D01*
X18346305Y-17998976D01*
X18327257Y-17989452D01*
X18317733Y-17979929D01*
X18308210Y-17960881D01*
X18298686Y-17922786D01*
X18298686Y-17875167D01*
X18308210Y-17837071D01*
X18317733Y-17818024D01*
X18327257Y-17808500D01*
X18346305Y-17798976D01*
X18536781Y-17798976D02*
X18555829Y-17798976D01*
X18574876Y-17808500D01*
X18584400Y-17818024D01*
X18593924Y-17837071D01*
X18603448Y-17875167D01*
X18603448Y-17922786D01*
X18593924Y-17960881D01*
X18584400Y-17979929D01*
X18574876Y-17989452D01*
X18555829Y-17998976D01*
X18536781Y-17998976D01*
X18517733Y-17989452D01*
X18508210Y-17979929D01*
X18498686Y-17960881D01*
X18489162Y-17922786D01*
X18489162Y-17875167D01*
X18498686Y-17837071D01*
X18508210Y-17818024D01*
X18517733Y-17808500D01*
X18536781Y-17798976D01*
X18689162Y-17998976D02*
X18689162Y-17865643D01*
X18689162Y-17884690D02*
X18698686Y-17875167D01*
X18717733Y-17865643D01*
X18746305Y-17865643D01*
X18765352Y-17875167D01*
X18774876Y-17894214D01*
X18774876Y-17998976D01*
X18774876Y-17894214D02*
X18784400Y-17875167D01*
X18803448Y-17865643D01*
X18832019Y-17865643D01*
X18851067Y-17875167D01*
X18860590Y-17894214D01*
X18860590Y-17998976D01*
X18955829Y-17998976D02*
X18955829Y-17865643D01*
X18955829Y-17884690D02*
X18965352Y-17875167D01*
X18984400Y-17865643D01*
X19012971Y-17865643D01*
X19032019Y-17875167D01*
X19041543Y-17894214D01*
X19041543Y-17998976D01*
X19041543Y-17894214D02*
X19051067Y-17875167D01*
X19070114Y-17865643D01*
X19098686Y-17865643D01*
X19117733Y-17875167D01*
X19127257Y-17894214D01*
X19127257Y-17998976D01*
X19517733Y-17789452D02*
X19346305Y-18046595D01*
X19774876Y-17798976D02*
X19793924Y-17798976D01*
X19812971Y-17808500D01*
X19822495Y-17818024D01*
X19832019Y-17837071D01*
X19841543Y-17875167D01*
X19841543Y-17922786D01*
X19832019Y-17960881D01*
X19822495Y-17979929D01*
X19812971Y-17989452D01*
X19793924Y-17998976D01*
X19774876Y-17998976D01*
X19755829Y-17989452D01*
X19746305Y-17979929D01*
X19736781Y-17960881D01*
X19727257Y-17922786D01*
X19727257Y-17875167D01*
X19736781Y-17837071D01*
X19746305Y-17818024D01*
X19755829Y-17808500D01*
X19774876Y-17798976D01*
X19927257Y-17979929D02*
X19936781Y-17989452D01*
X19927257Y-17998976D01*
X19917733Y-17989452D01*
X19927257Y-17979929D01*
X19927257Y-17998976D01*
X20060590Y-17798976D02*
X20079638Y-17798976D01*
X20098686Y-17808500D01*
X20108210Y-17818024D01*
X20117733Y-17837071D01*
X20127257Y-17875167D01*
X20127257Y-17922786D01*
X20117733Y-17960881D01*
X20108210Y-17979929D01*
X20098686Y-17989452D01*
X20079638Y-17998976D01*
X20060590Y-17998976D01*
X20041543Y-17989452D01*
X20032019Y-17979929D01*
X20022495Y-17960881D01*
X20012971Y-17922786D01*
X20012971Y-17875167D01*
X20022495Y-17837071D01*
X20032019Y-17818024D01*
X20041543Y-17808500D01*
X20060590Y-17798976D01*
X20298686Y-17865643D02*
X20298686Y-17998976D01*
X20251067Y-17789452D02*
X20203448Y-17932310D01*
X20327257Y-17932310D01*
X20384400Y-17798976D02*
X20508210Y-17798976D01*
X20441543Y-17875167D01*
X20470114Y-17875167D01*
X20489162Y-17884690D01*
X20498686Y-17894214D01*
X20508210Y-17913262D01*
X20508210Y-17960881D01*
X20498686Y-17979929D01*
X20489162Y-17989452D01*
X20470114Y-17998976D01*
X20412971Y-17998976D01*
X20393924Y-17989452D01*
X20384400Y-17979929D01*
X20574876Y-17798976D02*
X20698686Y-17798976D01*
X20632019Y-17875167D01*
X20660590Y-17875167D01*
X20679638Y-17884690D01*
X20689162Y-17894214D01*
X20698686Y-17913262D01*
X20698686Y-17960881D01*
X20689162Y-17979929D01*
X20679638Y-17989452D01*
X20660590Y-17998976D01*
X20603448Y-17998976D01*
X20584400Y-17989452D01*
X20574876Y-17979929D01*
X20774876Y-17798976D02*
X20774876Y-17837071D01*
X20851067Y-17798976D02*
X20851067Y-17837071D01*
X21146305Y-18075167D02*
X21136781Y-18065643D01*
X21117733Y-18037071D01*
X21108210Y-18018024D01*
X21098686Y-17989452D01*
X21089162Y-17941833D01*
X21089162Y-17903738D01*
X21098686Y-17856119D01*
X21108210Y-17827548D01*
X21117733Y-17808500D01*
X21136781Y-17779929D01*
X21146305Y-17770405D01*
X21327257Y-17998976D02*
X21212971Y-17998976D01*
X21270114Y-17998976D02*
X21270114Y-17798976D01*
X21251067Y-17827548D01*
X21232019Y-17846595D01*
X21212971Y-17856119D01*
X21403448Y-17818024D02*
X21412971Y-17808500D01*
X21432019Y-17798976D01*
X21479638Y-17798976D01*
X21498686Y-17808500D01*
X21508210Y-17818024D01*
X21517733Y-17837071D01*
X21517733Y-17856119D01*
X21508210Y-17884690D01*
X21393924Y-17998976D01*
X21517733Y-17998976D01*
X21755829Y-17998976D02*
X21755829Y-17798976D01*
X21841543Y-17998976D02*
X21841543Y-17894214D01*
X21832019Y-17875167D01*
X21812971Y-17865643D01*
X21784400Y-17865643D01*
X21765352Y-17875167D01*
X21755829Y-17884690D01*
X21965352Y-17998976D02*
X21946305Y-17989452D01*
X21936781Y-17979929D01*
X21927257Y-17960881D01*
X21927257Y-17903738D01*
X21936781Y-17884690D01*
X21946305Y-17875167D01*
X21965352Y-17865643D01*
X21993924Y-17865643D01*
X22012971Y-17875167D01*
X22022495Y-17884690D01*
X22032019Y-17903738D01*
X22032019Y-17960881D01*
X22022495Y-17979929D01*
X22012971Y-17989452D01*
X21993924Y-17998976D01*
X21965352Y-17998976D01*
X22146305Y-17998976D02*
X22127257Y-17989452D01*
X22117733Y-17970405D01*
X22117733Y-17798976D01*
X22298686Y-17989452D02*
X22279638Y-17998976D01*
X22241543Y-17998976D01*
X22222495Y-17989452D01*
X22212971Y-17970405D01*
X22212971Y-17894214D01*
X22222495Y-17875167D01*
X22241543Y-17865643D01*
X22279638Y-17865643D01*
X22298686Y-17875167D01*
X22308210Y-17894214D01*
X22308210Y-17913262D01*
X22212971Y-17932310D01*
X22384400Y-17989452D02*
X22403448Y-17998976D01*
X22441543Y-17998976D01*
X22460590Y-17989452D01*
X22470114Y-17970405D01*
X22470114Y-17960881D01*
X22460590Y-17941833D01*
X22441543Y-17932310D01*
X22412971Y-17932310D01*
X22393924Y-17922786D01*
X22384400Y-17903738D01*
X22384400Y-17894214D01*
X22393924Y-17875167D01*
X22412971Y-17865643D01*
X22441543Y-17865643D01*
X22460590Y-17875167D01*
X22536781Y-18075167D02*
X22546305Y-18065643D01*
X22565352Y-18037071D01*
X22574876Y-18018024D01*
X22584400Y-17989452D01*
X22593924Y-17941833D01*
X22593924Y-17903738D01*
X22584400Y-17856119D01*
X22574876Y-17827548D01*
X22565352Y-17808500D01*
X22546305Y-17779929D01*
X22536781Y-17770405D01*
D17*
X17454400Y-18112500D02*
X17574400Y-18232500D01*
X17574400Y-18112500D02*
X17454400Y-18232500D01*
X17514400Y-18112500D02*
X17514400Y-18232500D01*
X17454400Y-18172500D02*
X17574400Y-18172500D01*
D11*
X17936781Y-18262976D02*
X17822495Y-18262976D01*
X17879638Y-18262976D02*
X17879638Y-18062976D01*
X17860590Y-18091548D01*
X17841543Y-18110595D01*
X17822495Y-18120119D01*
X18022495Y-18243929D02*
X18032019Y-18253452D01*
X18022495Y-18262976D01*
X18012971Y-18253452D01*
X18022495Y-18243929D01*
X18022495Y-18262976D01*
X18108210Y-18082024D02*
X18117733Y-18072500D01*
X18136781Y-18062976D01*
X18184400Y-18062976D01*
X18203448Y-18072500D01*
X18212971Y-18082024D01*
X18222495Y-18101071D01*
X18222495Y-18120119D01*
X18212971Y-18148690D01*
X18098686Y-18262976D01*
X18222495Y-18262976D01*
X18346305Y-18062976D02*
X18365352Y-18062976D01*
X18384400Y-18072500D01*
X18393924Y-18082024D01*
X18403448Y-18101071D01*
X18412971Y-18139167D01*
X18412971Y-18186786D01*
X18403448Y-18224881D01*
X18393924Y-18243929D01*
X18384400Y-18253452D01*
X18365352Y-18262976D01*
X18346305Y-18262976D01*
X18327257Y-18253452D01*
X18317733Y-18243929D01*
X18308210Y-18224881D01*
X18298686Y-18186786D01*
X18298686Y-18139167D01*
X18308210Y-18101071D01*
X18317733Y-18082024D01*
X18327257Y-18072500D01*
X18346305Y-18062976D01*
X18536781Y-18062976D02*
X18555829Y-18062976D01*
X18574876Y-18072500D01*
X18584400Y-18082024D01*
X18593924Y-18101071D01*
X18603448Y-18139167D01*
X18603448Y-18186786D01*
X18593924Y-18224881D01*
X18584400Y-18243929D01*
X18574876Y-18253452D01*
X18555829Y-18262976D01*
X18536781Y-18262976D01*
X18517733Y-18253452D01*
X18508210Y-18243929D01*
X18498686Y-18224881D01*
X18489162Y-18186786D01*
X18489162Y-18139167D01*
X18498686Y-18101071D01*
X18508210Y-18082024D01*
X18517733Y-18072500D01*
X18536781Y-18062976D01*
X18689162Y-18262976D02*
X18689162Y-18129643D01*
X18689162Y-18148690D02*
X18698686Y-18139167D01*
X18717733Y-18129643D01*
X18746305Y-18129643D01*
X18765352Y-18139167D01*
X18774876Y-18158214D01*
X18774876Y-18262976D01*
X18774876Y-18158214D02*
X18784400Y-18139167D01*
X18803448Y-18129643D01*
X18832019Y-18129643D01*
X18851067Y-18139167D01*
X18860590Y-18158214D01*
X18860590Y-18262976D01*
X18955829Y-18262976D02*
X18955829Y-18129643D01*
X18955829Y-18148690D02*
X18965352Y-18139167D01*
X18984400Y-18129643D01*
X19012971Y-18129643D01*
X19032019Y-18139167D01*
X19041543Y-18158214D01*
X19041543Y-18262976D01*
X19041543Y-18158214D02*
X19051067Y-18139167D01*
X19070114Y-18129643D01*
X19098686Y-18129643D01*
X19117733Y-18139167D01*
X19127257Y-18158214D01*
X19127257Y-18262976D01*
X19517733Y-18053452D02*
X19346305Y-18310595D01*
X19774876Y-18062976D02*
X19793924Y-18062976D01*
X19812971Y-18072500D01*
X19822495Y-18082024D01*
X19832019Y-18101071D01*
X19841543Y-18139167D01*
X19841543Y-18186786D01*
X19832019Y-18224881D01*
X19822495Y-18243929D01*
X19812971Y-18253452D01*
X19793924Y-18262976D01*
X19774876Y-18262976D01*
X19755829Y-18253452D01*
X19746305Y-18243929D01*
X19736781Y-18224881D01*
X19727257Y-18186786D01*
X19727257Y-18139167D01*
X19736781Y-18101071D01*
X19746305Y-18082024D01*
X19755829Y-18072500D01*
X19774876Y-18062976D01*
X19927257Y-18243929D02*
X19936781Y-18253452D01*
X19927257Y-18262976D01*
X19917733Y-18253452D01*
X19927257Y-18243929D01*
X19927257Y-18262976D01*
X20060590Y-18062976D02*
X20079638Y-18062976D01*
X20098686Y-18072500D01*
X20108210Y-18082024D01*
X20117733Y-18101071D01*
X20127257Y-18139167D01*
X20127257Y-18186786D01*
X20117733Y-18224881D01*
X20108210Y-18243929D01*
X20098686Y-18253452D01*
X20079638Y-18262976D01*
X20060590Y-18262976D01*
X20041543Y-18253452D01*
X20032019Y-18243929D01*
X20022495Y-18224881D01*
X20012971Y-18186786D01*
X20012971Y-18139167D01*
X20022495Y-18101071D01*
X20032019Y-18082024D01*
X20041543Y-18072500D01*
X20060590Y-18062976D01*
X20298686Y-18129643D02*
X20298686Y-18262976D01*
X20251067Y-18053452D02*
X20203448Y-18196310D01*
X20327257Y-18196310D01*
X20384400Y-18062976D02*
X20517733Y-18062976D01*
X20432019Y-18262976D01*
X20584400Y-18082024D02*
X20593924Y-18072500D01*
X20612971Y-18062976D01*
X20660590Y-18062976D01*
X20679638Y-18072500D01*
X20689162Y-18082024D01*
X20698686Y-18101071D01*
X20698686Y-18120119D01*
X20689162Y-18148690D01*
X20574876Y-18262976D01*
X20698686Y-18262976D01*
X20774876Y-18062976D02*
X20774876Y-18101071D01*
X20851067Y-18062976D02*
X20851067Y-18101071D01*
X21146305Y-18339167D02*
X21136781Y-18329643D01*
X21117733Y-18301071D01*
X21108210Y-18282024D01*
X21098686Y-18253452D01*
X21089162Y-18205833D01*
X21089162Y-18167738D01*
X21098686Y-18120119D01*
X21108210Y-18091548D01*
X21117733Y-18072500D01*
X21136781Y-18043929D01*
X21146305Y-18034405D01*
X21251067Y-18148690D02*
X21232019Y-18139167D01*
X21222495Y-18129643D01*
X21212971Y-18110595D01*
X21212971Y-18101071D01*
X21222495Y-18082024D01*
X21232019Y-18072500D01*
X21251067Y-18062976D01*
X21289162Y-18062976D01*
X21308210Y-18072500D01*
X21317733Y-18082024D01*
X21327257Y-18101071D01*
X21327257Y-18110595D01*
X21317733Y-18129643D01*
X21308210Y-18139167D01*
X21289162Y-18148690D01*
X21251067Y-18148690D01*
X21232019Y-18158214D01*
X21222495Y-18167738D01*
X21212971Y-18186786D01*
X21212971Y-18224881D01*
X21222495Y-18243929D01*
X21232019Y-18253452D01*
X21251067Y-18262976D01*
X21289162Y-18262976D01*
X21308210Y-18253452D01*
X21317733Y-18243929D01*
X21327257Y-18224881D01*
X21327257Y-18186786D01*
X21317733Y-18167738D01*
X21308210Y-18158214D01*
X21289162Y-18148690D01*
X21565352Y-18262976D02*
X21565352Y-18062976D01*
X21651067Y-18262976D02*
X21651067Y-18158214D01*
X21641543Y-18139167D01*
X21622495Y-18129643D01*
X21593924Y-18129643D01*
X21574876Y-18139167D01*
X21565352Y-18148690D01*
X21774876Y-18262976D02*
X21755829Y-18253452D01*
X21746305Y-18243929D01*
X21736781Y-18224881D01*
X21736781Y-18167738D01*
X21746305Y-18148690D01*
X21755829Y-18139167D01*
X21774876Y-18129643D01*
X21803448Y-18129643D01*
X21822495Y-18139167D01*
X21832019Y-18148690D01*
X21841543Y-18167738D01*
X21841543Y-18224881D01*
X21832019Y-18243929D01*
X21822495Y-18253452D01*
X21803448Y-18262976D01*
X21774876Y-18262976D01*
X21955829Y-18262976D02*
X21936781Y-18253452D01*
X21927257Y-18234405D01*
X21927257Y-18062976D01*
X22108210Y-18253452D02*
X22089162Y-18262976D01*
X22051067Y-18262976D01*
X22032019Y-18253452D01*
X22022495Y-18234405D01*
X22022495Y-18158214D01*
X22032019Y-18139167D01*
X22051067Y-18129643D01*
X22089162Y-18129643D01*
X22108210Y-18139167D01*
X22117733Y-18158214D01*
X22117733Y-18177262D01*
X22022495Y-18196310D01*
X22193924Y-18253452D02*
X22212971Y-18262976D01*
X22251067Y-18262976D01*
X22270114Y-18253452D01*
X22279638Y-18234405D01*
X22279638Y-18224881D01*
X22270114Y-18205833D01*
X22251067Y-18196310D01*
X22222495Y-18196310D01*
X22203448Y-18186786D01*
X22193924Y-18167738D01*
X22193924Y-18158214D01*
X22203448Y-18139167D01*
X22222495Y-18129643D01*
X22251067Y-18129643D01*
X22270114Y-18139167D01*
X22346305Y-18339167D02*
X22355829Y-18329643D01*
X22374876Y-18301071D01*
X22384400Y-18282024D01*
X22393924Y-18253452D01*
X22403448Y-18205833D01*
X22403448Y-18167738D01*
X22393924Y-18120119D01*
X22384400Y-18091548D01*
X22374876Y-18072500D01*
X22355829Y-18043929D01*
X22346305Y-18034405D01*
D18*
X17444400Y-18371500D02*
X17574400Y-18501500D01*
X17574400Y-18371500D02*
X17444400Y-18501500D01*
X17555362Y-18482462D02*
X17555362Y-18390538D01*
X17463438Y-18390538D01*
X17463438Y-18482462D01*
X17555362Y-18482462D01*
D11*
X17936781Y-18526976D02*
X17822495Y-18526976D01*
X17879638Y-18526976D02*
X17879638Y-18326976D01*
X17860590Y-18355548D01*
X17841543Y-18374595D01*
X17822495Y-18384119D01*
X18022495Y-18507929D02*
X18032019Y-18517452D01*
X18022495Y-18526976D01*
X18012971Y-18517452D01*
X18022495Y-18507929D01*
X18022495Y-18526976D01*
X18098686Y-18326976D02*
X18222495Y-18326976D01*
X18155829Y-18403167D01*
X18184400Y-18403167D01*
X18203448Y-18412690D01*
X18212971Y-18422214D01*
X18222495Y-18441262D01*
X18222495Y-18488881D01*
X18212971Y-18507929D01*
X18203448Y-18517452D01*
X18184400Y-18526976D01*
X18127257Y-18526976D01*
X18108210Y-18517452D01*
X18098686Y-18507929D01*
X18346305Y-18326976D02*
X18365352Y-18326976D01*
X18384400Y-18336500D01*
X18393924Y-18346024D01*
X18403448Y-18365071D01*
X18412971Y-18403167D01*
X18412971Y-18450786D01*
X18403448Y-18488881D01*
X18393924Y-18507929D01*
X18384400Y-18517452D01*
X18365352Y-18526976D01*
X18346305Y-18526976D01*
X18327257Y-18517452D01*
X18317733Y-18507929D01*
X18308210Y-18488881D01*
X18298686Y-18450786D01*
X18298686Y-18403167D01*
X18308210Y-18365071D01*
X18317733Y-18346024D01*
X18327257Y-18336500D01*
X18346305Y-18326976D01*
X18536781Y-18326976D02*
X18555829Y-18326976D01*
X18574876Y-18336500D01*
X18584400Y-18346024D01*
X18593924Y-18365071D01*
X18603448Y-18403167D01*
X18603448Y-18450786D01*
X18593924Y-18488881D01*
X18584400Y-18507929D01*
X18574876Y-18517452D01*
X18555829Y-18526976D01*
X18536781Y-18526976D01*
X18517733Y-18517452D01*
X18508210Y-18507929D01*
X18498686Y-18488881D01*
X18489162Y-18450786D01*
X18489162Y-18403167D01*
X18498686Y-18365071D01*
X18508210Y-18346024D01*
X18517733Y-18336500D01*
X18536781Y-18326976D01*
X18689162Y-18526976D02*
X18689162Y-18393643D01*
X18689162Y-18412690D02*
X18698686Y-18403167D01*
X18717733Y-18393643D01*
X18746305Y-18393643D01*
X18765352Y-18403167D01*
X18774876Y-18422214D01*
X18774876Y-18526976D01*
X18774876Y-18422214D02*
X18784400Y-18403167D01*
X18803448Y-18393643D01*
X18832019Y-18393643D01*
X18851067Y-18403167D01*
X18860590Y-18422214D01*
X18860590Y-18526976D01*
X18955829Y-18526976D02*
X18955829Y-18393643D01*
X18955829Y-18412690D02*
X18965352Y-18403167D01*
X18984400Y-18393643D01*
X19012971Y-18393643D01*
X19032019Y-18403167D01*
X19041543Y-18422214D01*
X19041543Y-18526976D01*
X19041543Y-18422214D02*
X19051067Y-18403167D01*
X19070114Y-18393643D01*
X19098686Y-18393643D01*
X19117733Y-18403167D01*
X19127257Y-18422214D01*
X19127257Y-18526976D01*
X19517733Y-18317452D02*
X19346305Y-18574595D01*
X19774876Y-18326976D02*
X19793924Y-18326976D01*
X19812971Y-18336500D01*
X19822495Y-18346024D01*
X19832019Y-18365071D01*
X19841543Y-18403167D01*
X19841543Y-18450786D01*
X19832019Y-18488881D01*
X19822495Y-18507929D01*
X19812971Y-18517452D01*
X19793924Y-18526976D01*
X19774876Y-18526976D01*
X19755829Y-18517452D01*
X19746305Y-18507929D01*
X19736781Y-18488881D01*
X19727257Y-18450786D01*
X19727257Y-18403167D01*
X19736781Y-18365071D01*
X19746305Y-18346024D01*
X19755829Y-18336500D01*
X19774876Y-18326976D01*
X19927257Y-18507929D02*
X19936781Y-18517452D01*
X19927257Y-18526976D01*
X19917733Y-18517452D01*
X19927257Y-18507929D01*
X19927257Y-18526976D01*
X20060590Y-18326976D02*
X20079638Y-18326976D01*
X20098686Y-18336500D01*
X20108210Y-18346024D01*
X20117733Y-18365071D01*
X20127257Y-18403167D01*
X20127257Y-18450786D01*
X20117733Y-18488881D01*
X20108210Y-18507929D01*
X20098686Y-18517452D01*
X20079638Y-18526976D01*
X20060590Y-18526976D01*
X20041543Y-18517452D01*
X20032019Y-18507929D01*
X20022495Y-18488881D01*
X20012971Y-18450786D01*
X20012971Y-18403167D01*
X20022495Y-18365071D01*
X20032019Y-18346024D01*
X20041543Y-18336500D01*
X20060590Y-18326976D01*
X20308210Y-18326976D02*
X20212971Y-18326976D01*
X20203448Y-18422214D01*
X20212971Y-18412690D01*
X20232019Y-18403167D01*
X20279638Y-18403167D01*
X20298686Y-18412690D01*
X20308210Y-18422214D01*
X20317733Y-18441262D01*
X20317733Y-18488881D01*
X20308210Y-18507929D01*
X20298686Y-18517452D01*
X20279638Y-18526976D01*
X20232019Y-18526976D01*
X20212971Y-18517452D01*
X20203448Y-18507929D01*
X20508210Y-18526976D02*
X20393924Y-18526976D01*
X20451067Y-18526976D02*
X20451067Y-18326976D01*
X20432019Y-18355548D01*
X20412971Y-18374595D01*
X20393924Y-18384119D01*
X20584400Y-18346024D02*
X20593924Y-18336500D01*
X20612971Y-18326976D01*
X20660590Y-18326976D01*
X20679638Y-18336500D01*
X20689162Y-18346024D01*
X20698686Y-18365071D01*
X20698686Y-18384119D01*
X20689162Y-18412690D01*
X20574876Y-18526976D01*
X20698686Y-18526976D01*
X20774876Y-18326976D02*
X20774876Y-18365071D01*
X20851067Y-18326976D02*
X20851067Y-18365071D01*
X21146305Y-18603167D02*
X21136781Y-18593643D01*
X21117733Y-18565071D01*
X21108210Y-18546024D01*
X21098686Y-18517452D01*
X21089162Y-18469833D01*
X21089162Y-18431738D01*
X21098686Y-18384119D01*
X21108210Y-18355548D01*
X21117733Y-18336500D01*
X21136781Y-18307929D01*
X21146305Y-18298405D01*
X21308210Y-18393643D02*
X21308210Y-18526976D01*
X21260590Y-18317452D02*
X21212971Y-18460310D01*
X21336781Y-18460310D01*
X21565352Y-18526976D02*
X21565352Y-18326976D01*
X21651067Y-18526976D02*
X21651067Y-18422214D01*
X21641543Y-18403167D01*
X21622495Y-18393643D01*
X21593924Y-18393643D01*
X21574876Y-18403167D01*
X21565352Y-18412690D01*
X21774876Y-18526976D02*
X21755829Y-18517452D01*
X21746305Y-18507929D01*
X21736781Y-18488881D01*
X21736781Y-18431738D01*
X21746305Y-18412690D01*
X21755829Y-18403167D01*
X21774876Y-18393643D01*
X21803448Y-18393643D01*
X21822495Y-18403167D01*
X21832019Y-18412690D01*
X21841543Y-18431738D01*
X21841543Y-18488881D01*
X21832019Y-18507929D01*
X21822495Y-18517452D01*
X21803448Y-18526976D01*
X21774876Y-18526976D01*
X21955829Y-18526976D02*
X21936781Y-18517452D01*
X21927257Y-18498405D01*
X21927257Y-18326976D01*
X22108210Y-18517452D02*
X22089162Y-18526976D01*
X22051067Y-18526976D01*
X22032019Y-18517452D01*
X22022495Y-18498405D01*
X22022495Y-18422214D01*
X22032019Y-18403167D01*
X22051067Y-18393643D01*
X22089162Y-18393643D01*
X22108210Y-18403167D01*
X22117733Y-18422214D01*
X22117733Y-18441262D01*
X22022495Y-18460310D01*
X22193924Y-18517452D02*
X22212971Y-18526976D01*
X22251067Y-18526976D01*
X22270114Y-18517452D01*
X22279638Y-18498405D01*
X22279638Y-18488881D01*
X22270114Y-18469833D01*
X22251067Y-18460310D01*
X22222495Y-18460310D01*
X22203448Y-18450786D01*
X22193924Y-18431738D01*
X22193924Y-18422214D01*
X22203448Y-18403167D01*
X22222495Y-18393643D01*
X22251067Y-18393643D01*
X22270114Y-18403167D01*
X22346305Y-18603167D02*
X22355829Y-18593643D01*
X22374876Y-18565071D01*
X22384400Y-18546024D01*
X22393924Y-18517452D01*
X22403448Y-18469833D01*
X22403448Y-18431738D01*
X22393924Y-18384119D01*
X22384400Y-18355548D01*
X22374876Y-18336500D01*
X22355829Y-18307929D01*
X22346305Y-18298405D01*
D19*
X17434400Y-18630500D02*
X17574400Y-18770500D01*
X17574400Y-18630500D02*
X17434400Y-18770500D01*
X17504400Y-18770500D02*
X17574400Y-18700500D01*
X17504400Y-18630500D01*
X17434400Y-18700500D01*
X17504400Y-18770500D01*
D11*
X17936781Y-18790976D02*
X17822495Y-18790976D01*
X17879638Y-18790976D02*
X17879638Y-18590976D01*
X17860590Y-18619548D01*
X17841543Y-18638595D01*
X17822495Y-18648119D01*
X18022495Y-18771929D02*
X18032019Y-18781452D01*
X18022495Y-18790976D01*
X18012971Y-18781452D01*
X18022495Y-18771929D01*
X18022495Y-18790976D01*
X18203448Y-18657643D02*
X18203448Y-18790976D01*
X18155829Y-18581452D02*
X18108210Y-18724310D01*
X18232019Y-18724310D01*
X18346305Y-18590976D02*
X18365352Y-18590976D01*
X18384400Y-18600500D01*
X18393924Y-18610024D01*
X18403448Y-18629071D01*
X18412971Y-18667167D01*
X18412971Y-18714786D01*
X18403448Y-18752881D01*
X18393924Y-18771929D01*
X18384400Y-18781452D01*
X18365352Y-18790976D01*
X18346305Y-18790976D01*
X18327257Y-18781452D01*
X18317733Y-18771929D01*
X18308210Y-18752881D01*
X18298686Y-18714786D01*
X18298686Y-18667167D01*
X18308210Y-18629071D01*
X18317733Y-18610024D01*
X18327257Y-18600500D01*
X18346305Y-18590976D01*
X18536781Y-18590976D02*
X18555829Y-18590976D01*
X18574876Y-18600500D01*
X18584400Y-18610024D01*
X18593924Y-18629071D01*
X18603448Y-18667167D01*
X18603448Y-18714786D01*
X18593924Y-18752881D01*
X18584400Y-18771929D01*
X18574876Y-18781452D01*
X18555829Y-18790976D01*
X18536781Y-18790976D01*
X18517733Y-18781452D01*
X18508210Y-18771929D01*
X18498686Y-18752881D01*
X18489162Y-18714786D01*
X18489162Y-18667167D01*
X18498686Y-18629071D01*
X18508210Y-18610024D01*
X18517733Y-18600500D01*
X18536781Y-18590976D01*
X18689162Y-18790976D02*
X18689162Y-18657643D01*
X18689162Y-18676690D02*
X18698686Y-18667167D01*
X18717733Y-18657643D01*
X18746305Y-18657643D01*
X18765352Y-18667167D01*
X18774876Y-18686214D01*
X18774876Y-18790976D01*
X18774876Y-18686214D02*
X18784400Y-18667167D01*
X18803448Y-18657643D01*
X18832019Y-18657643D01*
X18851067Y-18667167D01*
X18860590Y-18686214D01*
X18860590Y-18790976D01*
X18955829Y-18790976D02*
X18955829Y-18657643D01*
X18955829Y-18676690D02*
X18965352Y-18667167D01*
X18984400Y-18657643D01*
X19012971Y-18657643D01*
X19032019Y-18667167D01*
X19041543Y-18686214D01*
X19041543Y-18790976D01*
X19041543Y-18686214D02*
X19051067Y-18667167D01*
X19070114Y-18657643D01*
X19098686Y-18657643D01*
X19117733Y-18667167D01*
X19127257Y-18686214D01*
X19127257Y-18790976D01*
X19517733Y-18581452D02*
X19346305Y-18838595D01*
X19774876Y-18590976D02*
X19793924Y-18590976D01*
X19812971Y-18600500D01*
X19822495Y-18610024D01*
X19832019Y-18629071D01*
X19841543Y-18667167D01*
X19841543Y-18714786D01*
X19832019Y-18752881D01*
X19822495Y-18771929D01*
X19812971Y-18781452D01*
X19793924Y-18790976D01*
X19774876Y-18790976D01*
X19755829Y-18781452D01*
X19746305Y-18771929D01*
X19736781Y-18752881D01*
X19727257Y-18714786D01*
X19727257Y-18667167D01*
X19736781Y-18629071D01*
X19746305Y-18610024D01*
X19755829Y-18600500D01*
X19774876Y-18590976D01*
X19927257Y-18771929D02*
X19936781Y-18781452D01*
X19927257Y-18790976D01*
X19917733Y-18781452D01*
X19927257Y-18771929D01*
X19927257Y-18790976D01*
X20060590Y-18590976D02*
X20079638Y-18590976D01*
X20098686Y-18600500D01*
X20108210Y-18610024D01*
X20117733Y-18629071D01*
X20127257Y-18667167D01*
X20127257Y-18714786D01*
X20117733Y-18752881D01*
X20108210Y-18771929D01*
X20098686Y-18781452D01*
X20079638Y-18790976D01*
X20060590Y-18790976D01*
X20041543Y-18781452D01*
X20032019Y-18771929D01*
X20022495Y-18752881D01*
X20012971Y-18714786D01*
X20012971Y-18667167D01*
X20022495Y-18629071D01*
X20032019Y-18610024D01*
X20041543Y-18600500D01*
X20060590Y-18590976D01*
X20308210Y-18590976D02*
X20212971Y-18590976D01*
X20203448Y-18686214D01*
X20212971Y-18676690D01*
X20232019Y-18667167D01*
X20279638Y-18667167D01*
X20298686Y-18676690D01*
X20308210Y-18686214D01*
X20317733Y-18705262D01*
X20317733Y-18752881D01*
X20308210Y-18771929D01*
X20298686Y-18781452D01*
X20279638Y-18790976D01*
X20232019Y-18790976D01*
X20212971Y-18781452D01*
X20203448Y-18771929D01*
X20498686Y-18590976D02*
X20403448Y-18590976D01*
X20393924Y-18686214D01*
X20403448Y-18676690D01*
X20422495Y-18667167D01*
X20470114Y-18667167D01*
X20489162Y-18676690D01*
X20498686Y-18686214D01*
X20508210Y-18705262D01*
X20508210Y-18752881D01*
X20498686Y-18771929D01*
X20489162Y-18781452D01*
X20470114Y-18790976D01*
X20422495Y-18790976D01*
X20403448Y-18781452D01*
X20393924Y-18771929D01*
X20698686Y-18790976D02*
X20584400Y-18790976D01*
X20641543Y-18790976D02*
X20641543Y-18590976D01*
X20622495Y-18619548D01*
X20603448Y-18638595D01*
X20584400Y-18648119D01*
X20774876Y-18590976D02*
X20774876Y-18629071D01*
X20851067Y-18590976D02*
X20851067Y-18629071D01*
X21146305Y-18867167D02*
X21136781Y-18857643D01*
X21117733Y-18829071D01*
X21108210Y-18810024D01*
X21098686Y-18781452D01*
X21089162Y-18733833D01*
X21089162Y-18695738D01*
X21098686Y-18648119D01*
X21108210Y-18619548D01*
X21117733Y-18600500D01*
X21136781Y-18571929D01*
X21146305Y-18562405D01*
X21212971Y-18610024D02*
X21222495Y-18600500D01*
X21241543Y-18590976D01*
X21289162Y-18590976D01*
X21308210Y-18600500D01*
X21317733Y-18610024D01*
X21327257Y-18629071D01*
X21327257Y-18648119D01*
X21317733Y-18676690D01*
X21203448Y-18790976D01*
X21327257Y-18790976D01*
X21565352Y-18790976D02*
X21565352Y-18590976D01*
X21651067Y-18790976D02*
X21651067Y-18686214D01*
X21641543Y-18667167D01*
X21622495Y-18657643D01*
X21593924Y-18657643D01*
X21574876Y-18667167D01*
X21565352Y-18676690D01*
X21774876Y-18790976D02*
X21755829Y-18781452D01*
X21746305Y-18771929D01*
X21736781Y-18752881D01*
X21736781Y-18695738D01*
X21746305Y-18676690D01*
X21755829Y-18667167D01*
X21774876Y-18657643D01*
X21803448Y-18657643D01*
X21822495Y-18667167D01*
X21832019Y-18676690D01*
X21841543Y-18695738D01*
X21841543Y-18752881D01*
X21832019Y-18771929D01*
X21822495Y-18781452D01*
X21803448Y-18790976D01*
X21774876Y-18790976D01*
X21955829Y-18790976D02*
X21936781Y-18781452D01*
X21927257Y-18762405D01*
X21927257Y-18590976D01*
X22108210Y-18781452D02*
X22089162Y-18790976D01*
X22051067Y-18790976D01*
X22032019Y-18781452D01*
X22022495Y-18762405D01*
X22022495Y-18686214D01*
X22032019Y-18667167D01*
X22051067Y-18657643D01*
X22089162Y-18657643D01*
X22108210Y-18667167D01*
X22117733Y-18686214D01*
X22117733Y-18705262D01*
X22022495Y-18724310D01*
X22193924Y-18781452D02*
X22212971Y-18790976D01*
X22251067Y-18790976D01*
X22270114Y-18781452D01*
X22279638Y-18762405D01*
X22279638Y-18752881D01*
X22270114Y-18733833D01*
X22251067Y-18724310D01*
X22222495Y-18724310D01*
X22203448Y-18714786D01*
X22193924Y-18695738D01*
X22193924Y-18686214D01*
X22203448Y-18667167D01*
X22222495Y-18657643D01*
X22251067Y-18657643D01*
X22270114Y-18667167D01*
X22346305Y-18867167D02*
X22355829Y-18857643D01*
X22374876Y-18829071D01*
X22384400Y-18810024D01*
X22393924Y-18781452D01*
X22403448Y-18733833D01*
X22403448Y-18695738D01*
X22393924Y-18648119D01*
X22384400Y-18619548D01*
X22374876Y-18600500D01*
X22355829Y-18571929D01*
X22346305Y-18562405D01*
D20*
X17484400Y-18874500D02*
X17484400Y-19054500D01*
X17394400Y-18964500D02*
X17574400Y-18964500D01*
X17574400Y-18964500D02*
G75*
G03*
X17574400Y-18964500I-90000J0D01*
G01*
D11*
X17936781Y-19054976D02*
X17822495Y-19054976D01*
X17879638Y-19054976D02*
X17879638Y-18854976D01*
X17860590Y-18883548D01*
X17841543Y-18902595D01*
X17822495Y-18912119D01*
X18022495Y-19035929D02*
X18032019Y-19045452D01*
X18022495Y-19054976D01*
X18012971Y-19045452D01*
X18022495Y-19035929D01*
X18022495Y-19054976D01*
X18146305Y-18940690D02*
X18127257Y-18931167D01*
X18117733Y-18921643D01*
X18108210Y-18902595D01*
X18108210Y-18893071D01*
X18117733Y-18874024D01*
X18127257Y-18864500D01*
X18146305Y-18854976D01*
X18184400Y-18854976D01*
X18203448Y-18864500D01*
X18212971Y-18874024D01*
X18222495Y-18893071D01*
X18222495Y-18902595D01*
X18212971Y-18921643D01*
X18203448Y-18931167D01*
X18184400Y-18940690D01*
X18146305Y-18940690D01*
X18127257Y-18950214D01*
X18117733Y-18959738D01*
X18108210Y-18978786D01*
X18108210Y-19016881D01*
X18117733Y-19035929D01*
X18127257Y-19045452D01*
X18146305Y-19054976D01*
X18184400Y-19054976D01*
X18203448Y-19045452D01*
X18212971Y-19035929D01*
X18222495Y-19016881D01*
X18222495Y-18978786D01*
X18212971Y-18959738D01*
X18203448Y-18950214D01*
X18184400Y-18940690D01*
X18346305Y-18854976D02*
X18365352Y-18854976D01*
X18384400Y-18864500D01*
X18393924Y-18874024D01*
X18403448Y-18893071D01*
X18412971Y-18931167D01*
X18412971Y-18978786D01*
X18403448Y-19016881D01*
X18393924Y-19035929D01*
X18384400Y-19045452D01*
X18365352Y-19054976D01*
X18346305Y-19054976D01*
X18327257Y-19045452D01*
X18317733Y-19035929D01*
X18308210Y-19016881D01*
X18298686Y-18978786D01*
X18298686Y-18931167D01*
X18308210Y-18893071D01*
X18317733Y-18874024D01*
X18327257Y-18864500D01*
X18346305Y-18854976D01*
X18536781Y-18854976D02*
X18555829Y-18854976D01*
X18574876Y-18864500D01*
X18584400Y-18874024D01*
X18593924Y-18893071D01*
X18603448Y-18931167D01*
X18603448Y-18978786D01*
X18593924Y-19016881D01*
X18584400Y-19035929D01*
X18574876Y-19045452D01*
X18555829Y-19054976D01*
X18536781Y-19054976D01*
X18517733Y-19045452D01*
X18508210Y-19035929D01*
X18498686Y-19016881D01*
X18489162Y-18978786D01*
X18489162Y-18931167D01*
X18498686Y-18893071D01*
X18508210Y-18874024D01*
X18517733Y-18864500D01*
X18536781Y-18854976D01*
X18689162Y-19054976D02*
X18689162Y-18921643D01*
X18689162Y-18940690D02*
X18698686Y-18931167D01*
X18717733Y-18921643D01*
X18746305Y-18921643D01*
X18765352Y-18931167D01*
X18774876Y-18950214D01*
X18774876Y-19054976D01*
X18774876Y-18950214D02*
X18784400Y-18931167D01*
X18803448Y-18921643D01*
X18832019Y-18921643D01*
X18851067Y-18931167D01*
X18860590Y-18950214D01*
X18860590Y-19054976D01*
X18955829Y-19054976D02*
X18955829Y-18921643D01*
X18955829Y-18940690D02*
X18965352Y-18931167D01*
X18984400Y-18921643D01*
X19012971Y-18921643D01*
X19032019Y-18931167D01*
X19041543Y-18950214D01*
X19041543Y-19054976D01*
X19041543Y-18950214D02*
X19051067Y-18931167D01*
X19070114Y-18921643D01*
X19098686Y-18921643D01*
X19117733Y-18931167D01*
X19127257Y-18950214D01*
X19127257Y-19054976D01*
X19517733Y-18845452D02*
X19346305Y-19102595D01*
X19774876Y-18854976D02*
X19793924Y-18854976D01*
X19812971Y-18864500D01*
X19822495Y-18874024D01*
X19832019Y-18893071D01*
X19841543Y-18931167D01*
X19841543Y-18978786D01*
X19832019Y-19016881D01*
X19822495Y-19035929D01*
X19812971Y-19045452D01*
X19793924Y-19054976D01*
X19774876Y-19054976D01*
X19755829Y-19045452D01*
X19746305Y-19035929D01*
X19736781Y-19016881D01*
X19727257Y-18978786D01*
X19727257Y-18931167D01*
X19736781Y-18893071D01*
X19746305Y-18874024D01*
X19755829Y-18864500D01*
X19774876Y-18854976D01*
X19927257Y-19035929D02*
X19936781Y-19045452D01*
X19927257Y-19054976D01*
X19917733Y-19045452D01*
X19927257Y-19035929D01*
X19927257Y-19054976D01*
X20060590Y-18854976D02*
X20079638Y-18854976D01*
X20098686Y-18864500D01*
X20108210Y-18874024D01*
X20117733Y-18893071D01*
X20127257Y-18931167D01*
X20127257Y-18978786D01*
X20117733Y-19016881D01*
X20108210Y-19035929D01*
X20098686Y-19045452D01*
X20079638Y-19054976D01*
X20060590Y-19054976D01*
X20041543Y-19045452D01*
X20032019Y-19035929D01*
X20022495Y-19016881D01*
X20012971Y-18978786D01*
X20012971Y-18931167D01*
X20022495Y-18893071D01*
X20032019Y-18874024D01*
X20041543Y-18864500D01*
X20060590Y-18854976D01*
X20193924Y-18854976D02*
X20327257Y-18854976D01*
X20241543Y-19054976D01*
X20441543Y-18854976D02*
X20460590Y-18854976D01*
X20479638Y-18864500D01*
X20489162Y-18874024D01*
X20498686Y-18893071D01*
X20508210Y-18931167D01*
X20508210Y-18978786D01*
X20498686Y-19016881D01*
X20489162Y-19035929D01*
X20479638Y-19045452D01*
X20460590Y-19054976D01*
X20441543Y-19054976D01*
X20422495Y-19045452D01*
X20412971Y-19035929D01*
X20403448Y-19016881D01*
X20393924Y-18978786D01*
X20393924Y-18931167D01*
X20403448Y-18893071D01*
X20412971Y-18874024D01*
X20422495Y-18864500D01*
X20441543Y-18854976D01*
X20603448Y-19054976D02*
X20641543Y-19054976D01*
X20660590Y-19045452D01*
X20670114Y-19035929D01*
X20689162Y-19007357D01*
X20698686Y-18969262D01*
X20698686Y-18893071D01*
X20689162Y-18874024D01*
X20679638Y-18864500D01*
X20660590Y-18854976D01*
X20622495Y-18854976D01*
X20603448Y-18864500D01*
X20593924Y-18874024D01*
X20584400Y-18893071D01*
X20584400Y-18940690D01*
X20593924Y-18959738D01*
X20603448Y-18969262D01*
X20622495Y-18978786D01*
X20660590Y-18978786D01*
X20679638Y-18969262D01*
X20689162Y-18959738D01*
X20698686Y-18940690D01*
X20774876Y-18854976D02*
X20774876Y-18893071D01*
X20851067Y-18854976D02*
X20851067Y-18893071D01*
X21146305Y-19131167D02*
X21136781Y-19121643D01*
X21117733Y-19093071D01*
X21108210Y-19074024D01*
X21098686Y-19045452D01*
X21089162Y-18997833D01*
X21089162Y-18959738D01*
X21098686Y-18912119D01*
X21108210Y-18883548D01*
X21117733Y-18864500D01*
X21136781Y-18835929D01*
X21146305Y-18826405D01*
X21308210Y-18854976D02*
X21270114Y-18854976D01*
X21251067Y-18864500D01*
X21241543Y-18874024D01*
X21222495Y-18902595D01*
X21212971Y-18940690D01*
X21212971Y-19016881D01*
X21222495Y-19035929D01*
X21232019Y-19045452D01*
X21251067Y-19054976D01*
X21289162Y-19054976D01*
X21308210Y-19045452D01*
X21317733Y-19035929D01*
X21327257Y-19016881D01*
X21327257Y-18969262D01*
X21317733Y-18950214D01*
X21308210Y-18940690D01*
X21289162Y-18931167D01*
X21251067Y-18931167D01*
X21232019Y-18940690D01*
X21222495Y-18950214D01*
X21212971Y-18969262D01*
X21565352Y-19054976D02*
X21565352Y-18854976D01*
X21651067Y-19054976D02*
X21651067Y-18950214D01*
X21641543Y-18931167D01*
X21622495Y-18921643D01*
X21593924Y-18921643D01*
X21574876Y-18931167D01*
X21565352Y-18940690D01*
X21774876Y-19054976D02*
X21755829Y-19045452D01*
X21746305Y-19035929D01*
X21736781Y-19016881D01*
X21736781Y-18959738D01*
X21746305Y-18940690D01*
X21755829Y-18931167D01*
X21774876Y-18921643D01*
X21803448Y-18921643D01*
X21822495Y-18931167D01*
X21832019Y-18940690D01*
X21841543Y-18959738D01*
X21841543Y-19016881D01*
X21832019Y-19035929D01*
X21822495Y-19045452D01*
X21803448Y-19054976D01*
X21774876Y-19054976D01*
X21955829Y-19054976D02*
X21936781Y-19045452D01*
X21927257Y-19026405D01*
X21927257Y-18854976D01*
X22108210Y-19045452D02*
X22089162Y-19054976D01*
X22051067Y-19054976D01*
X22032019Y-19045452D01*
X22022495Y-19026405D01*
X22022495Y-18950214D01*
X22032019Y-18931167D01*
X22051067Y-18921643D01*
X22089162Y-18921643D01*
X22108210Y-18931167D01*
X22117733Y-18950214D01*
X22117733Y-18969262D01*
X22022495Y-18988310D01*
X22193924Y-19045452D02*
X22212971Y-19054976D01*
X22251067Y-19054976D01*
X22270114Y-19045452D01*
X22279638Y-19026405D01*
X22279638Y-19016881D01*
X22270114Y-18997833D01*
X22251067Y-18988310D01*
X22222495Y-18988310D01*
X22203448Y-18978786D01*
X22193924Y-18959738D01*
X22193924Y-18950214D01*
X22203448Y-18931167D01*
X22222495Y-18921643D01*
X22251067Y-18921643D01*
X22270114Y-18931167D01*
X22346305Y-19131167D02*
X22355829Y-19121643D01*
X22374876Y-19093071D01*
X22384400Y-19074024D01*
X22393924Y-19045452D01*
X22403448Y-18997833D01*
X22403448Y-18959738D01*
X22393924Y-18912119D01*
X22384400Y-18883548D01*
X22374876Y-18864500D01*
X22355829Y-18835929D01*
X22346305Y-18826405D01*
M02*
