%TF.GenerationSoftware,KiCad,Pcbnew,(6.0.8)*%
%TF.CreationDate,2022-11-15T21:12:59+04:00*%
%TF.ProjectId,Dryer2,44727965-7232-42e6-9b69-6361645f7063,rev?*%
%TF.SameCoordinates,Original*%
%TF.FileFunction,Legend,Bot*%
%TF.FilePolarity,Positive*%
%FSLAX46Y46*%
G04 Gerber Fmt 4.6, Leading zero omitted, Abs format (unit mm)*
G04 Created by KiCad (PCBNEW (6.0.8)) date 2022-11-15 21:12:59*
%MOMM*%
%LPD*%
G01*
G04 APERTURE LIST*
%ADD10C,0.150000*%
G04 APERTURE END LIST*
D10*
X183417071Y-102505928D02*
X182274071Y-102505928D01*
X182274071Y-102778071D01*
X182328500Y-102941357D01*
X182437357Y-103050214D01*
X182546214Y-103104642D01*
X182763928Y-103159071D01*
X182927214Y-103159071D01*
X183144928Y-103104642D01*
X183253785Y-103050214D01*
X183362642Y-102941357D01*
X183417071Y-102778071D01*
X183417071Y-102505928D01*
X182818357Y-103648928D02*
X182818357Y-104029928D01*
X183417071Y-104193214D02*
X183417071Y-103648928D01*
X182274071Y-103648928D01*
X182274071Y-104193214D01*
X183362642Y-104628642D02*
X183417071Y-104791928D01*
X183417071Y-105064071D01*
X183362642Y-105172928D01*
X183308214Y-105227357D01*
X183199357Y-105281785D01*
X183090500Y-105281785D01*
X182981642Y-105227357D01*
X182927214Y-105172928D01*
X182872785Y-105064071D01*
X182818357Y-104846357D01*
X182763928Y-104737500D01*
X182709500Y-104683071D01*
X182600642Y-104628642D01*
X182491785Y-104628642D01*
X182382928Y-104683071D01*
X182328500Y-104737500D01*
X182274071Y-104846357D01*
X182274071Y-105118500D01*
X182328500Y-105281785D01*
X183417071Y-105771642D02*
X182274071Y-105771642D01*
X183417071Y-106315928D02*
X182274071Y-106315928D01*
X183417071Y-106969071D01*
X182274071Y-106969071D01*
X182328500Y-108112071D02*
X182274071Y-108003214D01*
X182274071Y-107839928D01*
X182328500Y-107676642D01*
X182437357Y-107567785D01*
X182546214Y-107513357D01*
X182763928Y-107458928D01*
X182927214Y-107458928D01*
X183144928Y-107513357D01*
X183253785Y-107567785D01*
X183362642Y-107676642D01*
X183417071Y-107839928D01*
X183417071Y-107948785D01*
X183362642Y-108112071D01*
X183308214Y-108166500D01*
X182927214Y-108166500D01*
X182927214Y-107948785D01*
X182818357Y-108656357D02*
X182818357Y-109037357D01*
X183417071Y-109200642D02*
X183417071Y-108656357D01*
X182274071Y-108656357D01*
X182274071Y-109200642D01*
X183417071Y-109690500D02*
X182274071Y-109690500D01*
X182274071Y-109962642D01*
X182328500Y-110125928D01*
X182437357Y-110234785D01*
X182546214Y-110289214D01*
X182763928Y-110343642D01*
X182927214Y-110343642D01*
X183144928Y-110289214D01*
X183253785Y-110234785D01*
X183362642Y-110125928D01*
X183417071Y-109962642D01*
X183417071Y-109690500D01*
X183308214Y-110833500D02*
X183362642Y-110887928D01*
X183417071Y-110833500D01*
X183362642Y-110779071D01*
X183308214Y-110833500D01*
X183417071Y-110833500D01*
X182709500Y-110833500D02*
X182763928Y-110887928D01*
X182818357Y-110833500D01*
X182763928Y-110779071D01*
X182709500Y-110833500D01*
X182818357Y-110833500D01*
X182872785Y-111595500D02*
X183417071Y-111595500D01*
X182274071Y-111214500D02*
X182872785Y-111595500D01*
X182274071Y-111976500D01*
X183090500Y-112303071D02*
X183090500Y-112847357D01*
X183417071Y-112194214D02*
X182274071Y-112575214D01*
X183417071Y-112956214D01*
X183362642Y-113282785D02*
X183417071Y-113446071D01*
X183417071Y-113718214D01*
X183362642Y-113827071D01*
X183308214Y-113881500D01*
X183199357Y-113935928D01*
X183090500Y-113935928D01*
X182981642Y-113881500D01*
X182927214Y-113827071D01*
X182872785Y-113718214D01*
X182818357Y-113500500D01*
X182763928Y-113391642D01*
X182709500Y-113337214D01*
X182600642Y-113282785D01*
X182491785Y-113282785D01*
X182382928Y-113337214D01*
X182328500Y-113391642D01*
X182274071Y-113500500D01*
X182274071Y-113772642D01*
X182328500Y-113935928D01*
X183417071Y-114425785D02*
X182274071Y-114425785D01*
X182818357Y-114425785D02*
X182818357Y-115078928D01*
X183417071Y-115078928D02*
X182274071Y-115078928D01*
X183308214Y-115623214D02*
X183362642Y-115677642D01*
X183417071Y-115623214D01*
X183362642Y-115568785D01*
X183308214Y-115623214D01*
X183417071Y-115623214D01*
X182274071Y-116494071D02*
X183090500Y-116494071D01*
X183253785Y-116439642D01*
X183362642Y-116330785D01*
X183417071Y-116167500D01*
X183417071Y-116058642D01*
X180174071Y-102242000D02*
X181317071Y-102623000D01*
X180174071Y-103004000D01*
X181317071Y-103983714D02*
X181317071Y-103330571D01*
X181317071Y-103657142D02*
X180174071Y-103657142D01*
X180337357Y-103548285D01*
X180446214Y-103439428D01*
X180500642Y-103330571D01*
X181208214Y-104473571D02*
X181262642Y-104528000D01*
X181317071Y-104473571D01*
X181262642Y-104419142D01*
X181208214Y-104473571D01*
X181317071Y-104473571D01*
X181317071Y-105616571D02*
X181317071Y-104963428D01*
X181317071Y-105290000D02*
X180174071Y-105290000D01*
X180337357Y-105181142D01*
X180446214Y-105072285D01*
X180500642Y-104963428D01*
X181425928Y-105834285D02*
X181425928Y-106705142D01*
X181317071Y-107576000D02*
X181317071Y-106922857D01*
X181317071Y-107249428D02*
X180174071Y-107249428D01*
X180337357Y-107140571D01*
X180446214Y-107031714D01*
X180500642Y-106922857D01*
X181317071Y-108664571D02*
X181317071Y-108011428D01*
X181317071Y-108338000D02*
X180174071Y-108338000D01*
X180337357Y-108229142D01*
X180446214Y-108120285D01*
X180500642Y-108011428D01*
X180881642Y-109154428D02*
X180881642Y-110025285D01*
X181317071Y-111168285D02*
X181317071Y-110515142D01*
X181317071Y-110841714D02*
X180174071Y-110841714D01*
X180337357Y-110732857D01*
X180446214Y-110624000D01*
X180500642Y-110515142D01*
X180174071Y-112202428D02*
X180174071Y-111658142D01*
X180718357Y-111603714D01*
X180663928Y-111658142D01*
X180609500Y-111767000D01*
X180609500Y-112039142D01*
X180663928Y-112148000D01*
X180718357Y-112202428D01*
X180827214Y-112256857D01*
X181099357Y-112256857D01*
X181208214Y-112202428D01*
X181262642Y-112148000D01*
X181317071Y-112039142D01*
X181317071Y-111767000D01*
X181262642Y-111658142D01*
X181208214Y-111603714D01*
X180881642Y-112746714D02*
X180881642Y-113617571D01*
X180282928Y-114107428D02*
X180228500Y-114161857D01*
X180174071Y-114270714D01*
X180174071Y-114542857D01*
X180228500Y-114651714D01*
X180282928Y-114706142D01*
X180391785Y-114760571D01*
X180500642Y-114760571D01*
X180663928Y-114706142D01*
X181317071Y-114053000D01*
X181317071Y-114760571D01*
X180282928Y-115196000D02*
X180228500Y-115250428D01*
X180174071Y-115359285D01*
X180174071Y-115631428D01*
X180228500Y-115740285D01*
X180282928Y-115794714D01*
X180391785Y-115849142D01*
X180500642Y-115849142D01*
X180663928Y-115794714D01*
X181317071Y-115141571D01*
X181317071Y-115849142D01*
X178004523Y-102035000D02*
X179274523Y-102337380D01*
X178367380Y-102579285D01*
X179274523Y-102821190D01*
X178004523Y-103123571D01*
X178911666Y-103546904D02*
X178911666Y-104151666D01*
X179274523Y-103425952D02*
X178004523Y-103849285D01*
X179274523Y-104272619D01*
X179214047Y-104635476D02*
X179274523Y-104816904D01*
X179274523Y-105119285D01*
X179214047Y-105240238D01*
X179153571Y-105300714D01*
X179032619Y-105361190D01*
X178911666Y-105361190D01*
X178790714Y-105300714D01*
X178730238Y-105240238D01*
X178669761Y-105119285D01*
X178609285Y-104877380D01*
X178548809Y-104756428D01*
X178488333Y-104695952D01*
X178367380Y-104635476D01*
X178246428Y-104635476D01*
X178125476Y-104695952D01*
X178065000Y-104756428D01*
X178004523Y-104877380D01*
X178004523Y-105179761D01*
X178065000Y-105361190D01*
X179274523Y-105905476D02*
X178004523Y-105905476D01*
X178609285Y-105905476D02*
X178609285Y-106631190D01*
X179274523Y-106631190D02*
X178004523Y-106631190D01*
X179274523Y-107235952D02*
X178004523Y-107235952D01*
X179274523Y-107840714D02*
X178004523Y-107840714D01*
X179274523Y-108566428D01*
X178004523Y-108566428D01*
X178065000Y-109836428D02*
X178004523Y-109715476D01*
X178004523Y-109534047D01*
X178065000Y-109352619D01*
X178185952Y-109231666D01*
X178306904Y-109171190D01*
X178548809Y-109110714D01*
X178730238Y-109110714D01*
X178972142Y-109171190D01*
X179093095Y-109231666D01*
X179214047Y-109352619D01*
X179274523Y-109534047D01*
X179274523Y-109655000D01*
X179214047Y-109836428D01*
X179153571Y-109896904D01*
X178730238Y-109896904D01*
X178730238Y-109655000D01*
X179395476Y-110138809D02*
X179395476Y-111106428D01*
X179274523Y-111408809D02*
X178004523Y-111408809D01*
X178004523Y-111711190D01*
X178065000Y-111892619D01*
X178185952Y-112013571D01*
X178306904Y-112074047D01*
X178548809Y-112134523D01*
X178730238Y-112134523D01*
X178972142Y-112074047D01*
X179093095Y-112013571D01*
X179214047Y-111892619D01*
X179274523Y-111711190D01*
X179274523Y-111408809D01*
X179274523Y-113404523D02*
X178669761Y-112981190D01*
X179274523Y-112678809D02*
X178004523Y-112678809D01*
X178004523Y-113162619D01*
X178065000Y-113283571D01*
X178125476Y-113344047D01*
X178246428Y-113404523D01*
X178427857Y-113404523D01*
X178548809Y-113344047D01*
X178609285Y-113283571D01*
X178669761Y-113162619D01*
X178669761Y-112678809D01*
X178669761Y-114190714D02*
X179274523Y-114190714D01*
X178004523Y-113767380D02*
X178669761Y-114190714D01*
X178004523Y-114614047D01*
X178609285Y-115037380D02*
X178609285Y-115460714D01*
X179274523Y-115642142D02*
X179274523Y-115037380D01*
X178004523Y-115037380D01*
X178004523Y-115642142D01*
X179274523Y-116912142D02*
X178669761Y-116488809D01*
X179274523Y-116186428D02*
X178004523Y-116186428D01*
X178004523Y-116670238D01*
X178065000Y-116791190D01*
X178125476Y-116851666D01*
X178246428Y-116912142D01*
X178427857Y-116912142D01*
X178548809Y-116851666D01*
X178609285Y-116791190D01*
X178669761Y-116670238D01*
X178669761Y-116186428D01*
X179395476Y-117154047D02*
X179395476Y-118121666D01*
X179274523Y-118424047D02*
X178004523Y-118424047D01*
X178911666Y-118847380D01*
X178004523Y-119270714D01*
X179274523Y-119270714D01*
X178911666Y-119815000D02*
X178911666Y-120419761D01*
X179274523Y-119694047D02*
X178004523Y-120117380D01*
X179274523Y-120540714D01*
X179153571Y-121689761D02*
X179214047Y-121629285D01*
X179274523Y-121447857D01*
X179274523Y-121326904D01*
X179214047Y-121145476D01*
X179093095Y-121024523D01*
X178972142Y-120964047D01*
X178730238Y-120903571D01*
X178548809Y-120903571D01*
X178306904Y-120964047D01*
X178185952Y-121024523D01*
X178065000Y-121145476D01*
X178004523Y-121326904D01*
X178004523Y-121447857D01*
X178065000Y-121629285D01*
X178125476Y-121689761D01*
X179274523Y-122234047D02*
X178004523Y-122234047D01*
X178609285Y-122234047D02*
X178609285Y-122959761D01*
X179274523Y-122959761D02*
X178004523Y-122959761D01*
X179274523Y-123564523D02*
X178004523Y-123564523D01*
X179274523Y-124169285D02*
X178004523Y-124169285D01*
X179274523Y-124895000D01*
X178004523Y-124895000D01*
X178609285Y-125499761D02*
X178609285Y-125923095D01*
X179274523Y-126104523D02*
X179274523Y-125499761D01*
X178004523Y-125499761D01*
X178004523Y-126104523D01*
X257885714Y-69452380D02*
X257885714Y-68452380D01*
X257314285Y-69452380D01*
X257314285Y-68452380D01*
X256266666Y-69357142D02*
X256314285Y-69404761D01*
X256457142Y-69452380D01*
X256552380Y-69452380D01*
X256695238Y-69404761D01*
X256790476Y-69309523D01*
X256838095Y-69214285D01*
X256885714Y-69023809D01*
X256885714Y-68880952D01*
X256838095Y-68690476D01*
X256790476Y-68595238D01*
X256695238Y-68500000D01*
X256552380Y-68452380D01*
X256457142Y-68452380D01*
X256314285Y-68500000D01*
X256266666Y-68547619D01*
X255061904Y-74300000D02*
X255157142Y-74252380D01*
X255300000Y-74252380D01*
X255442857Y-74300000D01*
X255538095Y-74395238D01*
X255585714Y-74490476D01*
X255633333Y-74680952D01*
X255633333Y-74823809D01*
X255585714Y-75014285D01*
X255538095Y-75109523D01*
X255442857Y-75204761D01*
X255300000Y-75252380D01*
X255204761Y-75252380D01*
X255061904Y-75204761D01*
X255014285Y-75157142D01*
X255014285Y-74823809D01*
X255204761Y-74823809D01*
X254585714Y-75252380D02*
X254585714Y-74252380D01*
X254014285Y-75252380D01*
X254014285Y-74252380D01*
X253538095Y-75252380D02*
X253538095Y-74252380D01*
X253300000Y-74252380D01*
X253157142Y-74300000D01*
X253061904Y-74395238D01*
X253014285Y-74490476D01*
X252966666Y-74680952D01*
X252966666Y-74823809D01*
X253014285Y-75014285D01*
X253061904Y-75109523D01*
X253157142Y-75204761D01*
X253300000Y-75252380D01*
X253538095Y-75252380D01*
X258261904Y-74200000D02*
X258357142Y-74152380D01*
X258500000Y-74152380D01*
X258642857Y-74200000D01*
X258738095Y-74295238D01*
X258785714Y-74390476D01*
X258833333Y-74580952D01*
X258833333Y-74723809D01*
X258785714Y-74914285D01*
X258738095Y-75009523D01*
X258642857Y-75104761D01*
X258500000Y-75152380D01*
X258404761Y-75152380D01*
X258261904Y-75104761D01*
X258214285Y-75057142D01*
X258214285Y-74723809D01*
X258404761Y-74723809D01*
X257785714Y-75152380D02*
X257785714Y-74152380D01*
X257214285Y-75152380D01*
X257214285Y-74152380D01*
X256738095Y-75152380D02*
X256738095Y-74152380D01*
X256500000Y-74152380D01*
X256357142Y-74200000D01*
X256261904Y-74295238D01*
X256214285Y-74390476D01*
X256166666Y-74580952D01*
X256166666Y-74723809D01*
X256214285Y-74914285D01*
X256261904Y-75009523D01*
X256357142Y-75104761D01*
X256500000Y-75152380D01*
X256738095Y-75152380D01*
X259147619Y-73752380D02*
X259147619Y-72752380D01*
X259147619Y-73228571D02*
X258576190Y-73228571D01*
X258576190Y-73752380D02*
X258576190Y-72752380D01*
X258100000Y-73752380D02*
X258100000Y-72752380D01*
X257100000Y-72800000D02*
X257195238Y-72752380D01*
X257338095Y-72752380D01*
X257480952Y-72800000D01*
X257576190Y-72895238D01*
X257623809Y-72990476D01*
X257671428Y-73180952D01*
X257671428Y-73323809D01*
X257623809Y-73514285D01*
X257576190Y-73609523D01*
X257480952Y-73704761D01*
X257338095Y-73752380D01*
X257242857Y-73752380D01*
X257100000Y-73704761D01*
X257052380Y-73657142D01*
X257052380Y-73323809D01*
X257242857Y-73323809D01*
X256623809Y-73752380D02*
X256623809Y-72752380D01*
X256623809Y-73228571D02*
X256052380Y-73228571D01*
X256052380Y-73752380D02*
X256052380Y-72752380D01*
X258685714Y-72352380D02*
X258685714Y-71352380D01*
X258352380Y-72066666D01*
X258019047Y-71352380D01*
X258019047Y-72352380D01*
X257542857Y-71828571D02*
X257209523Y-71828571D01*
X257066666Y-72352380D02*
X257542857Y-72352380D01*
X257542857Y-71352380D01*
X257066666Y-71352380D01*
X256638095Y-72352380D02*
X256638095Y-71352380D01*
X256400000Y-71352380D01*
X256257142Y-71400000D01*
X256161904Y-71495238D01*
X256114285Y-71590476D01*
X256066666Y-71780952D01*
X256066666Y-71923809D01*
X256114285Y-72114285D01*
X256161904Y-72209523D01*
X256257142Y-72304761D01*
X256400000Y-72352380D01*
X256638095Y-72352380D01*
X258185714Y-70952380D02*
X258661904Y-70952380D01*
X258661904Y-69952380D01*
X257661904Y-69952380D02*
X257471428Y-69952380D01*
X257376190Y-70000000D01*
X257280952Y-70095238D01*
X257233333Y-70285714D01*
X257233333Y-70619047D01*
X257280952Y-70809523D01*
X257376190Y-70904761D01*
X257471428Y-70952380D01*
X257661904Y-70952380D01*
X257757142Y-70904761D01*
X257852380Y-70809523D01*
X257900000Y-70619047D01*
X257900000Y-70285714D01*
X257852380Y-70095238D01*
X257757142Y-70000000D01*
X257661904Y-69952380D01*
X256900000Y-69952380D02*
X256661904Y-70952380D01*
X256471428Y-70238095D01*
X256280952Y-70952380D01*
X256042857Y-69952380D01*
X255185714Y-70952380D02*
X255185714Y-69952380D01*
X254614285Y-70952380D01*
X254614285Y-69952380D01*
X253566666Y-70857142D02*
X253614285Y-70904761D01*
X253757142Y-70952380D01*
X253852380Y-70952380D01*
X253995238Y-70904761D01*
X254090476Y-70809523D01*
X254138095Y-70714285D01*
X254185714Y-70523809D01*
X254185714Y-70380952D01*
X254138095Y-70190476D01*
X254090476Y-70095238D01*
X253995238Y-70000000D01*
X253852380Y-69952380D01*
X253757142Y-69952380D01*
X253614285Y-70000000D01*
X253566666Y-70047619D01*
X255633333Y-68452380D02*
X255300000Y-69452380D01*
X254966666Y-68452380D01*
X254061904Y-69357142D02*
X254109523Y-69404761D01*
X254252380Y-69452380D01*
X254347619Y-69452380D01*
X254490476Y-69404761D01*
X254585714Y-69309523D01*
X254633333Y-69214285D01*
X254680952Y-69023809D01*
X254680952Y-68880952D01*
X254633333Y-68690476D01*
X254585714Y-68595238D01*
X254490476Y-68500000D01*
X254347619Y-68452380D01*
X254252380Y-68452380D01*
X254109523Y-68500000D01*
X254061904Y-68547619D01*
X253061904Y-69357142D02*
X253109523Y-69404761D01*
X253252380Y-69452380D01*
X253347619Y-69452380D01*
X253490476Y-69404761D01*
X253585714Y-69309523D01*
X253633333Y-69214285D01*
X253680952Y-69023809D01*
X253680952Y-68880952D01*
X253633333Y-68690476D01*
X253585714Y-68595238D01*
X253490476Y-68500000D01*
X253347619Y-68452380D01*
X253252380Y-68452380D01*
X253109523Y-68500000D01*
X253061904Y-68547619D01*
X255390476Y-72404761D02*
X255247619Y-72452380D01*
X255009523Y-72452380D01*
X254914285Y-72404761D01*
X254866666Y-72357142D01*
X254819047Y-72261904D01*
X254819047Y-72166666D01*
X254866666Y-72071428D01*
X254914285Y-72023809D01*
X255009523Y-71976190D01*
X255200000Y-71928571D01*
X255295238Y-71880952D01*
X255342857Y-71833333D01*
X255390476Y-71738095D01*
X255390476Y-71642857D01*
X255342857Y-71547619D01*
X255295238Y-71500000D01*
X255200000Y-71452380D01*
X254961904Y-71452380D01*
X254819047Y-71500000D01*
X253819047Y-72357142D02*
X253866666Y-72404761D01*
X254009523Y-72452380D01*
X254104761Y-72452380D01*
X254247619Y-72404761D01*
X254342857Y-72309523D01*
X254390476Y-72214285D01*
X254438095Y-72023809D01*
X254438095Y-71880952D01*
X254390476Y-71690476D01*
X254342857Y-71595238D01*
X254247619Y-71500000D01*
X254104761Y-71452380D01*
X254009523Y-71452380D01*
X253866666Y-71500000D01*
X253819047Y-71547619D01*
X252914285Y-72452380D02*
X253390476Y-72452380D01*
X253390476Y-71452380D01*
X255414285Y-73704761D02*
X255271428Y-73752380D01*
X255033333Y-73752380D01*
X254938095Y-73704761D01*
X254890476Y-73657142D01*
X254842857Y-73561904D01*
X254842857Y-73466666D01*
X254890476Y-73371428D01*
X254938095Y-73323809D01*
X255033333Y-73276190D01*
X255223809Y-73228571D01*
X255319047Y-73180952D01*
X255366666Y-73133333D01*
X255414285Y-73038095D01*
X255414285Y-72942857D01*
X255366666Y-72847619D01*
X255319047Y-72800000D01*
X255223809Y-72752380D01*
X254985714Y-72752380D01*
X254842857Y-72800000D01*
X254414285Y-73752380D02*
X254414285Y-72752380D01*
X254176190Y-72752380D01*
X254033333Y-72800000D01*
X253938095Y-72895238D01*
X253890476Y-72990476D01*
X253842857Y-73180952D01*
X253842857Y-73323809D01*
X253890476Y-73514285D01*
X253938095Y-73609523D01*
X254033333Y-73704761D01*
X254176190Y-73752380D01*
X254414285Y-73752380D01*
X253461904Y-73466666D02*
X252985714Y-73466666D01*
X253557142Y-73752380D02*
X253223809Y-72752380D01*
X252890476Y-73752380D01*
X255900000Y-68100000D02*
X255900000Y-75500000D01*
X252700000Y-68100000D02*
X259400000Y-68100000D01*
X259400000Y-68100000D02*
X259400000Y-75500000D01*
X259400000Y-75500000D02*
X252700000Y-75500000D01*
X252700000Y-75500000D02*
X252700000Y-68100000D01*
X252700000Y-73900000D02*
X259400000Y-73900000D01*
X252700000Y-72600000D02*
X259400000Y-72600000D01*
X252700000Y-69600000D02*
X259400000Y-69600000D01*
X252700000Y-71100000D02*
X259400000Y-71100000D01*
M02*
