%TF.GenerationSoftware,KiCad,Pcbnew,(6.0.8)*%
%TF.CreationDate,2022-11-15T21:15:28+04:00*%
%TF.ProjectId,Dryer2,44727965-7232-42e6-9b69-6361645f7063,rev?*%
%TF.SameCoordinates,Original*%
%TF.FileFunction,Drillmap*%
%TF.FilePolarity,Positive*%
%FSLAX45Y45*%
G04 Gerber Fmt 4.5, Leading zero omitted, Abs format (unit mm)*
G04 Created by KiCad (PCBNEW (6.0.8)) date 2022-11-15 21:15:28*
%MOMM*%
%LPD*%
G01*
G04 APERTURE LIST*
%ADD10C,0.100000*%
%ADD11C,0.200000*%
%ADD12C,0.250000*%
G04 APERTURE END LIST*
D10*
X24730000Y-12650000D02*
X25420000Y-12650000D01*
X24730000Y-12350000D02*
G75*
G03*
X24730000Y-12650000I0J-150000D01*
G01*
X24730000Y-12350000D02*
X25420000Y-12350000D01*
X25420000Y-12650000D02*
G75*
G03*
X25420000Y-12350000I0J150000D01*
G01*
X25210000Y-6270000D02*
G75*
G03*
X24910000Y-6270000I-150000J0D01*
G01*
X24910000Y-8710000D02*
G75*
G03*
X25210000Y-8710000I150000J0D01*
G01*
X24910000Y-8710000D02*
X24910000Y-6270000D01*
X25210000Y-8710000D02*
X25210000Y-6270000D01*
X25620000Y-14470000D02*
G75*
G03*
X25620000Y-14170000I0J150000D01*
G01*
X24790000Y-14170000D02*
G75*
G03*
X24790000Y-14470000I0J-150000D01*
G01*
X24790000Y-14170000D02*
X25620000Y-14170000D01*
X24790000Y-14470000D02*
X25620000Y-14470000D01*
X25610000Y-10750000D02*
G75*
G03*
X25610000Y-10450000I0J150000D01*
G01*
X24710000Y-10450000D02*
G75*
G03*
X24710000Y-10750000I0J-150000D01*
G01*
X24710000Y-10450000D02*
X25610000Y-10450000D01*
X24710000Y-10750000D02*
X25610000Y-10750000D01*
X24850000Y-10150000D02*
G75*
G03*
X25150000Y-10150000I150000J0D01*
G01*
X25150000Y-9150000D02*
G75*
G03*
X24850000Y-9150000I-150000J0D01*
G01*
X25150000Y-9150000D02*
X25150000Y-10150000D01*
X24850000Y-9150000D02*
X24850000Y-10150000D01*
X24890000Y-12070000D02*
G75*
G03*
X25190000Y-12070000I150000J0D01*
G01*
X25190000Y-11070000D02*
G75*
G03*
X24890000Y-11070000I-150000J0D01*
G01*
X25190000Y-11070000D02*
X25190000Y-12070000D01*
X24890000Y-11070000D02*
X24890000Y-12070000D01*
X24890000Y-13930000D02*
G75*
G03*
X25190000Y-13930000I150000J0D01*
G01*
X25190000Y-12930000D02*
G75*
G03*
X24890000Y-12930000I-150000J0D01*
G01*
X25190000Y-12930000D02*
X25190000Y-13930000D01*
X24890000Y-12930000D02*
X24890000Y-13930000D01*
X25400000Y-14700000D02*
X25400000Y-15700000D01*
X25100000Y-14700000D02*
X25100000Y-15700000D01*
X25100000Y-15700000D02*
G75*
G03*
X25400000Y-15700000I150000J0D01*
G01*
X25400000Y-14700000D02*
G75*
G03*
X25100000Y-14700000I-150000J0D01*
G01*
D11*
X17584400Y-5938500D02*
X27584400Y-5938500D01*
X27584400Y-5938500D02*
X27584400Y-15938500D01*
X27584400Y-15938500D02*
X17584400Y-15938500D01*
X17584400Y-15938500D02*
X17584400Y-5938500D01*
D12*
X17782000Y-6161500D02*
X18032000Y-6411500D01*
X18032000Y-6161500D02*
X17782000Y-6411500D01*
X17782000Y-15496000D02*
X18032000Y-15746000D01*
X18032000Y-15496000D02*
X17782000Y-15746000D01*
X27115000Y-6145000D02*
X27365000Y-6395000D01*
X27365000Y-6145000D02*
X27115000Y-6395000D01*
X27154600Y-15521400D02*
X27404600Y-15771400D01*
X27404600Y-15521400D02*
X27154600Y-15771400D01*
D11*
X17832019Y-16258976D02*
X17832019Y-16058976D01*
X17879638Y-16058976D01*
X17908210Y-16068500D01*
X17927257Y-16087548D01*
X17936781Y-16106595D01*
X17946305Y-16144690D01*
X17946305Y-16173262D01*
X17936781Y-16211357D01*
X17927257Y-16230405D01*
X17908210Y-16249452D01*
X17879638Y-16258976D01*
X17832019Y-16258976D01*
X18032019Y-16258976D02*
X18032019Y-16125643D01*
X18032019Y-16163738D02*
X18041543Y-16144690D01*
X18051067Y-16135167D01*
X18070114Y-16125643D01*
X18089162Y-16125643D01*
X18155829Y-16258976D02*
X18155829Y-16125643D01*
X18155829Y-16058976D02*
X18146305Y-16068500D01*
X18155829Y-16078024D01*
X18165352Y-16068500D01*
X18155829Y-16058976D01*
X18155829Y-16078024D01*
X18279638Y-16258976D02*
X18260590Y-16249452D01*
X18251067Y-16230405D01*
X18251067Y-16058976D01*
X18384400Y-16258976D02*
X18365352Y-16249452D01*
X18355829Y-16230405D01*
X18355829Y-16058976D01*
X18612971Y-16258976D02*
X18612971Y-16058976D01*
X18679638Y-16201833D01*
X18746305Y-16058976D01*
X18746305Y-16258976D01*
X18927257Y-16258976D02*
X18927257Y-16154214D01*
X18917733Y-16135167D01*
X18898686Y-16125643D01*
X18860590Y-16125643D01*
X18841543Y-16135167D01*
X18927257Y-16249452D02*
X18908210Y-16258976D01*
X18860590Y-16258976D01*
X18841543Y-16249452D01*
X18832019Y-16230405D01*
X18832019Y-16211357D01*
X18841543Y-16192309D01*
X18860590Y-16182786D01*
X18908210Y-16182786D01*
X18927257Y-16173262D01*
X19022495Y-16125643D02*
X19022495Y-16325643D01*
X19022495Y-16135167D02*
X19041543Y-16125643D01*
X19079638Y-16125643D01*
X19098686Y-16135167D01*
X19108210Y-16144690D01*
X19117733Y-16163738D01*
X19117733Y-16220881D01*
X19108210Y-16239928D01*
X19098686Y-16249452D01*
X19079638Y-16258976D01*
X19041543Y-16258976D01*
X19022495Y-16249452D01*
X19203448Y-16239928D02*
X19212971Y-16249452D01*
X19203448Y-16258976D01*
X19193924Y-16249452D01*
X19203448Y-16239928D01*
X19203448Y-16258976D01*
X19203448Y-16135167D02*
X19212971Y-16144690D01*
X19203448Y-16154214D01*
X19193924Y-16144690D01*
X19203448Y-16135167D01*
X19203448Y-16154214D01*
X17374400Y-16488500D02*
X17574400Y-16688500D01*
X17574400Y-16488500D02*
X17374400Y-16688500D01*
X17822495Y-16498024D02*
X17832019Y-16488500D01*
X17851067Y-16478976D01*
X17898686Y-16478976D01*
X17917733Y-16488500D01*
X17927257Y-16498024D01*
X17936781Y-16517071D01*
X17936781Y-16536119D01*
X17927257Y-16564690D01*
X17812971Y-16678976D01*
X17936781Y-16678976D01*
X18022495Y-16659928D02*
X18032019Y-16669452D01*
X18022495Y-16678976D01*
X18012971Y-16669452D01*
X18022495Y-16659928D01*
X18022495Y-16678976D01*
X18212971Y-16478976D02*
X18117733Y-16478976D01*
X18108210Y-16574214D01*
X18117733Y-16564690D01*
X18136781Y-16555167D01*
X18184400Y-16555167D01*
X18203448Y-16564690D01*
X18212971Y-16574214D01*
X18222495Y-16593262D01*
X18222495Y-16640881D01*
X18212971Y-16659928D01*
X18203448Y-16669452D01*
X18184400Y-16678976D01*
X18136781Y-16678976D01*
X18117733Y-16669452D01*
X18108210Y-16659928D01*
X18346305Y-16478976D02*
X18365352Y-16478976D01*
X18384400Y-16488500D01*
X18393924Y-16498024D01*
X18403448Y-16517071D01*
X18412971Y-16555167D01*
X18412971Y-16602786D01*
X18403448Y-16640881D01*
X18393924Y-16659928D01*
X18384400Y-16669452D01*
X18365352Y-16678976D01*
X18346305Y-16678976D01*
X18327257Y-16669452D01*
X18317733Y-16659928D01*
X18308210Y-16640881D01*
X18298686Y-16602786D01*
X18298686Y-16555167D01*
X18308210Y-16517071D01*
X18317733Y-16498024D01*
X18327257Y-16488500D01*
X18346305Y-16478976D01*
X18536781Y-16478976D02*
X18555829Y-16478976D01*
X18574876Y-16488500D01*
X18584400Y-16498024D01*
X18593924Y-16517071D01*
X18603448Y-16555167D01*
X18603448Y-16602786D01*
X18593924Y-16640881D01*
X18584400Y-16659928D01*
X18574876Y-16669452D01*
X18555829Y-16678976D01*
X18536781Y-16678976D01*
X18517733Y-16669452D01*
X18508210Y-16659928D01*
X18498686Y-16640881D01*
X18489162Y-16602786D01*
X18489162Y-16555167D01*
X18498686Y-16517071D01*
X18508210Y-16498024D01*
X18517733Y-16488500D01*
X18536781Y-16478976D01*
X18689162Y-16678976D02*
X18689162Y-16545643D01*
X18689162Y-16564690D02*
X18698686Y-16555167D01*
X18717733Y-16545643D01*
X18746305Y-16545643D01*
X18765352Y-16555167D01*
X18774876Y-16574214D01*
X18774876Y-16678976D01*
X18774876Y-16574214D02*
X18784400Y-16555167D01*
X18803448Y-16545643D01*
X18832019Y-16545643D01*
X18851067Y-16555167D01*
X18860590Y-16574214D01*
X18860590Y-16678976D01*
X18955829Y-16678976D02*
X18955829Y-16545643D01*
X18955829Y-16564690D02*
X18965352Y-16555167D01*
X18984400Y-16545643D01*
X19012971Y-16545643D01*
X19032019Y-16555167D01*
X19041543Y-16574214D01*
X19041543Y-16678976D01*
X19041543Y-16574214D02*
X19051067Y-16555167D01*
X19070114Y-16545643D01*
X19098686Y-16545643D01*
X19117733Y-16555167D01*
X19127257Y-16574214D01*
X19127257Y-16678976D01*
X19517733Y-16469452D02*
X19346305Y-16726595D01*
X19774876Y-16478976D02*
X19793924Y-16478976D01*
X19812971Y-16488500D01*
X19822495Y-16498024D01*
X19832019Y-16517071D01*
X19841543Y-16555167D01*
X19841543Y-16602786D01*
X19832019Y-16640881D01*
X19822495Y-16659928D01*
X19812971Y-16669452D01*
X19793924Y-16678976D01*
X19774876Y-16678976D01*
X19755829Y-16669452D01*
X19746305Y-16659928D01*
X19736781Y-16640881D01*
X19727257Y-16602786D01*
X19727257Y-16555167D01*
X19736781Y-16517071D01*
X19746305Y-16498024D01*
X19755829Y-16488500D01*
X19774876Y-16478976D01*
X19927257Y-16659928D02*
X19936781Y-16669452D01*
X19927257Y-16678976D01*
X19917733Y-16669452D01*
X19927257Y-16659928D01*
X19927257Y-16678976D01*
X20060590Y-16478976D02*
X20079638Y-16478976D01*
X20098686Y-16488500D01*
X20108210Y-16498024D01*
X20117733Y-16517071D01*
X20127257Y-16555167D01*
X20127257Y-16602786D01*
X20117733Y-16640881D01*
X20108210Y-16659928D01*
X20098686Y-16669452D01*
X20079638Y-16678976D01*
X20060590Y-16678976D01*
X20041543Y-16669452D01*
X20032019Y-16659928D01*
X20022495Y-16640881D01*
X20012971Y-16602786D01*
X20012971Y-16555167D01*
X20022495Y-16517071D01*
X20032019Y-16498024D01*
X20041543Y-16488500D01*
X20060590Y-16478976D01*
X20222495Y-16678976D02*
X20260590Y-16678976D01*
X20279638Y-16669452D01*
X20289162Y-16659928D01*
X20308210Y-16631357D01*
X20317733Y-16593262D01*
X20317733Y-16517071D01*
X20308210Y-16498024D01*
X20298686Y-16488500D01*
X20279638Y-16478976D01*
X20241543Y-16478976D01*
X20222495Y-16488500D01*
X20212971Y-16498024D01*
X20203448Y-16517071D01*
X20203448Y-16564690D01*
X20212971Y-16583738D01*
X20222495Y-16593262D01*
X20241543Y-16602786D01*
X20279638Y-16602786D01*
X20298686Y-16593262D01*
X20308210Y-16583738D01*
X20317733Y-16564690D01*
X20432019Y-16564690D02*
X20412971Y-16555167D01*
X20403448Y-16545643D01*
X20393924Y-16526595D01*
X20393924Y-16517071D01*
X20403448Y-16498024D01*
X20412971Y-16488500D01*
X20432019Y-16478976D01*
X20470114Y-16478976D01*
X20489162Y-16488500D01*
X20498686Y-16498024D01*
X20508210Y-16517071D01*
X20508210Y-16526595D01*
X20498686Y-16545643D01*
X20489162Y-16555167D01*
X20470114Y-16564690D01*
X20432019Y-16564690D01*
X20412971Y-16574214D01*
X20403448Y-16583738D01*
X20393924Y-16602786D01*
X20393924Y-16640881D01*
X20403448Y-16659928D01*
X20412971Y-16669452D01*
X20432019Y-16678976D01*
X20470114Y-16678976D01*
X20489162Y-16669452D01*
X20498686Y-16659928D01*
X20508210Y-16640881D01*
X20508210Y-16602786D01*
X20498686Y-16583738D01*
X20489162Y-16574214D01*
X20470114Y-16564690D01*
X20679638Y-16545643D02*
X20679638Y-16678976D01*
X20632019Y-16469452D02*
X20584400Y-16612309D01*
X20708210Y-16612309D01*
X20774876Y-16478976D02*
X20774876Y-16517071D01*
X20851067Y-16478976D02*
X20851067Y-16517071D01*
X21146305Y-16755167D02*
X21136781Y-16745643D01*
X21117733Y-16717071D01*
X21108210Y-16698024D01*
X21098686Y-16669452D01*
X21089162Y-16621833D01*
X21089162Y-16583738D01*
X21098686Y-16536119D01*
X21108210Y-16507548D01*
X21117733Y-16488500D01*
X21136781Y-16459928D01*
X21146305Y-16450405D01*
X21308210Y-16545643D02*
X21308210Y-16678976D01*
X21260590Y-16469452D02*
X21212971Y-16612309D01*
X21336781Y-16612309D01*
X21565352Y-16678976D02*
X21565352Y-16478976D01*
X21651067Y-16678976D02*
X21651067Y-16574214D01*
X21641543Y-16555167D01*
X21622495Y-16545643D01*
X21593924Y-16545643D01*
X21574876Y-16555167D01*
X21565352Y-16564690D01*
X21774876Y-16678976D02*
X21755829Y-16669452D01*
X21746305Y-16659928D01*
X21736781Y-16640881D01*
X21736781Y-16583738D01*
X21746305Y-16564690D01*
X21755829Y-16555167D01*
X21774876Y-16545643D01*
X21803448Y-16545643D01*
X21822495Y-16555167D01*
X21832019Y-16564690D01*
X21841543Y-16583738D01*
X21841543Y-16640881D01*
X21832019Y-16659928D01*
X21822495Y-16669452D01*
X21803448Y-16678976D01*
X21774876Y-16678976D01*
X21955829Y-16678976D02*
X21936781Y-16669452D01*
X21927257Y-16650405D01*
X21927257Y-16478976D01*
X22108210Y-16669452D02*
X22089162Y-16678976D01*
X22051067Y-16678976D01*
X22032019Y-16669452D01*
X22022495Y-16650405D01*
X22022495Y-16574214D01*
X22032019Y-16555167D01*
X22051067Y-16545643D01*
X22089162Y-16545643D01*
X22108210Y-16555167D01*
X22117733Y-16574214D01*
X22117733Y-16593262D01*
X22022495Y-16612309D01*
X22193924Y-16669452D02*
X22212971Y-16678976D01*
X22251067Y-16678976D01*
X22270114Y-16669452D01*
X22279638Y-16650405D01*
X22279638Y-16640881D01*
X22270114Y-16621833D01*
X22251067Y-16612309D01*
X22222495Y-16612309D01*
X22203448Y-16602786D01*
X22193924Y-16583738D01*
X22193924Y-16574214D01*
X22203448Y-16555167D01*
X22222495Y-16545643D01*
X22251067Y-16545643D01*
X22270114Y-16555167D01*
X22346305Y-16755167D02*
X22355829Y-16745643D01*
X22374876Y-16717071D01*
X22384400Y-16698024D01*
X22393924Y-16669452D01*
X22403448Y-16621833D01*
X22403448Y-16583738D01*
X22393924Y-16536119D01*
X22384400Y-16507548D01*
X22374876Y-16488500D01*
X22355829Y-16459928D01*
X22346305Y-16450405D01*
X22708209Y-16755167D02*
X22698686Y-16745643D01*
X22679638Y-16717071D01*
X22670114Y-16698024D01*
X22660590Y-16669452D01*
X22651067Y-16621833D01*
X22651067Y-16583738D01*
X22660590Y-16536119D01*
X22670114Y-16507548D01*
X22679638Y-16488500D01*
X22698686Y-16459928D01*
X22708209Y-16450405D01*
X22784400Y-16545643D02*
X22784400Y-16678976D01*
X22784400Y-16564690D02*
X22793924Y-16555167D01*
X22812971Y-16545643D01*
X22841543Y-16545643D01*
X22860590Y-16555167D01*
X22870114Y-16574214D01*
X22870114Y-16678976D01*
X22993924Y-16678976D02*
X22974876Y-16669452D01*
X22965352Y-16659928D01*
X22955828Y-16640881D01*
X22955828Y-16583738D01*
X22965352Y-16564690D01*
X22974876Y-16555167D01*
X22993924Y-16545643D01*
X23022495Y-16545643D01*
X23041543Y-16555167D01*
X23051067Y-16564690D01*
X23060590Y-16583738D01*
X23060590Y-16640881D01*
X23051067Y-16659928D01*
X23041543Y-16669452D01*
X23022495Y-16678976D01*
X22993924Y-16678976D01*
X23117733Y-16545643D02*
X23193924Y-16545643D01*
X23146305Y-16478976D02*
X23146305Y-16650405D01*
X23155828Y-16669452D01*
X23174876Y-16678976D01*
X23193924Y-16678976D01*
X23412971Y-16545643D02*
X23412971Y-16745643D01*
X23412971Y-16555167D02*
X23432019Y-16545643D01*
X23470114Y-16545643D01*
X23489162Y-16555167D01*
X23498686Y-16564690D01*
X23508209Y-16583738D01*
X23508209Y-16640881D01*
X23498686Y-16659928D01*
X23489162Y-16669452D01*
X23470114Y-16678976D01*
X23432019Y-16678976D01*
X23412971Y-16669452D01*
X23622495Y-16678976D02*
X23603448Y-16669452D01*
X23593924Y-16650405D01*
X23593924Y-16478976D01*
X23784400Y-16678976D02*
X23784400Y-16574214D01*
X23774876Y-16555167D01*
X23755828Y-16545643D01*
X23717733Y-16545643D01*
X23698686Y-16555167D01*
X23784400Y-16669452D02*
X23765352Y-16678976D01*
X23717733Y-16678976D01*
X23698686Y-16669452D01*
X23689162Y-16650405D01*
X23689162Y-16631357D01*
X23698686Y-16612309D01*
X23717733Y-16602786D01*
X23765352Y-16602786D01*
X23784400Y-16593262D01*
X23851067Y-16545643D02*
X23927257Y-16545643D01*
X23879638Y-16478976D02*
X23879638Y-16650405D01*
X23889162Y-16669452D01*
X23908209Y-16678976D01*
X23927257Y-16678976D01*
X24070114Y-16669452D02*
X24051067Y-16678976D01*
X24012971Y-16678976D01*
X23993924Y-16669452D01*
X23984400Y-16650405D01*
X23984400Y-16574214D01*
X23993924Y-16555167D01*
X24012971Y-16545643D01*
X24051067Y-16545643D01*
X24070114Y-16555167D01*
X24079638Y-16574214D01*
X24079638Y-16593262D01*
X23984400Y-16612309D01*
X24251067Y-16678976D02*
X24251067Y-16478976D01*
X24251067Y-16669452D02*
X24232019Y-16678976D01*
X24193924Y-16678976D01*
X24174876Y-16669452D01*
X24165352Y-16659928D01*
X24155828Y-16640881D01*
X24155828Y-16583738D01*
X24165352Y-16564690D01*
X24174876Y-16555167D01*
X24193924Y-16545643D01*
X24232019Y-16545643D01*
X24251067Y-16555167D01*
X24327257Y-16755167D02*
X24336781Y-16745643D01*
X24355828Y-16717071D01*
X24365352Y-16698024D01*
X24374876Y-16669452D01*
X24384400Y-16621833D01*
X24384400Y-16583738D01*
X24374876Y-16536119D01*
X24365352Y-16507548D01*
X24355828Y-16488500D01*
X24336781Y-16459928D01*
X24327257Y-16450405D01*
M02*
