M48
; DRILL file {KiCad (6.0.8)} date Tue Nov 15 21:15:24 2022
; FORMAT={-:-/ absolute / metric / decimal}
; #@! TF.CreationDate,2022-11-15T21:15:24+04:00
; #@! TF.GenerationSoftware,Kicad,Pcbnew,(6.0.8)
; #@! TF.FileFunction,Plated,1,2,PTH
FMAT,2
METRIC
; #@! TA.AperFunction,Plated,PTH,ViaDrill
T1C0.350
; #@! TA.AperFunction,Plated,PTH,ComponentDrill
T2C0.700
; #@! TA.AperFunction,Plated,PTH,ComponentDrill
T3C0.800
; #@! TA.AperFunction,Plated,PTH,ComponentDrill
T4C0.900
; #@! TA.AperFunction,Plated,PTH,ComponentDrill
T5C1.000
; #@! TA.AperFunction,Plated,PTH,ComponentDrill
T6C1.100
; #@! TA.AperFunction,Plated,PTH,ComponentDrill
T7C1.200
; #@! TA.AperFunction,Plated,PTH,ComponentDrill
T8C1.300
; #@! TA.AperFunction,Plated,PTH,ComponentDrill
T9C1.400
; #@! TA.AperFunction,Plated,PTH,ComponentDrill
T10C1.800
%
G90
G05
T1
X227.1Y-139.1
T2
X202.1Y-88.0
T3
X183.82Y-82.7
X188.56Y-129.685
X188.56Y-137.305
X188.86Y-147.29
X188.86Y-154.91
X189.22Y-88.0
X191.1Y-129.685
X191.1Y-137.305
X191.4Y-147.29
X191.4Y-154.91
X193.98Y-82.7
X194.905Y-127.135
X194.905Y-137.295
X195.205Y-144.74
X195.205Y-154.9
X196.596Y-107.15
X196.596Y-112.05
X198.12Y-79.2
X199.355Y-129.685
X199.355Y-137.305
X199.38Y-88.0
X199.655Y-147.29
X199.655Y-154.91
X200.9Y-95.5
X200.9Y-100.5
X201.0Y-105.75
X201.0Y-108.25
X201.0Y-110.85
X201.0Y-113.35
X201.895Y-129.685
X201.895Y-137.305
X201.93Y-69.158
X201.93Y-74.158
X202.195Y-147.29
X202.195Y-154.91
X205.6Y-87.975
X205.6Y-90.515
X205.6Y-93.055
X205.6Y-95.595
X205.6Y-98.135
X205.6Y-100.675
X205.6Y-103.215
X205.6Y-105.755
X205.6Y-108.295
X205.6Y-110.835
X205.6Y-113.375
X205.6Y-115.915
X205.6Y-118.455
X205.6Y-120.995
X205.7Y-127.32
X205.7Y-137.48
X206.0Y-144.74
X206.0Y-154.9
X208.28Y-79.2
X208.935Y-68.2
X208.935Y-75.82
X210.1Y-136.9
X210.1Y-139.44
X210.1Y-141.98
X210.1Y-144.52
X210.1Y-147.06
X211.475Y-68.2
X211.475Y-75.82
X212.6Y-80.7
X213.22Y-87.975
X213.22Y-90.515
X213.22Y-93.055
X213.22Y-95.595
X213.22Y-98.135
X213.22Y-100.675
X213.22Y-103.215
X213.22Y-105.755
X213.22Y-108.295
X213.22Y-110.835
X213.22Y-113.375
X213.22Y-115.915
X213.22Y-118.455
X213.22Y-120.995
X215.1Y-65.84
X215.1Y-76.0
X215.14Y-80.7
X217.22Y-87.6
X217.22Y-90.9
X217.68Y-80.7
X217.932Y-111.292
X217.932Y-116.292
X218.4Y-96.34
X218.4Y-98.88
X218.4Y-101.42
X218.4Y-103.96
X218.4Y-106.5
X219.135Y-68.1
X219.135Y-75.72
X220.22Y-80.7
X220.7Y-135.4
X220.7Y-140.4
X221.5Y-118.5
X221.5Y-121.675
X221.5Y-124.85
X221.5Y-128.025
X221.675Y-68.1
X221.675Y-75.72
X222.76Y-80.7
X223.4Y-96.7
X223.4Y-99.24
X223.4Y-101.78
X223.4Y-104.32
X223.4Y-106.86
X223.4Y-109.4
X223.4Y-111.94
X223.4Y-114.48
X225.7Y-65.64
X225.7Y-75.8
X227.38Y-87.6
X227.38Y-90.9
X229.435Y-68.2
X229.435Y-75.82
X230.7Y-80.82
X230.7Y-90.98
X231.02Y-96.7
X231.02Y-99.24
X231.02Y-101.78
X231.02Y-104.32
X231.02Y-106.86
X231.02Y-109.4
X231.02Y-111.94
X231.02Y-114.48
X231.66Y-118.5
X231.66Y-121.675
X231.66Y-124.85
X231.66Y-128.025
X231.975Y-68.2
X231.975Y-75.82
X234.3Y-78.42
X234.3Y-88.58
X235.7Y-65.52
X235.7Y-75.68
X236.0Y-91.6
X236.0Y-101.76
X236.2Y-110.62
X236.2Y-120.78
X236.3Y-129.22
X236.3Y-139.38
X238.0Y-147.5
X238.0Y-157.66
X239.4Y-91.62
X239.4Y-101.78
X239.444Y-110.62
X239.444Y-120.78
X239.8Y-129.22
X239.8Y-139.38
X241.244Y-147.52
X241.244Y-157.68
X242.8Y-91.62
X242.8Y-101.78
X243.0Y-110.62
X243.0Y-120.78
X243.2Y-129.22
X243.2Y-139.38
X244.8Y-147.52
X244.8Y-157.68
X246.2Y-93.875
X246.2Y-96.415
X246.2Y-98.955
X246.5Y-113.175
X246.5Y-115.715
X246.5Y-118.255
X246.612Y-131.775
X246.612Y-134.315
X246.612Y-136.855
X248.7Y-149.475
X248.7Y-152.015
X248.7Y-154.555
X253.82Y-93.875
X253.82Y-96.415
X253.82Y-98.955
X254.12Y-113.175
X254.12Y-115.715
X254.12Y-118.255
X254.232Y-131.775
X254.232Y-134.315
X254.232Y-136.855
X256.32Y-149.475
X256.32Y-152.015
X256.32Y-154.555
T4
X178.125Y-82.7
X180.665Y-82.7
X188.555Y-123.955
X188.555Y-126.495
X188.855Y-141.56
X188.855Y-144.1
X194.945Y-68.58
X194.945Y-76.2
X199.35Y-123.955
X199.35Y-126.495
X199.65Y-141.56
X199.65Y-144.1
X208.86Y-64.0
X211.4Y-64.0
X218.76Y-64.0
X221.3Y-64.0
X229.16Y-64.2
X231.7Y-64.2
X235.86Y-107.1
X235.96Y-125.6
X237.46Y-143.9
X238.4Y-107.1
X238.5Y-125.6
X239.26Y-87.9
X240.0Y-143.9
X241.8Y-87.9
T5
X180.34Y-91.2
X180.34Y-93.7
X180.34Y-96.2
X180.34Y-98.7
X181.1Y-129.2
X181.1Y-131.7
X181.1Y-134.2
X181.1Y-136.7
X181.1Y-139.2
X181.1Y-141.7
X181.1Y-144.2
X181.1Y-146.7
X213.375Y-129.135
X213.375Y-131.675
X213.55Y-154.1
X215.915Y-129.135
X215.915Y-131.675
X216.05Y-154.1
X218.455Y-129.135
X218.455Y-131.675
X227.1Y-143.0
X227.1Y-153.0
X241.947Y-66.92
X241.947Y-69.46
X241.947Y-72.0
X241.947Y-74.54
X241.947Y-77.08
X244.487Y-66.92
X244.487Y-69.46
X244.487Y-72.0
X244.487Y-74.54
X244.487Y-77.08
T6
X264.855Y-127.26
X264.855Y-129.8
X264.855Y-132.34
X265.755Y-87.06
X265.755Y-89.6
X265.755Y-92.14
X266.055Y-69.06
X266.055Y-71.6
X266.055Y-74.14
X266.855Y-146.36
X266.855Y-148.9
X266.855Y-151.44
T7
X259.2Y-121.96
X259.2Y-137.2
X259.5Y-63.98
X259.5Y-79.22
X259.6Y-84.68
X259.6Y-99.92
X261.5Y-141.58
X261.5Y-156.82
T8
X184.06Y-63.5
X188.66Y-63.5
X199.96Y-63.5
X204.56Y-63.5
T9
X197.92Y-83.4
X208.08Y-83.4
T10
X269.55Y-99.9
X269.55Y-103.86
X269.55Y-107.82
X269.55Y-111.78
X269.55Y-115.74
X269.55Y-119.7
T5
X184.5Y-71.067G85X184.5Y-73.067
G05
X186.5Y-76.767G85X188.5Y-76.767
G05
X190.5Y-71.067G85X190.5Y-73.067
G05
T0
M30
